<?xml version="1.0" encoding="utf-8" standalone="no"?>
<!DOCTYPE svg PUBLIC "-//W3C//DTD SVG 1.1//EN"
  "http://www.w3.org/Graphics/SVG/1.1/DTD/svg11.dtd">
<svg xmlns:xlink="http://www.w3.org/1999/xlink" width="432pt" height="324pt" viewBox="0 0 432 324" xmlns="http://www.w3.org/2000/svg" version="1.1">
 <metadata>
  <rdf:RDF xmlns:dc="http://purl.org/dc/elements/1.1/" xmlns:cc="http://creativecommons.org/ns#" xmlns:rdf="http://www.w3.org/1999/02/22-rdf-syntax-ns#">
   <cc:Work>
    <dc:type rdf:resource="http://purl.org/dc/dcmitype/StillImage"/>
    <dc:date>2025-01-30T23:40:20.128070</dc:date>
    <dc:format>image/svg+xml</dc:format>
    <dc:creator>
     <cc:Agent>
      <dc:title>Matplotlib v3.10.0, https://matplotlib.org/</dc:title>
     </cc:Agent>
    </dc:creator>
   </cc:Work>
  </rdf:RDF>
 </metadata>
 <defs>
  <style type="text/css">*{stroke-linejoin: round; stroke-linecap: butt}</style>
 </defs>
 <g id="figure_1">
  <g id="patch_1">
   <path d="M 0 324 
L 432 324 
L 432 0 
L 0 0 
z
" style="fill: #ffffff"/>
  </g>
  <g id="axes_1">
   <g id="patch_2">
    <path d="M 54 288.36 
L 388.8 288.36 
L 388.8 38.88 
L 54 38.88 
z
" style="fill: #ffffff"/>
   </g>
   <g id="patch_3">
    <path d="M 165.276369 288.36 
L 165.276369 286.573534 
L 171.383399 286.573534 
L 171.383399 284.787068 
L 177.490515 284.787068 
L 177.490515 279.427669 
L 183.597588 279.427669 
L 183.597588 270.495337 
L 189.704661 270.495337 
L 189.704661 254.417141 
L 195.811691 254.417141 
L 195.811691 256.203608 
L 201.918807 256.203608 
L 201.918807 186.531428 
L 208.02588 186.531428 
L 208.02588 193.677293 
L 214.132953 193.677293 
L 214.132953 140.083307 
L 220.239983 140.083307 
L 220.239983 79.343449 
L 226.347099 79.343449 
L 226.347099 88.275788 
L 232.454172 88.275788 
L 232.454172 52.546459 
L 238.561202 52.546459 
L 238.561202 50.76 
L 244.668275 50.76 
L 244.668275 109.713385 
L 250.775348 109.713385 
L 250.775348 127.578035 
L 256.882464 127.578035 
L 256.882464 232.979548 
L 262.989494 232.979548 
L 262.989494 254.417141 
L 269.096567 254.417141 
L 269.096567 270.495337 
L 275.20364 270.495337 
L 275.20364 281.214135 
L 281.310713 281.214135 
L 281.310713 284.787068 
L 287.417786 284.787068 
L 287.417786 286.573534 
L 293.524859 286.573534 
L 293.524859 288.36 
L 299.631932 288.36 
L 299.631932 288.36 
L 305.739005 288.36 
L 305.739005 288.36 
L 311.846078 288.36 
L 311.846078 288.36 
L 317.953107 288.36 
L 317.953107 288.36 
L 324.060224 288.36 
L 324.060224 288.36 
L 330.167297 288.36 
L 330.167297 288.36 
L 336.27437 288.36 
L 336.27437 288.36 
L 342.381399 288.36 
L 342.381399 288.36 
L 348.488516 288.36 
L 348.488516 286.573534 
L 354.595589 286.573534 
L 354.595589 288.36 
" clip-path="url(#pfe27e9f31a)" style="fill: #1f77b4; opacity: 0.8"/>
   </g>
   <g id="patch_4">
    <path d="M 69.218182 288.36 
L 69.218182 280.695484 
L 72.312978 280.695484 
L 72.312978 285.805161 
L 75.407687 285.805161 
L 75.407687 285.805161 
L 78.502483 285.805161 
L 78.502483 273.030968 
L 81.597193 273.030968 
L 81.597193 280.695484 
L 84.691902 280.695484 
L 84.691902 278.140645 
L 87.786698 278.140645 
L 87.786698 273.030968 
L 90.881494 273.030968 
L 90.881494 267.92129 
L 93.976204 267.92129 
L 93.976204 239.818065 
L 97.070913 239.818065 
L 97.070913 257.701936 
L 100.165709 257.701936 
L 100.165709 224.489029 
L 103.260419 224.489029 
L 103.260419 227.043873 
L 106.355128 227.043873 
L 106.355128 191.27613 
L 109.449924 191.27613 
L 109.449924 145.289027 
L 112.54472 145.289027 
L 112.54472 170.837418 
L 115.63943 170.837418 
L 115.63943 137.624518 
L 118.734139 137.624518 
L 118.734139 104.411618 
L 121.828849 104.411618 
L 121.828849 106.966455 
L 124.923645 106.966455 
L 124.923645 81.418064 
L 128.018441 81.418064 
L 128.018441 50.76 
L 131.11315 50.76 
L 131.11315 132.514846 
L 134.20786 132.514846 
L 134.20786 129.959995 
L 137.302656 129.959995 
L 137.302656 129.959995 
L 140.397452 129.959995 
L 140.397452 155.508386 
L 143.492161 155.508386 
L 143.492161 198.940645 
L 146.586871 198.940645 
L 146.586871 219.379357 
L 149.681667 219.379357 
L 149.681667 242.372905 
L 152.776463 242.372905 
L 152.776463 211.714841 
L 155.871172 211.714841 
L 155.871172 260.256774 
L 158.965882 260.256774 
L 158.965882 278.140645 
L 162.060678 278.140645 
L 162.060678 262.811612 
L 165.155387 262.811612 
L 165.155387 288.36 
" clip-path="url(#pfe27e9f31a)" style="fill: #ff7f0e; opacity: 0.8"/>
   </g>
   <g id="patch_5">
    <path d="M 345.166282 288.36 
L 345.166282 285.885 
L 346.082883 285.885 
L 346.082883 285.885 
L 346.999527 285.885 
L 346.999527 285.885 
L 347.916171 285.885 
L 347.916171 288.36 
L 348.832772 288.36 
L 348.832772 283.41 
L 349.749373 283.41 
L 349.749373 275.984999 
L 350.666061 275.984999 
L 350.666061 283.41 
L 351.582705 283.41 
L 351.582705 280.935 
L 352.499349 280.935 
L 352.499349 280.935 
L 353.41595 280.935 
L 353.41595 280.935 
L 354.332594 280.935 
L 354.332594 263.609999 
L 355.249238 263.609999 
L 355.249238 261.134999 
L 356.165839 261.134999 
L 356.165839 261.134999 
L 357.08244 261.134999 
L 357.08244 241.334999 
L 357.999127 241.334999 
L 357.999127 206.685 
L 358.915728 206.685 
L 358.915728 172.034998 
L 359.832329 172.034998 
L 359.832329 179.459998 
L 360.748973 179.459998 
L 360.748973 142.334991 
L 361.665617 142.334991 
L 361.665617 144.809995 
L 362.582261 144.809995 
L 362.582261 107.684995 
L 363.498906 107.684995 
L 363.498906 154.71 
L 364.415506 154.71 
L 364.415506 82.934991 
L 365.332107 82.934991 
L 365.332107 70.559995 
L 366.248795 70.559995 
L 366.248795 50.76 
L 367.165396 50.76 
L 367.165396 77.984995 
L 368.081996 77.984995 
L 368.081996 132.435 
L 368.998641 132.435 
L 368.998641 159.659995 
L 369.915328 159.659995 
L 369.915328 186.884998 
L 370.831929 186.884998 
L 370.831929 233.909999 
L 371.74853 233.909999 
L 371.74853 261.134999 
L 372.665174 261.134999 
L 372.665174 241.334999 
L 373.581818 241.334999 
L 373.581818 288.36 
" clip-path="url(#pfe27e9f31a)" style="fill: #2ca02c; opacity: 0.8"/>
   </g>
   <g id="patch_6">
    <path d="M 278.930274 288.36 
L 278.930274 285.690337 
L 279.583663 285.690337 
L 279.583663 280.351011 
L 280.237052 280.351011 
L 280.237052 285.690337 
L 280.890485 285.690337 
L 280.890485 275.011685 
L 281.543831 275.011685 
L 281.543831 277.681348 
L 282.197176 277.681348 
L 282.197176 261.66337 
L 282.850609 261.66337 
L 282.850609 253.654383 
L 283.503998 253.654383 
L 283.503998 261.66337 
L 284.157387 261.66337 
L 284.157387 248.315055 
L 284.810777 248.315055 
L 284.810777 136.189207 
L 285.464166 136.189207 
L 285.464166 205.600448 
L 286.117598 205.600448 
L 286.117598 181.57348 
L 286.770944 181.57348 
L 286.770944 184.243143 
L 287.424333 184.243143 
L 287.424333 120.171234 
L 288.077723 120.171234 
L 288.077723 117.501571 
L 288.731155 117.501571 
L 288.731155 50.76 
L 289.384501 50.76 
L 289.384501 226.957753 
L 290.03789 226.957753 
L 290.03789 64.108311 
L 290.69128 64.108311 
L 290.69128 90.804948 
L 291.344669 90.804948 
L 291.344669 112.162247 
L 291.998058 112.162247 
L 291.998058 106.822922 
L 292.651447 106.822922 
L 292.651447 144.198194 
L 293.304836 144.198194 
L 293.304836 88.135272 
L 293.958269 88.135272 
L 293.958269 168.225169 
L 294.611658 168.225169 
L 294.611658 242.975731 
L 295.265004 242.975731 
L 295.265004 232.297078 
L 295.918437 232.297078 
L 295.918437 248.315055 
L 296.571869 248.315055 
L 296.571869 272.342023 
L 297.225172 272.342023 
L 297.225172 277.681348 
L 297.878561 277.681348 
L 297.878561 285.690337 
L 298.531993 285.690337 
L 298.531993 283.020674 
L 299.185383 283.020674 
L 299.185383 288.36 
" clip-path="url(#pfe27e9f31a)" style="fill: #d62728; opacity: 0.8"/>
   </g>
   <g id="matplotlib.axis_1">
    <g id="xtick_1">
     <g id="line2d_1">
      <defs>
       <path id="m86537b91ed" d="M 0 0 
L 0 3.5 
" style="stroke: #000000; stroke-width: 0.8"/>
      </defs>
      <g>
       <use xlink:href="#m86537b91ed" x="87.423666" y="288.36" style="stroke: #000000; stroke-width: 0.8"/>
      </g>
     </g>
     <g id="text_1">
      <!-- −9.0 -->
      <g transform="translate(75.28226 302.958438) scale(0.1 -0.1)">
       <defs>
        <path id="DejaVuSans-2212" d="M 678 2272 
L 4684 2272 
L 4684 1741 
L 678 1741 
L 678 2272 
z
" transform="scale(0.015625)"/>
        <path id="DejaVuSans-39" d="M 703 97 
L 703 672 
Q 941 559 1184 500 
Q 1428 441 1663 441 
Q 2288 441 2617 861 
Q 2947 1281 2994 2138 
Q 2813 1869 2534 1725 
Q 2256 1581 1919 1581 
Q 1219 1581 811 2004 
Q 403 2428 403 3163 
Q 403 3881 828 4315 
Q 1253 4750 1959 4750 
Q 2769 4750 3195 4129 
Q 3622 3509 3622 2328 
Q 3622 1225 3098 567 
Q 2575 -91 1691 -91 
Q 1453 -91 1209 -44 
Q 966 3 703 97 
z
M 1959 2075 
Q 2384 2075 2632 2365 
Q 2881 2656 2881 3163 
Q 2881 3666 2632 3958 
Q 2384 4250 1959 4250 
Q 1534 4250 1286 3958 
Q 1038 3666 1038 3163 
Q 1038 2656 1286 2365 
Q 1534 2075 1959 2075 
z
" transform="scale(0.015625)"/>
        <path id="DejaVuSans-2e" d="M 684 794 
L 1344 794 
L 1344 0 
L 684 0 
L 684 794 
z
" transform="scale(0.015625)"/>
        <path id="DejaVuSans-30" d="M 2034 4250 
Q 1547 4250 1301 3770 
Q 1056 3291 1056 2328 
Q 1056 1369 1301 889 
Q 1547 409 2034 409 
Q 2525 409 2770 889 
Q 3016 1369 3016 2328 
Q 3016 3291 2770 3770 
Q 2525 4250 2034 4250 
z
M 2034 4750 
Q 2819 4750 3233 4129 
Q 3647 3509 3647 2328 
Q 3647 1150 3233 529 
Q 2819 -91 2034 -91 
Q 1250 -91 836 529 
Q 422 1150 422 2328 
Q 422 3509 836 4129 
Q 1250 4750 2034 4750 
z
" transform="scale(0.015625)"/>
       </defs>
       <use xlink:href="#DejaVuSans-2212"/>
       <use xlink:href="#DejaVuSans-39" transform="translate(83.789062 0)"/>
       <use xlink:href="#DejaVuSans-2e" transform="translate(147.412109 0)"/>
       <use xlink:href="#DejaVuSans-30" transform="translate(179.199219 0)"/>
      </g>
     </g>
    </g>
    <g id="xtick_2">
     <g id="line2d_2">
      <g>
       <use xlink:href="#m86537b91ed" x="132.892755" y="288.36" style="stroke: #000000; stroke-width: 0.8"/>
      </g>
     </g>
     <g id="text_2">
      <!-- −8.5 -->
      <g transform="translate(120.751349 302.958438) scale(0.1 -0.1)">
       <defs>
        <path id="DejaVuSans-38" d="M 2034 2216 
Q 1584 2216 1326 1975 
Q 1069 1734 1069 1313 
Q 1069 891 1326 650 
Q 1584 409 2034 409 
Q 2484 409 2743 651 
Q 3003 894 3003 1313 
Q 3003 1734 2745 1975 
Q 2488 2216 2034 2216 
z
M 1403 2484 
Q 997 2584 770 2862 
Q 544 3141 544 3541 
Q 544 4100 942 4425 
Q 1341 4750 2034 4750 
Q 2731 4750 3128 4425 
Q 3525 4100 3525 3541 
Q 3525 3141 3298 2862 
Q 3072 2584 2669 2484 
Q 3125 2378 3379 2068 
Q 3634 1759 3634 1313 
Q 3634 634 3220 271 
Q 2806 -91 2034 -91 
Q 1263 -91 848 271 
Q 434 634 434 1313 
Q 434 1759 690 2068 
Q 947 2378 1403 2484 
z
M 1172 3481 
Q 1172 3119 1398 2916 
Q 1625 2713 2034 2713 
Q 2441 2713 2670 2916 
Q 2900 3119 2900 3481 
Q 2900 3844 2670 4047 
Q 2441 4250 2034 4250 
Q 1625 4250 1398 4047 
Q 1172 3844 1172 3481 
z
" transform="scale(0.015625)"/>
        <path id="DejaVuSans-35" d="M 691 4666 
L 3169 4666 
L 3169 4134 
L 1269 4134 
L 1269 2991 
Q 1406 3038 1543 3061 
Q 1681 3084 1819 3084 
Q 2600 3084 3056 2656 
Q 3513 2228 3513 1497 
Q 3513 744 3044 326 
Q 2575 -91 1722 -91 
Q 1428 -91 1123 -41 
Q 819 9 494 109 
L 494 744 
Q 775 591 1075 516 
Q 1375 441 1709 441 
Q 2250 441 2565 725 
Q 2881 1009 2881 1497 
Q 2881 1984 2565 2268 
Q 2250 2553 1709 2553 
Q 1456 2553 1204 2497 
Q 953 2441 691 2322 
L 691 4666 
z
" transform="scale(0.015625)"/>
       </defs>
       <use xlink:href="#DejaVuSans-2212"/>
       <use xlink:href="#DejaVuSans-38" transform="translate(83.789062 0)"/>
       <use xlink:href="#DejaVuSans-2e" transform="translate(147.412109 0)"/>
       <use xlink:href="#DejaVuSans-35" transform="translate(179.199219 0)"/>
      </g>
     </g>
    </g>
    <g id="xtick_3">
     <g id="line2d_3">
      <g>
       <use xlink:href="#m86537b91ed" x="178.361845" y="288.36" style="stroke: #000000; stroke-width: 0.8"/>
      </g>
     </g>
     <g id="text_3">
      <!-- −8.0 -->
      <g transform="translate(166.220439 302.958438) scale(0.1 -0.1)">
       <use xlink:href="#DejaVuSans-2212"/>
       <use xlink:href="#DejaVuSans-38" transform="translate(83.789062 0)"/>
       <use xlink:href="#DejaVuSans-2e" transform="translate(147.412109 0)"/>
       <use xlink:href="#DejaVuSans-30" transform="translate(179.199219 0)"/>
      </g>
     </g>
    </g>
    <g id="xtick_4">
     <g id="line2d_4">
      <g>
       <use xlink:href="#m86537b91ed" x="223.830935" y="288.36" style="stroke: #000000; stroke-width: 0.8"/>
      </g>
     </g>
     <g id="text_4">
      <!-- −7.5 -->
      <g transform="translate(211.689529 302.958438) scale(0.1 -0.1)">
       <defs>
        <path id="DejaVuSans-37" d="M 525 4666 
L 3525 4666 
L 3525 4397 
L 1831 0 
L 1172 0 
L 2766 4134 
L 525 4134 
L 525 4666 
z
" transform="scale(0.015625)"/>
       </defs>
       <use xlink:href="#DejaVuSans-2212"/>
       <use xlink:href="#DejaVuSans-37" transform="translate(83.789062 0)"/>
       <use xlink:href="#DejaVuSans-2e" transform="translate(147.412109 0)"/>
       <use xlink:href="#DejaVuSans-35" transform="translate(179.199219 0)"/>
      </g>
     </g>
    </g>
    <g id="xtick_5">
     <g id="line2d_5">
      <g>
       <use xlink:href="#m86537b91ed" x="269.300024" y="288.36" style="stroke: #000000; stroke-width: 0.8"/>
      </g>
     </g>
     <g id="text_5">
      <!-- −7.0 -->
      <g transform="translate(257.158618 302.958438) scale(0.1 -0.1)">
       <use xlink:href="#DejaVuSans-2212"/>
       <use xlink:href="#DejaVuSans-37" transform="translate(83.789062 0)"/>
       <use xlink:href="#DejaVuSans-2e" transform="translate(147.412109 0)"/>
       <use xlink:href="#DejaVuSans-30" transform="translate(179.199219 0)"/>
      </g>
     </g>
    </g>
    <g id="xtick_6">
     <g id="line2d_6">
      <g>
       <use xlink:href="#m86537b91ed" x="314.769114" y="288.36" style="stroke: #000000; stroke-width: 0.8"/>
      </g>
     </g>
     <g id="text_6">
      <!-- −6.5 -->
      <g transform="translate(302.627708 302.958438) scale(0.1 -0.1)">
       <defs>
        <path id="DejaVuSans-36" d="M 2113 2584 
Q 1688 2584 1439 2293 
Q 1191 2003 1191 1497 
Q 1191 994 1439 701 
Q 1688 409 2113 409 
Q 2538 409 2786 701 
Q 3034 994 3034 1497 
Q 3034 2003 2786 2293 
Q 2538 2584 2113 2584 
z
M 3366 4563 
L 3366 3988 
Q 3128 4100 2886 4159 
Q 2644 4219 2406 4219 
Q 1781 4219 1451 3797 
Q 1122 3375 1075 2522 
Q 1259 2794 1537 2939 
Q 1816 3084 2150 3084 
Q 2853 3084 3261 2657 
Q 3669 2231 3669 1497 
Q 3669 778 3244 343 
Q 2819 -91 2113 -91 
Q 1303 -91 875 529 
Q 447 1150 447 2328 
Q 447 3434 972 4092 
Q 1497 4750 2381 4750 
Q 2619 4750 2861 4703 
Q 3103 4656 3366 4563 
z
" transform="scale(0.015625)"/>
       </defs>
       <use xlink:href="#DejaVuSans-2212"/>
       <use xlink:href="#DejaVuSans-36" transform="translate(83.789062 0)"/>
       <use xlink:href="#DejaVuSans-2e" transform="translate(147.412109 0)"/>
       <use xlink:href="#DejaVuSans-35" transform="translate(179.199219 0)"/>
      </g>
     </g>
    </g>
    <g id="xtick_7">
     <g id="line2d_7">
      <g>
       <use xlink:href="#m86537b91ed" x="360.238204" y="288.36" style="stroke: #000000; stroke-width: 0.8"/>
      </g>
     </g>
     <g id="text_7">
      <!-- −6.0 -->
      <g transform="translate(348.096798 302.958438) scale(0.1 -0.1)">
       <use xlink:href="#DejaVuSans-2212"/>
       <use xlink:href="#DejaVuSans-36" transform="translate(83.789062 0)"/>
       <use xlink:href="#DejaVuSans-2e" transform="translate(147.412109 0)"/>
       <use xlink:href="#DejaVuSans-30" transform="translate(179.199219 0)"/>
      </g>
     </g>
    </g>
    <g id="text_8">
     <!-- log10 probability estimate ($\times 10^{6}$) -->
     <g transform="translate(136.95 318.138125) scale(0.1 -0.1)">
      <defs>
       <path id="DejaVuSans-6c" d="M 603 4863 
L 1178 4863 
L 1178 0 
L 603 0 
L 603 4863 
z
" transform="scale(0.015625)"/>
       <path id="DejaVuSans-6f" d="M 1959 3097 
Q 1497 3097 1228 2736 
Q 959 2375 959 1747 
Q 959 1119 1226 758 
Q 1494 397 1959 397 
Q 2419 397 2687 759 
Q 2956 1122 2956 1747 
Q 2956 2369 2687 2733 
Q 2419 3097 1959 3097 
z
M 1959 3584 
Q 2709 3584 3137 3096 
Q 3566 2609 3566 1747 
Q 3566 888 3137 398 
Q 2709 -91 1959 -91 
Q 1206 -91 779 398 
Q 353 888 353 1747 
Q 353 2609 779 3096 
Q 1206 3584 1959 3584 
z
" transform="scale(0.015625)"/>
       <path id="DejaVuSans-67" d="M 2906 1791 
Q 2906 2416 2648 2759 
Q 2391 3103 1925 3103 
Q 1463 3103 1205 2759 
Q 947 2416 947 1791 
Q 947 1169 1205 825 
Q 1463 481 1925 481 
Q 2391 481 2648 825 
Q 2906 1169 2906 1791 
z
M 3481 434 
Q 3481 -459 3084 -895 
Q 2688 -1331 1869 -1331 
Q 1566 -1331 1297 -1286 
Q 1028 -1241 775 -1147 
L 775 -588 
Q 1028 -725 1275 -790 
Q 1522 -856 1778 -856 
Q 2344 -856 2625 -561 
Q 2906 -266 2906 331 
L 2906 616 
Q 2728 306 2450 153 
Q 2172 0 1784 0 
Q 1141 0 747 490 
Q 353 981 353 1791 
Q 353 2603 747 3093 
Q 1141 3584 1784 3584 
Q 2172 3584 2450 3431 
Q 2728 3278 2906 2969 
L 2906 3500 
L 3481 3500 
L 3481 434 
z
" transform="scale(0.015625)"/>
       <path id="DejaVuSans-31" d="M 794 531 
L 1825 531 
L 1825 4091 
L 703 3866 
L 703 4441 
L 1819 4666 
L 2450 4666 
L 2450 531 
L 3481 531 
L 3481 0 
L 794 0 
L 794 531 
z
" transform="scale(0.015625)"/>
       <path id="DejaVuSans-20" transform="scale(0.015625)"/>
       <path id="DejaVuSans-70" d="M 1159 525 
L 1159 -1331 
L 581 -1331 
L 581 3500 
L 1159 3500 
L 1159 2969 
Q 1341 3281 1617 3432 
Q 1894 3584 2278 3584 
Q 2916 3584 3314 3078 
Q 3713 2572 3713 1747 
Q 3713 922 3314 415 
Q 2916 -91 2278 -91 
Q 1894 -91 1617 61 
Q 1341 213 1159 525 
z
M 3116 1747 
Q 3116 2381 2855 2742 
Q 2594 3103 2138 3103 
Q 1681 3103 1420 2742 
Q 1159 2381 1159 1747 
Q 1159 1113 1420 752 
Q 1681 391 2138 391 
Q 2594 391 2855 752 
Q 3116 1113 3116 1747 
z
" transform="scale(0.015625)"/>
       <path id="DejaVuSans-72" d="M 2631 2963 
Q 2534 3019 2420 3045 
Q 2306 3072 2169 3072 
Q 1681 3072 1420 2755 
Q 1159 2438 1159 1844 
L 1159 0 
L 581 0 
L 581 3500 
L 1159 3500 
L 1159 2956 
Q 1341 3275 1631 3429 
Q 1922 3584 2338 3584 
Q 2397 3584 2469 3576 
Q 2541 3569 2628 3553 
L 2631 2963 
z
" transform="scale(0.015625)"/>
       <path id="DejaVuSans-62" d="M 3116 1747 
Q 3116 2381 2855 2742 
Q 2594 3103 2138 3103 
Q 1681 3103 1420 2742 
Q 1159 2381 1159 1747 
Q 1159 1113 1420 752 
Q 1681 391 2138 391 
Q 2594 391 2855 752 
Q 3116 1113 3116 1747 
z
M 1159 2969 
Q 1341 3281 1617 3432 
Q 1894 3584 2278 3584 
Q 2916 3584 3314 3078 
Q 3713 2572 3713 1747 
Q 3713 922 3314 415 
Q 2916 -91 2278 -91 
Q 1894 -91 1617 61 
Q 1341 213 1159 525 
L 1159 0 
L 581 0 
L 581 4863 
L 1159 4863 
L 1159 2969 
z
" transform="scale(0.015625)"/>
       <path id="DejaVuSans-61" d="M 2194 1759 
Q 1497 1759 1228 1600 
Q 959 1441 959 1056 
Q 959 750 1161 570 
Q 1363 391 1709 391 
Q 2188 391 2477 730 
Q 2766 1069 2766 1631 
L 2766 1759 
L 2194 1759 
z
M 3341 1997 
L 3341 0 
L 2766 0 
L 2766 531 
Q 2569 213 2275 61 
Q 1981 -91 1556 -91 
Q 1019 -91 701 211 
Q 384 513 384 1019 
Q 384 1609 779 1909 
Q 1175 2209 1959 2209 
L 2766 2209 
L 2766 2266 
Q 2766 2663 2505 2880 
Q 2244 3097 1772 3097 
Q 1472 3097 1187 3025 
Q 903 2953 641 2809 
L 641 3341 
Q 956 3463 1253 3523 
Q 1550 3584 1831 3584 
Q 2591 3584 2966 3190 
Q 3341 2797 3341 1997 
z
" transform="scale(0.015625)"/>
       <path id="DejaVuSans-69" d="M 603 3500 
L 1178 3500 
L 1178 0 
L 603 0 
L 603 3500 
z
M 603 4863 
L 1178 4863 
L 1178 4134 
L 603 4134 
L 603 4863 
z
" transform="scale(0.015625)"/>
       <path id="DejaVuSans-74" d="M 1172 4494 
L 1172 3500 
L 2356 3500 
L 2356 3053 
L 1172 3053 
L 1172 1153 
Q 1172 725 1289 603 
Q 1406 481 1766 481 
L 2356 481 
L 2356 0 
L 1766 0 
Q 1100 0 847 248 
Q 594 497 594 1153 
L 594 3053 
L 172 3053 
L 172 3500 
L 594 3500 
L 594 4494 
L 1172 4494 
z
" transform="scale(0.015625)"/>
       <path id="DejaVuSans-79" d="M 2059 -325 
Q 1816 -950 1584 -1140 
Q 1353 -1331 966 -1331 
L 506 -1331 
L 506 -850 
L 844 -850 
Q 1081 -850 1212 -737 
Q 1344 -625 1503 -206 
L 1606 56 
L 191 3500 
L 800 3500 
L 1894 763 
L 2988 3500 
L 3597 3500 
L 2059 -325 
z
" transform="scale(0.015625)"/>
       <path id="DejaVuSans-65" d="M 3597 1894 
L 3597 1613 
L 953 1613 
Q 991 1019 1311 708 
Q 1631 397 2203 397 
Q 2534 397 2845 478 
Q 3156 559 3463 722 
L 3463 178 
Q 3153 47 2828 -22 
Q 2503 -91 2169 -91 
Q 1331 -91 842 396 
Q 353 884 353 1716 
Q 353 2575 817 3079 
Q 1281 3584 2069 3584 
Q 2775 3584 3186 3129 
Q 3597 2675 3597 1894 
z
M 3022 2063 
Q 3016 2534 2758 2815 
Q 2500 3097 2075 3097 
Q 1594 3097 1305 2825 
Q 1016 2553 972 2059 
L 3022 2063 
z
" transform="scale(0.015625)"/>
       <path id="DejaVuSans-73" d="M 2834 3397 
L 2834 2853 
Q 2591 2978 2328 3040 
Q 2066 3103 1784 3103 
Q 1356 3103 1142 2972 
Q 928 2841 928 2578 
Q 928 2378 1081 2264 
Q 1234 2150 1697 2047 
L 1894 2003 
Q 2506 1872 2764 1633 
Q 3022 1394 3022 966 
Q 3022 478 2636 193 
Q 2250 -91 1575 -91 
Q 1294 -91 989 -36 
Q 684 19 347 128 
L 347 722 
Q 666 556 975 473 
Q 1284 391 1588 391 
Q 1994 391 2212 530 
Q 2431 669 2431 922 
Q 2431 1156 2273 1281 
Q 2116 1406 1581 1522 
L 1381 1569 
Q 847 1681 609 1914 
Q 372 2147 372 2553 
Q 372 3047 722 3315 
Q 1072 3584 1716 3584 
Q 2034 3584 2315 3537 
Q 2597 3491 2834 3397 
z
" transform="scale(0.015625)"/>
       <path id="DejaVuSans-6d" d="M 3328 2828 
Q 3544 3216 3844 3400 
Q 4144 3584 4550 3584 
Q 5097 3584 5394 3201 
Q 5691 2819 5691 2113 
L 5691 0 
L 5113 0 
L 5113 2094 
Q 5113 2597 4934 2840 
Q 4756 3084 4391 3084 
Q 3944 3084 3684 2787 
Q 3425 2491 3425 1978 
L 3425 0 
L 2847 0 
L 2847 2094 
Q 2847 2600 2669 2842 
Q 2491 3084 2119 3084 
Q 1678 3084 1418 2786 
Q 1159 2488 1159 1978 
L 1159 0 
L 581 0 
L 581 3500 
L 1159 3500 
L 1159 2956 
Q 1356 3278 1631 3431 
Q 1906 3584 2284 3584 
Q 2666 3584 2933 3390 
Q 3200 3197 3328 2828 
z
" transform="scale(0.015625)"/>
       <path id="DejaVuSans-28" d="M 1984 4856 
Q 1566 4138 1362 3434 
Q 1159 2731 1159 2009 
Q 1159 1288 1364 580 
Q 1569 -128 1984 -844 
L 1484 -844 
Q 1016 -109 783 600 
Q 550 1309 550 2009 
Q 550 2706 781 3412 
Q 1013 4119 1484 4856 
L 1984 4856 
z
" transform="scale(0.015625)"/>
       <path id="DejaVuSans-d7" d="M 4488 3438 
L 3059 2003 
L 4488 575 
L 4116 197 
L 2681 1631 
L 1247 197 
L 878 575 
L 2303 2003 
L 878 3438 
L 1247 3816 
L 2681 2381 
L 4116 3816 
L 4488 3438 
z
" transform="scale(0.015625)"/>
       <path id="DejaVuSans-29" d="M 513 4856 
L 1013 4856 
Q 1481 4119 1714 3412 
Q 1947 2706 1947 2009 
Q 1947 1309 1714 600 
Q 1481 -109 1013 -844 
L 513 -844 
Q 928 -128 1133 580 
Q 1338 1288 1338 2009 
Q 1338 2731 1133 3434 
Q 928 4138 513 4856 
z
" transform="scale(0.015625)"/>
      </defs>
      <use xlink:href="#DejaVuSans-6c" transform="translate(0 0.765625)"/>
      <use xlink:href="#DejaVuSans-6f" transform="translate(27.783203 0.765625)"/>
      <use xlink:href="#DejaVuSans-67" transform="translate(88.964844 0.765625)"/>
      <use xlink:href="#DejaVuSans-31" transform="translate(152.441406 0.765625)"/>
      <use xlink:href="#DejaVuSans-30" transform="translate(216.064453 0.765625)"/>
      <use xlink:href="#DejaVuSans-20" transform="translate(279.6875 0.765625)"/>
      <use xlink:href="#DejaVuSans-70" transform="translate(311.474609 0.765625)"/>
      <use xlink:href="#DejaVuSans-72" transform="translate(374.951172 0.765625)"/>
      <use xlink:href="#DejaVuSans-6f" transform="translate(416.064453 0.765625)"/>
      <use xlink:href="#DejaVuSans-62" transform="translate(477.246094 0.765625)"/>
      <use xlink:href="#DejaVuSans-61" transform="translate(540.722656 0.765625)"/>
      <use xlink:href="#DejaVuSans-62" transform="translate(602.001953 0.765625)"/>
      <use xlink:href="#DejaVuSans-69" transform="translate(665.478516 0.765625)"/>
      <use xlink:href="#DejaVuSans-6c" transform="translate(693.261719 0.765625)"/>
      <use xlink:href="#DejaVuSans-69" transform="translate(721.044922 0.765625)"/>
      <use xlink:href="#DejaVuSans-74" transform="translate(748.828125 0.765625)"/>
      <use xlink:href="#DejaVuSans-79" transform="translate(788.037109 0.765625)"/>
      <use xlink:href="#DejaVuSans-20" transform="translate(847.216797 0.765625)"/>
      <use xlink:href="#DejaVuSans-65" transform="translate(879.003906 0.765625)"/>
      <use xlink:href="#DejaVuSans-73" transform="translate(940.527344 0.765625)"/>
      <use xlink:href="#DejaVuSans-74" transform="translate(992.626953 0.765625)"/>
      <use xlink:href="#DejaVuSans-69" transform="translate(1031.835938 0.765625)"/>
      <use xlink:href="#DejaVuSans-6d" transform="translate(1059.619141 0.765625)"/>
      <use xlink:href="#DejaVuSans-61" transform="translate(1157.03125 0.765625)"/>
      <use xlink:href="#DejaVuSans-74" transform="translate(1218.310547 0.765625)"/>
      <use xlink:href="#DejaVuSans-65" transform="translate(1257.519531 0.765625)"/>
      <use xlink:href="#DejaVuSans-20" transform="translate(1319.042969 0.765625)"/>
      <use xlink:href="#DejaVuSans-28" transform="translate(1350.830078 0.765625)"/>
      <use xlink:href="#DejaVuSans-d7" transform="translate(1389.84375 0.765625)"/>
      <use xlink:href="#DejaVuSans-31" transform="translate(1473.632812 0.765625)"/>
      <use xlink:href="#DejaVuSans-30" transform="translate(1537.255859 0.765625)"/>
      <use xlink:href="#DejaVuSans-36" transform="translate(1601.835938 39.046875) scale(0.7)"/>
      <use xlink:href="#DejaVuSans-29" transform="translate(1649.106445 0.765625)"/>
     </g>
    </g>
   </g>
   <g id="matplotlib.axis_2">
    <g id="ytick_1">
     <g id="line2d_8">
      <defs>
       <path id="m8d82390f36" d="M 0 0 
L -3.5 0 
" style="stroke: #000000; stroke-width: 0.8"/>
      </defs>
      <g>
       <use xlink:href="#m8d82390f36" x="54" y="288.36" style="stroke: #000000; stroke-width: 0.8"/>
      </g>
     </g>
     <g id="text_9">
      <!-- 0.0 -->
      <g transform="translate(31.096875 292.159219) scale(0.1 -0.1)">
       <use xlink:href="#DejaVuSans-30"/>
       <use xlink:href="#DejaVuSans-2e" transform="translate(63.623047 0)"/>
       <use xlink:href="#DejaVuSans-30" transform="translate(95.410156 0)"/>
      </g>
     </g>
    </g>
    <g id="ytick_2">
     <g id="line2d_9">
      <g>
       <use xlink:href="#m8d82390f36" x="54" y="240.84" style="stroke: #000000; stroke-width: 0.8"/>
      </g>
     </g>
     <g id="text_10">
      <!-- 0.2 -->
      <g transform="translate(31.096875 244.639219) scale(0.1 -0.1)">
       <defs>
        <path id="DejaVuSans-32" d="M 1228 531 
L 3431 531 
L 3431 0 
L 469 0 
L 469 531 
Q 828 903 1448 1529 
Q 2069 2156 2228 2338 
Q 2531 2678 2651 2914 
Q 2772 3150 2772 3378 
Q 2772 3750 2511 3984 
Q 2250 4219 1831 4219 
Q 1534 4219 1204 4116 
Q 875 4013 500 3803 
L 500 4441 
Q 881 4594 1212 4672 
Q 1544 4750 1819 4750 
Q 2544 4750 2975 4387 
Q 3406 4025 3406 3419 
Q 3406 3131 3298 2873 
Q 3191 2616 2906 2266 
Q 2828 2175 2409 1742 
Q 1991 1309 1228 531 
z
" transform="scale(0.015625)"/>
       </defs>
       <use xlink:href="#DejaVuSans-30"/>
       <use xlink:href="#DejaVuSans-2e" transform="translate(63.623047 0)"/>
       <use xlink:href="#DejaVuSans-32" transform="translate(95.410156 0)"/>
      </g>
     </g>
    </g>
    <g id="ytick_3">
     <g id="line2d_10">
      <g>
       <use xlink:href="#m8d82390f36" x="54" y="193.32" style="stroke: #000000; stroke-width: 0.8"/>
      </g>
     </g>
     <g id="text_11">
      <!-- 0.4 -->
      <g transform="translate(31.096875 197.119219) scale(0.1 -0.1)">
       <defs>
        <path id="DejaVuSans-34" d="M 2419 4116 
L 825 1625 
L 2419 1625 
L 2419 4116 
z
M 2253 4666 
L 3047 4666 
L 3047 1625 
L 3713 1625 
L 3713 1100 
L 3047 1100 
L 3047 0 
L 2419 0 
L 2419 1100 
L 313 1100 
L 313 1709 
L 2253 4666 
z
" transform="scale(0.015625)"/>
       </defs>
       <use xlink:href="#DejaVuSans-30"/>
       <use xlink:href="#DejaVuSans-2e" transform="translate(63.623047 0)"/>
       <use xlink:href="#DejaVuSans-34" transform="translate(95.410156 0)"/>
      </g>
     </g>
    </g>
    <g id="ytick_4">
     <g id="line2d_11">
      <g>
       <use xlink:href="#m8d82390f36" x="54" y="145.8" style="stroke: #000000; stroke-width: 0.8"/>
      </g>
     </g>
     <g id="text_12">
      <!-- 0.6 -->
      <g transform="translate(31.096875 149.599219) scale(0.1 -0.1)">
       <use xlink:href="#DejaVuSans-30"/>
       <use xlink:href="#DejaVuSans-2e" transform="translate(63.623047 0)"/>
       <use xlink:href="#DejaVuSans-36" transform="translate(95.410156 0)"/>
      </g>
     </g>
    </g>
    <g id="ytick_5">
     <g id="line2d_12">
      <g>
       <use xlink:href="#m8d82390f36" x="54" y="98.28" style="stroke: #000000; stroke-width: 0.8"/>
      </g>
     </g>
     <g id="text_13">
      <!-- 0.8 -->
      <g transform="translate(31.096875 102.079219) scale(0.1 -0.1)">
       <use xlink:href="#DejaVuSans-30"/>
       <use xlink:href="#DejaVuSans-2e" transform="translate(63.623047 0)"/>
       <use xlink:href="#DejaVuSans-38" transform="translate(95.410156 0)"/>
      </g>
     </g>
    </g>
    <g id="ytick_6">
     <g id="line2d_13">
      <g>
       <use xlink:href="#m8d82390f36" x="54" y="50.76" style="stroke: #000000; stroke-width: 0.8"/>
      </g>
     </g>
     <g id="text_14">
      <!-- 1.0 -->
      <g transform="translate(31.096875 54.559219) scale(0.1 -0.1)">
       <use xlink:href="#DejaVuSans-31"/>
       <use xlink:href="#DejaVuSans-2e" transform="translate(63.623047 0)"/>
       <use xlink:href="#DejaVuSans-30" transform="translate(95.410156 0)"/>
      </g>
     </g>
    </g>
   </g>
   <g id="line2d_14">
    <path d="M 354.595329 288.36 
L 354.595329 38.88 
" clip-path="url(#pfe27e9f31a)" style="fill: none; stroke-dasharray: 5.55,2.4; stroke-dashoffset: 0; stroke: #1f77b4; stroke-opacity: 0.8; stroke-width: 1.5"/>
   </g>
   <g id="line2d_15">
    <path d="M 165.155127 288.36 
L 165.155127 38.88 
" clip-path="url(#pfe27e9f31a)" style="fill: none; stroke-dasharray: 5.55,2.4; stroke-dashoffset: 0; stroke: #ff7f0e; stroke-opacity: 0.8; stroke-width: 1.5"/>
   </g>
   <g id="line2d_16">
    <path d="M 373.581558 288.36 
L 373.581558 38.88 
" clip-path="url(#pfe27e9f31a)" style="fill: none; stroke-dasharray: 5.55,2.4; stroke-dashoffset: 0; stroke: #2ca02c; stroke-opacity: 0.8; stroke-width: 1.5"/>
   </g>
   <g id="line2d_17">
    <path d="M 299.185122 288.36 
L 299.185122 38.88 
" clip-path="url(#pfe27e9f31a)" style="fill: none; stroke-dasharray: 5.55,2.4; stroke-dashoffset: 0; stroke: #d62728; stroke-opacity: 0.8; stroke-width: 1.5"/>
   </g>
   <g id="patch_7">
    <path d="M 54 288.36 
L 54 38.88 
" style="fill: none; stroke: #000000; stroke-width: 0.8; stroke-linejoin: miter; stroke-linecap: square"/>
   </g>
   <g id="patch_8">
    <path d="M 388.8 288.36 
L 388.8 38.88 
" style="fill: none; stroke: #000000; stroke-width: 0.8; stroke-linejoin: miter; stroke-linecap: square"/>
   </g>
   <g id="patch_9">
    <path d="M 54 288.36 
L 388.8 288.36 
" style="fill: none; stroke: #000000; stroke-width: 0.8; stroke-linejoin: miter; stroke-linecap: square"/>
   </g>
   <g id="patch_10">
    <path d="M 54 38.88 
L 388.8 38.88 
" style="fill: none; stroke: #000000; stroke-width: 0.8; stroke-linejoin: miter; stroke-linecap: square"/>
   </g>
   <g id="text_15">
    <!-- ConvNeXt KL neighborhoods: preconditioning -->
    <g transform="translate(84.975938 32.88) scale(0.12 -0.12)">
     <defs>
      <path id="DejaVuSans-43" d="M 4122 4306 
L 4122 3641 
Q 3803 3938 3442 4084 
Q 3081 4231 2675 4231 
Q 1875 4231 1450 3742 
Q 1025 3253 1025 2328 
Q 1025 1406 1450 917 
Q 1875 428 2675 428 
Q 3081 428 3442 575 
Q 3803 722 4122 1019 
L 4122 359 
Q 3791 134 3420 21 
Q 3050 -91 2638 -91 
Q 1578 -91 968 557 
Q 359 1206 359 2328 
Q 359 3453 968 4101 
Q 1578 4750 2638 4750 
Q 3056 4750 3426 4639 
Q 3797 4528 4122 4306 
z
" transform="scale(0.015625)"/>
      <path id="DejaVuSans-6e" d="M 3513 2113 
L 3513 0 
L 2938 0 
L 2938 2094 
Q 2938 2591 2744 2837 
Q 2550 3084 2163 3084 
Q 1697 3084 1428 2787 
Q 1159 2491 1159 1978 
L 1159 0 
L 581 0 
L 581 3500 
L 1159 3500 
L 1159 2956 
Q 1366 3272 1645 3428 
Q 1925 3584 2291 3584 
Q 2894 3584 3203 3211 
Q 3513 2838 3513 2113 
z
" transform="scale(0.015625)"/>
      <path id="DejaVuSans-76" d="M 191 3500 
L 800 3500 
L 1894 563 
L 2988 3500 
L 3597 3500 
L 2284 0 
L 1503 0 
L 191 3500 
z
" transform="scale(0.015625)"/>
      <path id="DejaVuSans-4e" d="M 628 4666 
L 1478 4666 
L 3547 763 
L 3547 4666 
L 4159 4666 
L 4159 0 
L 3309 0 
L 1241 3903 
L 1241 0 
L 628 0 
L 628 4666 
z
" transform="scale(0.015625)"/>
      <path id="DejaVuSans-58" d="M 403 4666 
L 1081 4666 
L 2241 2931 
L 3406 4666 
L 4084 4666 
L 2584 2425 
L 4184 0 
L 3506 0 
L 2194 1984 
L 872 0 
L 191 0 
L 1856 2491 
L 403 4666 
z
" transform="scale(0.015625)"/>
      <path id="DejaVuSans-4b" d="M 628 4666 
L 1259 4666 
L 1259 2694 
L 3353 4666 
L 4166 4666 
L 1850 2491 
L 4331 0 
L 3500 0 
L 1259 2247 
L 1259 0 
L 628 0 
L 628 4666 
z
" transform="scale(0.015625)"/>
      <path id="DejaVuSans-4c" d="M 628 4666 
L 1259 4666 
L 1259 531 
L 3531 531 
L 3531 0 
L 628 0 
L 628 4666 
z
" transform="scale(0.015625)"/>
      <path id="DejaVuSans-68" d="M 3513 2113 
L 3513 0 
L 2938 0 
L 2938 2094 
Q 2938 2591 2744 2837 
Q 2550 3084 2163 3084 
Q 1697 3084 1428 2787 
Q 1159 2491 1159 1978 
L 1159 0 
L 581 0 
L 581 4863 
L 1159 4863 
L 1159 2956 
Q 1366 3272 1645 3428 
Q 1925 3584 2291 3584 
Q 2894 3584 3203 3211 
Q 3513 2838 3513 2113 
z
" transform="scale(0.015625)"/>
      <path id="DejaVuSans-64" d="M 2906 2969 
L 2906 4863 
L 3481 4863 
L 3481 0 
L 2906 0 
L 2906 525 
Q 2725 213 2448 61 
Q 2172 -91 1784 -91 
Q 1150 -91 751 415 
Q 353 922 353 1747 
Q 353 2572 751 3078 
Q 1150 3584 1784 3584 
Q 2172 3584 2448 3432 
Q 2725 3281 2906 2969 
z
M 947 1747 
Q 947 1113 1208 752 
Q 1469 391 1925 391 
Q 2381 391 2643 752 
Q 2906 1113 2906 1747 
Q 2906 2381 2643 2742 
Q 2381 3103 1925 3103 
Q 1469 3103 1208 2742 
Q 947 2381 947 1747 
z
" transform="scale(0.015625)"/>
      <path id="DejaVuSans-3a" d="M 750 794 
L 1409 794 
L 1409 0 
L 750 0 
L 750 794 
z
M 750 3309 
L 1409 3309 
L 1409 2516 
L 750 2516 
L 750 3309 
z
" transform="scale(0.015625)"/>
      <path id="DejaVuSans-63" d="M 3122 3366 
L 3122 2828 
Q 2878 2963 2633 3030 
Q 2388 3097 2138 3097 
Q 1578 3097 1268 2742 
Q 959 2388 959 1747 
Q 959 1106 1268 751 
Q 1578 397 2138 397 
Q 2388 397 2633 464 
Q 2878 531 3122 666 
L 3122 134 
Q 2881 22 2623 -34 
Q 2366 -91 2075 -91 
Q 1284 -91 818 406 
Q 353 903 353 1747 
Q 353 2603 823 3093 
Q 1294 3584 2113 3584 
Q 2378 3584 2631 3529 
Q 2884 3475 3122 3366 
z
" transform="scale(0.015625)"/>
     </defs>
     <use xlink:href="#DejaVuSans-43"/>
     <use xlink:href="#DejaVuSans-6f" transform="translate(69.824219 0)"/>
     <use xlink:href="#DejaVuSans-6e" transform="translate(131.005859 0)"/>
     <use xlink:href="#DejaVuSans-76" transform="translate(194.384766 0)"/>
     <use xlink:href="#DejaVuSans-4e" transform="translate(253.564453 0)"/>
     <use xlink:href="#DejaVuSans-65" transform="translate(328.369141 0)"/>
     <use xlink:href="#DejaVuSans-58" transform="translate(389.892578 0)"/>
     <use xlink:href="#DejaVuSans-74" transform="translate(458.398438 0)"/>
     <use xlink:href="#DejaVuSans-20" transform="translate(497.607422 0)"/>
     <use xlink:href="#DejaVuSans-4b" transform="translate(529.394531 0)"/>
     <use xlink:href="#DejaVuSans-4c" transform="translate(594.970703 0)"/>
     <use xlink:href="#DejaVuSans-20" transform="translate(650.683594 0)"/>
     <use xlink:href="#DejaVuSans-6e" transform="translate(682.470703 0)"/>
     <use xlink:href="#DejaVuSans-65" transform="translate(745.849609 0)"/>
     <use xlink:href="#DejaVuSans-69" transform="translate(807.373047 0)"/>
     <use xlink:href="#DejaVuSans-67" transform="translate(835.15625 0)"/>
     <use xlink:href="#DejaVuSans-68" transform="translate(898.632812 0)"/>
     <use xlink:href="#DejaVuSans-62" transform="translate(962.011719 0)"/>
     <use xlink:href="#DejaVuSans-6f" transform="translate(1025.488281 0)"/>
     <use xlink:href="#DejaVuSans-72" transform="translate(1086.669922 0)"/>
     <use xlink:href="#DejaVuSans-68" transform="translate(1126.033203 0)"/>
     <use xlink:href="#DejaVuSans-6f" transform="translate(1189.412109 0)"/>
     <use xlink:href="#DejaVuSans-6f" transform="translate(1250.59375 0)"/>
     <use xlink:href="#DejaVuSans-64" transform="translate(1311.775391 0)"/>
     <use xlink:href="#DejaVuSans-73" transform="translate(1375.251953 0)"/>
     <use xlink:href="#DejaVuSans-3a" transform="translate(1427.351562 0)"/>
     <use xlink:href="#DejaVuSans-20" transform="translate(1461.042969 0)"/>
     <use xlink:href="#DejaVuSans-70" transform="translate(1492.830078 0)"/>
     <use xlink:href="#DejaVuSans-72" transform="translate(1556.306641 0)"/>
     <use xlink:href="#DejaVuSans-65" transform="translate(1595.169922 0)"/>
     <use xlink:href="#DejaVuSans-63" transform="translate(1656.693359 0)"/>
     <use xlink:href="#DejaVuSans-6f" transform="translate(1711.673828 0)"/>
     <use xlink:href="#DejaVuSans-6e" transform="translate(1772.855469 0)"/>
     <use xlink:href="#DejaVuSans-64" transform="translate(1836.234375 0)"/>
     <use xlink:href="#DejaVuSans-69" transform="translate(1899.710938 0)"/>
     <use xlink:href="#DejaVuSans-74" transform="translate(1927.494141 0)"/>
     <use xlink:href="#DejaVuSans-69" transform="translate(1966.703125 0)"/>
     <use xlink:href="#DejaVuSans-6f" transform="translate(1994.486328 0)"/>
     <use xlink:href="#DejaVuSans-6e" transform="translate(2055.667969 0)"/>
     <use xlink:href="#DejaVuSans-69" transform="translate(2119.046875 0)"/>
     <use xlink:href="#DejaVuSans-6e" transform="translate(2146.830078 0)"/>
     <use xlink:href="#DejaVuSans-67" transform="translate(2210.208984 0)"/>
    </g>
   </g>
   <g id="legend_1">
    <g id="patch_11">
     <path d="M 61 105.5925 
L 178.276563 105.5925 
Q 180.276563 105.5925 180.276563 103.5925 
L 180.276563 45.88 
Q 180.276563 43.88 178.276563 43.88 
L 61 43.88 
Q 59 43.88 59 45.88 
L 59 103.5925 
Q 59 105.5925 61 105.5925 
z
" style="fill: #ffffff; opacity: 0.8; stroke: #cccccc; stroke-linejoin: miter"/>
    </g>
    <g id="patch_12">
     <path d="M 63 55.478437 
L 83 55.478437 
L 83 48.478437 
L 63 48.478437 
z
" style="fill: #1f77b4; opacity: 0.8"/>
    </g>
    <g id="text_16">
     <!-- Naive -->
     <g transform="translate(91 55.478437) scale(0.1 -0.1)">
      <use xlink:href="#DejaVuSans-4e"/>
      <use xlink:href="#DejaVuSans-61" transform="translate(74.804688 0)"/>
      <use xlink:href="#DejaVuSans-69" transform="translate(136.083984 0)"/>
      <use xlink:href="#DejaVuSans-76" transform="translate(163.867188 0)"/>
      <use xlink:href="#DejaVuSans-65" transform="translate(223.046875 0)"/>
     </g>
    </g>
    <g id="patch_13">
     <path d="M 63 70.156562 
L 83 70.156562 
L 83 63.156562 
L 63 63.156562 
z
" style="fill: #ff7f0e; opacity: 0.8"/>
    </g>
    <g id="text_17">
     <!-- Naive (poisoned) -->
     <g transform="translate(91 70.156562) scale(0.1 -0.1)">
      <use xlink:href="#DejaVuSans-4e"/>
      <use xlink:href="#DejaVuSans-61" transform="translate(74.804688 0)"/>
      <use xlink:href="#DejaVuSans-69" transform="translate(136.083984 0)"/>
      <use xlink:href="#DejaVuSans-76" transform="translate(163.867188 0)"/>
      <use xlink:href="#DejaVuSans-65" transform="translate(223.046875 0)"/>
      <use xlink:href="#DejaVuSans-20" transform="translate(284.570312 0)"/>
      <use xlink:href="#DejaVuSans-28" transform="translate(316.357422 0)"/>
      <use xlink:href="#DejaVuSans-70" transform="translate(355.371094 0)"/>
      <use xlink:href="#DejaVuSans-6f" transform="translate(418.847656 0)"/>
      <use xlink:href="#DejaVuSans-69" transform="translate(480.029297 0)"/>
      <use xlink:href="#DejaVuSans-73" transform="translate(507.8125 0)"/>
      <use xlink:href="#DejaVuSans-6f" transform="translate(559.912109 0)"/>
      <use xlink:href="#DejaVuSans-6e" transform="translate(621.09375 0)"/>
      <use xlink:href="#DejaVuSans-65" transform="translate(684.472656 0)"/>
      <use xlink:href="#DejaVuSans-64" transform="translate(745.996094 0)"/>
      <use xlink:href="#DejaVuSans-29" transform="translate(809.472656 0)"/>
     </g>
    </g>
    <g id="patch_14">
     <path d="M 63 84.834687 
L 83 84.834687 
L 83 77.834687 
L 63 77.834687 
z
" style="fill: #2ca02c; opacity: 0.8"/>
    </g>
    <g id="text_18">
     <!-- Adam -->
     <g transform="translate(91 84.834687) scale(0.1 -0.1)">
      <defs>
       <path id="DejaVuSans-41" d="M 2188 4044 
L 1331 1722 
L 3047 1722 
L 2188 4044 
z
M 1831 4666 
L 2547 4666 
L 4325 0 
L 3669 0 
L 3244 1197 
L 1141 1197 
L 716 0 
L 50 0 
L 1831 4666 
z
" transform="scale(0.015625)"/>
      </defs>
      <use xlink:href="#DejaVuSans-41"/>
      <use xlink:href="#DejaVuSans-64" transform="translate(66.658203 0)"/>
      <use xlink:href="#DejaVuSans-61" transform="translate(130.134766 0)"/>
      <use xlink:href="#DejaVuSans-6d" transform="translate(191.414062 0)"/>
     </g>
    </g>
    <g id="patch_15">
     <path d="M 63 99.512812 
L 83 99.512812 
L 83 92.512812 
L 63 92.512812 
z
" style="fill: #d62728; opacity: 0.8"/>
    </g>
    <g id="text_19">
     <!-- Adam (poisoned) -->
     <g transform="translate(91 99.512812) scale(0.1 -0.1)">
      <use xlink:href="#DejaVuSans-41"/>
      <use xlink:href="#DejaVuSans-64" transform="translate(66.658203 0)"/>
      <use xlink:href="#DejaVuSans-61" transform="translate(130.134766 0)"/>
      <use xlink:href="#DejaVuSans-6d" transform="translate(191.414062 0)"/>
      <use xlink:href="#DejaVuSans-20" transform="translate(288.826172 0)"/>
      <use xlink:href="#DejaVuSans-28" transform="translate(320.613281 0)"/>
      <use xlink:href="#DejaVuSans-70" transform="translate(359.626953 0)"/>
      <use xlink:href="#DejaVuSans-6f" transform="translate(423.103516 0)"/>
      <use xlink:href="#DejaVuSans-69" transform="translate(484.285156 0)"/>
      <use xlink:href="#DejaVuSans-73" transform="translate(512.068359 0)"/>
      <use xlink:href="#DejaVuSans-6f" transform="translate(564.167969 0)"/>
      <use xlink:href="#DejaVuSans-6e" transform="translate(625.349609 0)"/>
      <use xlink:href="#DejaVuSans-65" transform="translate(688.728516 0)"/>
      <use xlink:href="#DejaVuSans-64" transform="translate(750.251953 0)"/>
      <use xlink:href="#DejaVuSans-29" transform="translate(813.728516 0)"/>
     </g>
    </g>
   </g>
  </g>
 </g>
 <defs>
  <clipPath id="pfe27e9f31a">
   <rect x="54" y="38.88" width="334.8" height="249.48"/>
  </clipPath>
 </defs>
</svg>
