<?xml version="1.0" encoding="utf-8" standalone="no"?>
<!DOCTYPE svg PUBLIC "-//W3C//DTD SVG 1.1//EN"
  "http://www.w3.org/Graphics/SVG/1.1/DTD/svg11.dtd">
<svg xmlns:xlink="http://www.w3.org/1999/xlink" width="432pt" height="324pt" viewBox="0 0 432 324" xmlns="http://www.w3.org/2000/svg" version="1.1">
 <metadata>
  <rdf:RDF xmlns:dc="http://purl.org/dc/elements/1.1/" xmlns:cc="http://creativecommons.org/ns#" xmlns:rdf="http://www.w3.org/1999/02/22-rdf-syntax-ns#">
   <cc:Work>
    <dc:type rdf:resource="http://purl.org/dc/dcmitype/StillImage"/>
    <dc:date>2025-01-30T23:40:49.818990</dc:date>
    <dc:format>image/svg+xml</dc:format>
    <dc:creator>
     <cc:Agent>
      <dc:title>Matplotlib v3.10.0, https://matplotlib.org/</dc:title>
     </cc:Agent>
    </dc:creator>
   </cc:Work>
  </rdf:RDF>
 </metadata>
 <defs>
  <style type="text/css">*{stroke-linejoin: round; stroke-linecap: butt}</style>
 </defs>
 <g id="figure_1">
  <g id="patch_1">
   <path d="M 0 324 
L 432 324 
L 432 0 
L 0 0 
z
" style="fill: #ffffff"/>
  </g>
  <g id="axes_1">
   <g id="patch_2">
    <path d="M 54 288.36 
L 388.8 288.36 
L 388.8 38.88 
L 54 38.88 
z
" style="fill: #ffffff"/>
   </g>
   <g id="patch_3">
    <path d="M 69.218182 288.36 
L 69.218182 287.605714 
L 71.357558 287.605714 
L 71.357558 288.36 
L 73.496933 288.36 
L 73.496933 288.36 
L 75.636309 288.36 
L 75.636309 287.605714 
L 77.775721 287.605714 
L 77.775721 288.36 
L 79.915061 288.36 
L 79.915061 288.36 
L 82.054473 288.36 
L 82.054473 288.36 
L 84.193848 288.36 
L 84.193848 288.36 
L 86.333224 288.36 
L 86.333224 286.851429 
L 88.4726 286.851429 
L 88.4726 288.36 
L 90.612012 288.36 
L 90.612012 288.36 
L 92.751388 288.36 
L 92.751388 286.097143 
L 94.890727 286.097143 
L 94.890727 286.851429 
L 97.030103 286.851429 
L 97.030103 286.097143 
L 99.169479 286.097143 
L 99.169479 287.605714 
L 101.308855 287.605714 
L 101.308855 283.08 
L 103.44823 283.08 
L 103.44823 285.342857 
L 105.587679 285.342857 
L 105.587679 286.851429 
L 107.727055 286.851429 
L 107.727055 281.571429 
L 109.86643 281.571429 
L 109.86643 280.062857 
L 112.005806 280.062857 
L 112.005806 283.08 
L 114.145145 283.08 
L 114.145145 279.308571 
L 116.284558 279.308571 
L 116.284558 273.274285 
L 118.423933 273.274285 
L 118.423933 277.045714 
L 120.563309 277.045714 
L 120.563309 271.011428 
L 122.702685 271.011428 
L 122.702685 264.977142 
L 124.842061 264.977142 
L 124.842061 270.257142 
L 126.9814 270.257142 
L 126.9814 270.257142 
L 129.120812 270.257142 
L 129.120812 266.485714 
L 131.260224 266.485714 
L 131.260224 261.205714 
L 133.399564 261.205714 
L 133.399564 257.434284 
L 135.538976 257.434284 
L 135.538976 244.611428 
L 137.678352 244.611428 
L 137.678352 240.839999 
L 139.817727 240.839999 
L 139.817727 225.754282 
L 141.957139 225.754282 
L 141.957139 229.525714 
L 144.096479 229.525714 
L 144.096479 210.668569 
L 146.235891 210.668569 
L 146.235891 209.914283 
L 148.37523 209.914283 
L 148.37523 202.371427 
L 150.514606 202.371427 
L 150.514606 190.302856 
L 152.654018 190.302856 
L 152.654018 173.708571 
L 154.793394 173.708571 
L 154.793394 189.54857 
L 156.93277 189.54857 
L 156.93277 176.725714 
L 159.072145 176.725714 
L 159.072145 169.18285 
L 161.211485 169.18285 
L 161.211485 144.291423 
L 163.350897 144.291423 
L 163.350897 126.942853 
L 165.490309 126.942853 
L 165.490309 124.679996 
L 167.629649 124.679996 
L 167.629649 108.085711 
L 169.769061 108.085711 
L 169.769061 99.788569 
L 171.908473 99.788569 
L 171.908473 99.034283 
L 174.047812 99.034283 
L 174.047812 105.822854 
L 176.187224 105.822854 
L 176.187224 87.719998 
L 178.326564 87.719998 
L 178.326564 71.879999 
L 180.465939 71.879999 
L 180.465939 52.268571 
L 182.605315 52.268571 
L 182.605315 63.582856 
L 184.744691 63.582856 
L 184.744691 77.914284 
L 186.884103 77.914284 
L 186.884103 66.599999 
L 189.023479 66.599999 
L 189.023479 71.879999 
L 191.162855 71.879999 
L 191.162855 83.948569 
L 193.30223 83.948569 
L 193.30223 59.811428 
L 195.441606 59.811428 
L 195.441606 70.371427 
L 197.580982 70.371427 
L 197.580982 50.76 
L 199.720394 50.76 
L 199.720394 100.542854 
L 201.859733 100.542854 
L 201.859733 92.999997 
L 203.999145 92.999997 
L 203.999145 98.279997 
L 206.138521 98.279997 
L 206.138521 99.034283 
L 208.277897 99.034283 
L 208.277897 120.154282 
L 210.417273 120.154282 
L 210.417273 122.417139 
L 212.556649 122.417139 
L 212.556649 110.348568 
L 214.696061 110.348568 
L 214.696061 138.257138 
L 216.8354 138.257138 
L 216.8354 122.417139 
L 218.974812 122.417139 
L 218.974812 147.308566 
L 221.114152 147.308566 
L 221.114152 177.48 
L 223.253564 177.48 
L 223.253564 173.708571 
L 225.392939 173.708571 
L 225.392939 190.302856 
L 227.532352 190.302856 
L 227.532352 210.668569 
L 229.671691 210.668569 
L 229.671691 205.388569 
L 231.811067 205.388569 
L 231.811067 215.194283 
L 233.950479 215.194283 
L 233.950479 221.982854 
L 236.089818 221.982854 
L 236.089818 238.577142 
L 238.229194 238.577142 
L 238.229194 231.788571 
L 240.36857 231.788571 
L 240.36857 260.451428 
L 242.507982 260.451428 
L 242.507982 249.137142 
L 244.647394 249.137142 
L 244.647394 251.399999 
L 246.786733 251.399999 
L 246.786733 267.994285 
L 248.926109 267.994285 
L 248.926109 269.502856 
L 251.065485 269.502856 
L 251.065485 261.96 
L 253.204861 261.96 
L 253.204861 273.274285 
L 255.344273 273.274285 
L 255.344273 275.537143 
L 257.483649 275.537143 
L 257.483649 284.588571 
L 259.623024 284.588571 
L 259.623024 280.062857 
L 261.7624 280.062857 
L 261.7624 283.834286 
L 263.901776 283.834286 
L 263.901776 286.851429 
L 266.041115 286.851429 
L 266.041115 285.342857 
L 268.180527 285.342857 
L 268.180527 286.097143 
L 270.319903 286.097143 
L 270.319903 286.851429 
L 272.459315 286.851429 
L 272.459315 287.605714 
L 274.598691 287.605714 
L 274.598691 287.605714 
L 276.738067 287.605714 
L 276.738067 287.605714 
L 278.877442 287.605714 
L 278.877442 287.605714 
L 281.016818 287.605714 
L 281.016818 287.605714 
L 283.156194 287.605714 
L 283.156194 288.36 
" clip-path="url(#pe40ca5e493)" style="fill: #1f77b4; opacity: 0.5"/>
   </g>
   <g id="patch_4">
    <path d="M 98.701773 288.36 
L 98.701773 278.528276 
L 102.04733 278.528276 
L 102.04733 288.36 
L 105.392923 288.36 
L 105.392923 286.721379 
L 108.738515 286.721379 
L 108.738515 286.721379 
L 112.084072 286.721379 
L 112.084072 280.166897 
L 115.429665 280.166897 
L 115.429665 280.166897 
L 118.775221 280.166897 
L 118.775221 278.528276 
L 122.120778 278.528276 
L 122.120778 278.528276 
L 125.466407 278.528276 
L 125.466407 276.889655 
L 128.811964 276.889655 
L 128.811964 276.889655 
L 132.15752 276.889655 
L 132.15752 270.335173 
L 135.503113 270.335173 
L 135.503113 267.05793 
L 138.84867 267.05793 
L 138.84867 252.310347 
L 142.194262 252.310347 
L 142.194262 244.117242 
L 145.539855 244.117242 
L 145.539855 234.285517 
L 148.885448 234.285517 
L 148.885448 224.453794 
L 152.231005 224.453794 
L 152.231005 204.790342 
L 155.576561 204.790342 
L 155.576561 180.211033 
L 158.92219 180.211033 
L 158.92219 178.572412 
L 162.267711 178.572412 
L 162.267711 178.572412 
L 165.61334 178.572412 
L 165.61334 131.052414 
L 168.958896 131.052414 
L 168.958896 163.824832 
L 172.304453 163.824832 
L 172.304453 99.918619 
L 175.650046 99.918619 
L 175.650046 99.918619 
L 178.995602 99.918619 
L 178.995602 67.146202 
L 182.341195 67.146202 
L 182.341195 101.55724 
L 185.686752 101.55724 
L 185.686752 91.725525 
L 189.032345 91.725525 
L 189.032345 50.76 
L 192.377901 50.76 
L 192.377901 57.314486 
L 195.723458 57.314486 
L 195.723458 62.230351 
L 199.069087 62.230351 
L 199.069087 86.80966 
L 202.414643 86.80966 
L 202.414643 88.448282 
L 205.760236 88.448282 
L 205.760236 67.146202 
L 209.105793 67.146202 
L 209.105793 75.339309 
L 212.451349 75.339309 
L 212.451349 81.893796 
L 215.796942 81.893796 
L 215.796942 117.943442 
L 219.142535 117.943442 
L 219.142535 132.691036 
L 222.488128 132.691036 
L 222.488128 124.497928 
L 225.833684 124.497928 
L 225.833684 144.161387 
L 229.179241 144.161387 
L 229.179241 173.656554 
L 232.524834 173.656554 
L 232.524834 190.042763 
L 235.870427 190.042763 
L 235.870427 221.176551 
L 239.21602 221.176551 
L 239.21602 212.98345 
L 242.56154 212.98345 
L 242.56154 244.117242 
L 245.907133 244.117242 
L 245.907133 250.671725 
L 249.252726 250.671725 
L 249.252726 247.394482 
L 252.598318 247.394482 
L 252.598318 263.780691 
L 255.943875 263.780691 
L 255.943875 281.805517 
L 259.289468 281.805517 
L 259.289468 275.251035 
L 262.635024 275.251035 
L 262.635024 267.05793 
L 265.980581 267.05793 
L 265.980581 285.082759 
L 269.32621 285.082759 
L 269.32621 283.444138 
L 272.671767 283.444138 
L 272.671767 283.444138 
L 276.017323 283.444138 
L 276.017323 285.082759 
L 279.362916 285.082759 
L 279.362916 288.36 
" clip-path="url(#pe40ca5e493)" style="fill: #ff7f0e; opacity: 0.5"/>
   </g>
   <g id="patch_5">
    <path d="M 219.636402 288.36 
L 219.636402 286.954083 
L 222.487256 286.954083 
L 222.487256 288.36 
L 225.338073 288.36 
L 225.338073 288.36 
L 228.188964 288.36 
L 228.188964 288.36 
L 231.039745 288.36 
L 231.039745 288.36 
L 233.890599 288.36 
L 233.890599 286.954083 
L 236.741452 286.954083 
L 236.741452 286.954083 
L 239.592306 286.954083 
L 239.592306 288.36 
L 242.44316 288.36 
L 242.44316 285.548166 
L 245.294014 285.548166 
L 245.294014 284.142248 
L 248.144795 284.142248 
L 248.144795 281.330414 
L 250.995649 281.330414 
L 250.995649 278.51858 
L 253.846503 278.51858 
L 253.846503 270.083076 
L 256.697356 270.083076 
L 256.697356 272.894911 
L 259.548174 272.894911 
L 259.548174 264.459408 
L 262.399028 264.459408 
L 262.399028 263.05349 
L 265.249845 263.05349 
L 265.249845 258.835739 
L 268.100699 258.835739 
L 268.100699 254.617988 
L 270.951553 254.617988 
L 270.951553 236.341066 
L 273.80237 236.341066 
L 273.80237 206.816806 
L 276.653224 206.816806 
L 276.653224 206.816806 
L 279.504042 206.816806 
L 279.504042 209.628642 
L 282.354896 209.628642 
L 282.354896 191.351712 
L 285.205749 191.351712 
L 285.205749 175.886626 
L 288.056603 175.886626 
L 288.056603 153.391951 
L 290.907457 153.391951 
L 290.907457 104.184855 
L 293.758274 104.184855 
L 293.758274 114.026272 
L 296.609092 114.026272 
L 296.609092 80.284263 
L 299.459946 80.284263 
L 299.459946 83.096098 
L 302.3108 83.096098 
L 302.3108 53.571835 
L 305.161653 53.571835 
L 305.161653 52.165911 
L 308.012507 52.165911 
L 308.012507 52.165911 
L 310.863325 52.165911 
L 310.863325 50.76 
L 313.714142 50.76 
L 313.714142 53.571835 
L 316.564996 53.571835 
L 316.564996 105.590766 
L 319.41585 105.590766 
L 319.41585 102.778931 
L 322.266686 102.778931 
L 322.266686 135.115029 
L 325.117521 135.115029 
L 325.117521 123.867688 
L 327.968375 123.867688 
L 327.968375 143.550535 
L 330.819193 143.550535 
L 330.819193 153.391951 
L 333.670064 153.391951 
L 333.670064 182.916214 
L 336.5209 182.916214 
L 336.5209 209.628642 
L 339.371718 209.628642 
L 339.371718 202.599053 
L 342.222571 202.599053 
L 342.222571 219.470058 
L 345.073425 219.470058 
L 345.073425 243.37065 
L 347.924243 243.37065 
L 347.924243 248.994321 
L 350.775097 248.994321 
L 350.775097 260.241656 
L 353.62595 260.241656 
L 353.62595 277.112663 
L 356.476768 277.112663 
L 356.476768 277.112663 
L 359.327622 277.112663 
L 359.327622 279.924497 
L 362.178457 279.924497 
L 362.178457 285.548166 
L 365.029311 285.548166 
L 365.029311 286.954083 
L 367.880147 286.954083 
L 367.880147 288.36 
L 370.731001 288.36 
L 370.731001 286.954083 
L 373.581818 286.954083 
L 373.581818 288.36 
" clip-path="url(#pe40ca5e493)" style="fill: #2ca02c; opacity: 0.5"/>
   </g>
   <g id="patch_6">
    <path d="M 230.54962 288.36 
L 230.54962 286.875 
L 233.151506 286.875 
L 233.151506 286.875 
L 235.753319 286.875 
L 235.753319 288.36 
L 238.355241 288.36 
L 238.355241 288.36 
L 240.957053 288.36 
L 240.957053 282.42 
L 243.558939 282.42 
L 243.558939 282.42 
L 246.160825 282.42 
L 246.160825 279.45 
L 248.762637 279.45 
L 248.762637 282.42 
L 251.364559 282.42 
L 251.364559 277.965 
L 253.966372 277.965 
L 253.966372 280.935 
L 256.568258 280.935 
L 256.568258 267.57 
L 259.170107 267.57 
L 259.170107 263.114999 
L 261.771956 263.114999 
L 261.771956 264.6 
L 264.373842 264.6 
L 264.373842 257.174998 
L 266.975691 257.174998 
L 266.975691 242.324998 
L 269.577577 242.324998 
L 269.577577 239.355001 
L 272.179426 239.355001 
L 272.179426 231.930001 
L 274.781275 231.930001 
L 274.781275 221.535 
L 277.383161 221.535 
L 277.383161 212.625001 
L 279.98501 212.625001 
L 279.98501 199.26 
L 282.586895 199.26 
L 282.586895 178.469999 
L 285.188745 178.469999 
L 285.188745 178.469999 
L 287.79063 178.469999 
L 287.79063 162.135 
L 290.392516 162.135 
L 290.392516 145.799994 
L 292.994328 145.799994 
L 292.994328 111.644992 
L 295.596214 111.644992 
L 295.596214 101.249994 
L 298.198063 101.249994 
L 298.198063 90.854997 
L 300.799912 90.854997 
L 300.799912 89.369992 
L 303.401798 89.369992 
L 303.401798 56.699994 
L 306.003647 56.699994 
L 306.003647 67.094992 
L 308.605496 67.094992 
L 308.605496 110.16 
L 311.207382 110.16 
L 311.207382 77.490003 
L 313.809231 77.490003 
L 313.809231 50.76 
L 316.41108 50.76 
L 316.41108 105.704997 
L 319.012966 105.704997 
L 319.012966 62.640003 
L 321.614852 62.640003 
L 321.614852 90.854997 
L 324.216701 90.854997 
L 324.216701 117.585 
L 326.81855 117.585 
L 326.81855 127.979997 
L 329.420436 127.979997 
L 329.420436 153.224994 
L 332.022285 153.224994 
L 332.022285 174.014996 
L 334.62417 174.014996 
L 334.62417 202.229997 
L 337.22602 202.229997 
L 337.22602 202.229997 
L 339.827869 202.229997 
L 339.827869 231.930001 
L 342.429718 231.930001 
L 342.429718 243.81 
L 345.031604 243.81 
L 345.031604 245.294999 
L 347.633453 245.294999 
L 347.633453 260.145 
L 350.235338 260.145 
L 350.235338 267.57 
L 352.837188 267.57 
L 352.837188 273.51 
L 355.439037 273.51 
L 355.439037 277.965 
L 358.040904 277.965 
L 358.040904 282.42 
L 360.642772 282.42 
L 360.642772 282.42 
L 363.244657 282.42 
L 363.244657 286.875 
L 365.846506 286.875 
L 365.846506 286.875 
L 368.448374 286.875 
L 368.448374 285.39 
L 371.050223 285.39 
L 371.050223 288.36 
" clip-path="url(#pe40ca5e493)" style="fill: #d62728; opacity: 0.5"/>
   </g>
   <g id="patch_7">
    <path d="M 172.264993 288.36 
L 172.264993 286.962353 
L 175.729365 286.962353 
L 175.729365 285.564706 
L 179.193738 285.564706 
L 179.193738 285.564706 
L 182.65811 285.564706 
L 182.65811 285.564706 
L 186.122446 285.564706 
L 186.122446 285.564706 
L 189.586819 285.564706 
L 189.586819 282.769412 
L 193.051155 282.769412 
L 193.051155 278.57647 
L 196.515527 278.57647 
L 196.515527 279.974117 
L 199.979936 279.974117 
L 199.979936 265.997647 
L 203.444308 265.997647 
L 203.444308 272.985881 
L 206.908644 272.985881 
L 206.908644 247.828234 
L 210.373017 247.828234 
L 210.373017 236.647058 
L 213.837389 236.647058 
L 213.837389 246.430587 
L 217.301761 246.430587 
L 217.301761 249.225881 
L 220.766134 249.225881 
L 220.766134 242.237646 
L 224.23047 242.237646 
L 224.23047 224.068232 
L 227.694842 224.068232 
L 227.694842 173.752941 
L 231.159215 173.752941 
L 231.159215 176.548235 
L 234.623623 176.548235 
L 234.623623 165.367052 
L 238.087923 165.367052 
L 238.087923 134.618819 
L 241.552295 134.618819 
L 241.552295 134.618819 
L 245.016668 134.618819 
L 245.016668 122.040003 
L 248.48104 122.040003 
L 248.48104 50.76 
L 251.945449 50.76 
L 251.945449 101.075291 
L 255.409785 101.075291 
L 255.409785 102.472931 
L 258.874157 102.472931 
L 258.874157 77.315285 
L 262.33853 77.315285 
L 262.33853 63.338816 
L 265.802866 63.338816 
L 265.802866 70.327058 
L 269.267238 70.327058 
L 269.267238 77.315285 
L 272.731611 77.315285 
L 272.731611 87.098821 
L 276.195983 87.098821 
L 276.195983 87.098821 
L 279.660355 87.098821 
L 279.660355 105.268225 
L 283.124691 105.268225 
L 283.124691 127.630591 
L 286.5891 127.630591 
L 286.5891 151.390582 
L 290.053436 151.390582 
L 290.053436 154.185876 
L 293.517809 154.185876 
L 293.517809 175.150588 
L 296.982181 175.150588 
L 296.982181 197.51294 
L 300.446553 197.51294 
L 300.446553 208.694115 
L 303.910889 208.694115 
L 303.910889 228.261173 
L 307.375262 228.261173 
L 307.375262 231.05647 
L 310.839671 231.05647 
L 310.839671 256.214116 
L 314.304007 256.214116 
L 314.304007 263.202353 
L 317.768379 263.202353 
L 317.768379 265.997647 
L 321.232715 265.997647 
L 321.232715 282.769412 
L 324.697087 282.769412 
L 324.697087 275.781176 
L 328.16146 275.781176 
L 328.16146 277.178823 
L 331.625832 277.178823 
L 331.625832 284.167059 
L 335.090205 284.167059 
L 335.090205 288.36 
L 338.554559 288.36 
L 338.554559 285.564706 
L 342.018931 285.564706 
L 342.018931 288.36 
L 345.483285 288.36 
L 345.483285 288.36 
L 348.947658 288.36 
L 348.947658 288.36 
L 352.41203 288.36 
L 352.41203 288.36 
L 355.876403 288.36 
L 355.876403 286.962353 
L 359.340757 286.962353 
L 359.340757 288.36 
" clip-path="url(#pe40ca5e493)" style="fill: #9467bd; opacity: 0.5"/>
   </g>
   <g id="patch_8">
    <path d="M 240.448798 288.36 
L 240.448798 286.765369 
L 242.841284 286.765369 
L 242.841284 283.576107 
L 245.23377 283.576107 
L 245.23377 283.576107 
L 247.626293 283.576107 
L 247.626293 288.36 
L 250.018779 288.36 
L 250.018779 281.981476 
L 252.411265 281.981476 
L 252.411265 286.765369 
L 254.803715 286.765369 
L 254.803715 286.765369 
L 257.196238 286.765369 
L 257.196238 275.602953 
L 259.588724 275.602953 
L 259.588724 275.602953 
L 261.981247 275.602953 
L 261.981247 278.792214 
L 264.373733 278.792214 
L 264.373733 275.602953 
L 266.766183 275.602953 
L 266.766183 266.035167 
L 269.158705 266.035167 
L 269.158705 267.629798 
L 271.551191 267.629798 
L 271.551191 248.494226 
L 273.943678 248.494226 
L 273.943678 242.115704 
L 276.336164 242.115704 
L 276.336164 246.899596 
L 278.72865 246.899596 
L 278.72865 235.737181 
L 281.121136 235.737181 
L 281.121136 237.331812 
L 283.513659 237.331812 
L 283.513659 219.790871 
L 285.906145 219.790871 
L 285.906145 184.708989 
L 288.298631 184.708989 
L 288.298631 199.060669 
L 290.691118 199.060669 
L 290.691118 165.573422 
L 293.083604 165.573422 
L 293.083604 141.653965 
L 295.47609 141.653965 
L 295.47609 160.789533 
L 297.868576 160.789533 
L 297.868576 101.788181 
L 300.261099 101.788181 
L 300.261099 106.572084 
L 302.653585 106.572084 
L 302.653585 106.572084 
L 305.046071 106.572084 
L 305.046071 120.923763 
L 307.438558 120.923763 
L 307.438558 93.815038 
L 309.831044 93.815038 
L 309.831044 77.868725 
L 312.22353 77.868725 
L 312.22353 103.382815 
L 314.616053 103.382815 
L 314.616053 50.76 
L 317.008503 50.76 
L 317.008503 63.517045 
L 319.401025 63.517045 
L 319.401025 76.274091 
L 321.793493 76.274091 
L 321.793493 65.111679 
L 324.185998 65.111679 
L 324.185998 87.436516 
L 326.578484 87.436516 
L 326.578484 85.841882 
L 328.97097 85.841882 
L 328.97097 93.815038 
L 331.363474 93.815038 
L 331.363474 144.843219 
L 333.755961 144.843219 
L 333.755961 117.734495 
L 336.148465 117.734495 
L 336.148465 173.546578 
L 338.540951 173.546578 
L 338.540951 191.087519 
L 340.933438 191.087519 
L 340.933438 187.898258 
L 343.325924 187.898258 
L 343.325924 197.466042 
L 345.71841 197.466042 
L 345.71841 216.60161 
L 348.110896 216.60161 
L 348.110896 243.710334 
L 350.503401 243.710334 
L 350.503401 234.142551 
L 352.895887 234.142551 
L 352.895887 267.629798 
L 355.288373 267.629798 
L 355.288373 259.656645 
L 357.680878 259.656645 
L 357.680878 278.792214 
L 360.073364 278.792214 
L 360.073364 278.792214 
L 362.465868 278.792214 
L 362.465868 275.602953 
L 364.858354 275.602953 
L 364.858354 285.170738 
L 367.250841 285.170738 
L 367.250841 281.981476 
L 369.643327 281.981476 
L 369.643327 288.36 
" clip-path="url(#pe40ca5e493)" style="fill: #8c564b; opacity: 0.5"/>
   </g>
   <g id="matplotlib.axis_1">
    <g id="xtick_1">
     <g id="line2d_1">
      <defs>
       <path id="med568b0b9b" d="M 0 0 
L 0 3.5 
" style="stroke: #000000; stroke-width: 0.8"/>
      </defs>
      <g>
       <use xlink:href="#med568b0b9b" x="67.431402" y="288.36" style="stroke: #000000; stroke-width: 0.8"/>
      </g>
     </g>
     <g id="text_1">
      <!-- −7500 -->
      <g transform="translate(50.516558 302.958438) scale(0.1 -0.1)">
       <defs>
        <path id="DejaVuSans-2212" d="M 678 2272 
L 4684 2272 
L 4684 1741 
L 678 1741 
L 678 2272 
z
" transform="scale(0.015625)"/>
        <path id="DejaVuSans-37" d="M 525 4666 
L 3525 4666 
L 3525 4397 
L 1831 0 
L 1172 0 
L 2766 4134 
L 525 4134 
L 525 4666 
z
" transform="scale(0.015625)"/>
        <path id="DejaVuSans-35" d="M 691 4666 
L 3169 4666 
L 3169 4134 
L 1269 4134 
L 1269 2991 
Q 1406 3038 1543 3061 
Q 1681 3084 1819 3084 
Q 2600 3084 3056 2656 
Q 3513 2228 3513 1497 
Q 3513 744 3044 326 
Q 2575 -91 1722 -91 
Q 1428 -91 1123 -41 
Q 819 9 494 109 
L 494 744 
Q 775 591 1075 516 
Q 1375 441 1709 441 
Q 2250 441 2565 725 
Q 2881 1009 2881 1497 
Q 2881 1984 2565 2268 
Q 2250 2553 1709 2553 
Q 1456 2553 1204 2497 
Q 953 2441 691 2322 
L 691 4666 
z
" transform="scale(0.015625)"/>
        <path id="DejaVuSans-30" d="M 2034 4250 
Q 1547 4250 1301 3770 
Q 1056 3291 1056 2328 
Q 1056 1369 1301 889 
Q 1547 409 2034 409 
Q 2525 409 2770 889 
Q 3016 1369 3016 2328 
Q 3016 3291 2770 3770 
Q 2525 4250 2034 4250 
z
M 2034 4750 
Q 2819 4750 3233 4129 
Q 3647 3509 3647 2328 
Q 3647 1150 3233 529 
Q 2819 -91 2034 -91 
Q 1250 -91 836 529 
Q 422 1150 422 2328 
Q 422 3509 836 4129 
Q 1250 4750 2034 4750 
z
" transform="scale(0.015625)"/>
       </defs>
       <use xlink:href="#DejaVuSans-2212"/>
       <use xlink:href="#DejaVuSans-37" transform="translate(83.789062 0)"/>
       <use xlink:href="#DejaVuSans-35" transform="translate(147.412109 0)"/>
       <use xlink:href="#DejaVuSans-30" transform="translate(211.035156 0)"/>
       <use xlink:href="#DejaVuSans-30" transform="translate(274.658203 0)"/>
      </g>
     </g>
    </g>
    <g id="xtick_2">
     <g id="line2d_2">
      <g>
       <use xlink:href="#med568b0b9b" x="104.638569" y="288.36" style="stroke: #000000; stroke-width: 0.8"/>
      </g>
     </g>
     <g id="text_2">
      <!-- −7000 -->
      <g transform="translate(87.723725 302.958438) scale(0.1 -0.1)">
       <use xlink:href="#DejaVuSans-2212"/>
       <use xlink:href="#DejaVuSans-37" transform="translate(83.789062 0)"/>
       <use xlink:href="#DejaVuSans-30" transform="translate(147.412109 0)"/>
       <use xlink:href="#DejaVuSans-30" transform="translate(211.035156 0)"/>
       <use xlink:href="#DejaVuSans-30" transform="translate(274.658203 0)"/>
      </g>
     </g>
    </g>
    <g id="xtick_3">
     <g id="line2d_3">
      <g>
       <use xlink:href="#med568b0b9b" x="141.845736" y="288.36" style="stroke: #000000; stroke-width: 0.8"/>
      </g>
     </g>
     <g id="text_3">
      <!-- −6500 -->
      <g transform="translate(124.930892 302.958438) scale(0.1 -0.1)">
       <defs>
        <path id="DejaVuSans-36" d="M 2113 2584 
Q 1688 2584 1439 2293 
Q 1191 2003 1191 1497 
Q 1191 994 1439 701 
Q 1688 409 2113 409 
Q 2538 409 2786 701 
Q 3034 994 3034 1497 
Q 3034 2003 2786 2293 
Q 2538 2584 2113 2584 
z
M 3366 4563 
L 3366 3988 
Q 3128 4100 2886 4159 
Q 2644 4219 2406 4219 
Q 1781 4219 1451 3797 
Q 1122 3375 1075 2522 
Q 1259 2794 1537 2939 
Q 1816 3084 2150 3084 
Q 2853 3084 3261 2657 
Q 3669 2231 3669 1497 
Q 3669 778 3244 343 
Q 2819 -91 2113 -91 
Q 1303 -91 875 529 
Q 447 1150 447 2328 
Q 447 3434 972 4092 
Q 1497 4750 2381 4750 
Q 2619 4750 2861 4703 
Q 3103 4656 3366 4563 
z
" transform="scale(0.015625)"/>
       </defs>
       <use xlink:href="#DejaVuSans-2212"/>
       <use xlink:href="#DejaVuSans-36" transform="translate(83.789062 0)"/>
       <use xlink:href="#DejaVuSans-35" transform="translate(147.412109 0)"/>
       <use xlink:href="#DejaVuSans-30" transform="translate(211.035156 0)"/>
       <use xlink:href="#DejaVuSans-30" transform="translate(274.658203 0)"/>
      </g>
     </g>
    </g>
    <g id="xtick_4">
     <g id="line2d_4">
      <g>
       <use xlink:href="#med568b0b9b" x="179.052903" y="288.36" style="stroke: #000000; stroke-width: 0.8"/>
      </g>
     </g>
     <g id="text_4">
      <!-- −6000 -->
      <g transform="translate(162.138059 302.958438) scale(0.1 -0.1)">
       <use xlink:href="#DejaVuSans-2212"/>
       <use xlink:href="#DejaVuSans-36" transform="translate(83.789062 0)"/>
       <use xlink:href="#DejaVuSans-30" transform="translate(147.412109 0)"/>
       <use xlink:href="#DejaVuSans-30" transform="translate(211.035156 0)"/>
       <use xlink:href="#DejaVuSans-30" transform="translate(274.658203 0)"/>
      </g>
     </g>
    </g>
    <g id="xtick_5">
     <g id="line2d_5">
      <g>
       <use xlink:href="#med568b0b9b" x="216.26007" y="288.36" style="stroke: #000000; stroke-width: 0.8"/>
      </g>
     </g>
     <g id="text_5">
      <!-- −5500 -->
      <g transform="translate(199.345226 302.958438) scale(0.1 -0.1)">
       <use xlink:href="#DejaVuSans-2212"/>
       <use xlink:href="#DejaVuSans-35" transform="translate(83.789062 0)"/>
       <use xlink:href="#DejaVuSans-35" transform="translate(147.412109 0)"/>
       <use xlink:href="#DejaVuSans-30" transform="translate(211.035156 0)"/>
       <use xlink:href="#DejaVuSans-30" transform="translate(274.658203 0)"/>
      </g>
     </g>
    </g>
    <g id="xtick_6">
     <g id="line2d_6">
      <g>
       <use xlink:href="#med568b0b9b" x="253.467237" y="288.36" style="stroke: #000000; stroke-width: 0.8"/>
      </g>
     </g>
     <g id="text_6">
      <!-- −5000 -->
      <g transform="translate(236.552393 302.958438) scale(0.1 -0.1)">
       <use xlink:href="#DejaVuSans-2212"/>
       <use xlink:href="#DejaVuSans-35" transform="translate(83.789062 0)"/>
       <use xlink:href="#DejaVuSans-30" transform="translate(147.412109 0)"/>
       <use xlink:href="#DejaVuSans-30" transform="translate(211.035156 0)"/>
       <use xlink:href="#DejaVuSans-30" transform="translate(274.658203 0)"/>
      </g>
     </g>
    </g>
    <g id="xtick_7">
     <g id="line2d_7">
      <g>
       <use xlink:href="#med568b0b9b" x="290.674404" y="288.36" style="stroke: #000000; stroke-width: 0.8"/>
      </g>
     </g>
     <g id="text_7">
      <!-- −4500 -->
      <g transform="translate(273.75956 302.958438) scale(0.1 -0.1)">
       <defs>
        <path id="DejaVuSans-34" d="M 2419 4116 
L 825 1625 
L 2419 1625 
L 2419 4116 
z
M 2253 4666 
L 3047 4666 
L 3047 1625 
L 3713 1625 
L 3713 1100 
L 3047 1100 
L 3047 0 
L 2419 0 
L 2419 1100 
L 313 1100 
L 313 1709 
L 2253 4666 
z
" transform="scale(0.015625)"/>
       </defs>
       <use xlink:href="#DejaVuSans-2212"/>
       <use xlink:href="#DejaVuSans-34" transform="translate(83.789062 0)"/>
       <use xlink:href="#DejaVuSans-35" transform="translate(147.412109 0)"/>
       <use xlink:href="#DejaVuSans-30" transform="translate(211.035156 0)"/>
       <use xlink:href="#DejaVuSans-30" transform="translate(274.658203 0)"/>
      </g>
     </g>
    </g>
    <g id="xtick_8">
     <g id="line2d_8">
      <g>
       <use xlink:href="#med568b0b9b" x="327.88157" y="288.36" style="stroke: #000000; stroke-width: 0.8"/>
      </g>
     </g>
     <g id="text_8">
      <!-- −4000 -->
      <g transform="translate(310.966727 302.958438) scale(0.1 -0.1)">
       <use xlink:href="#DejaVuSans-2212"/>
       <use xlink:href="#DejaVuSans-34" transform="translate(83.789062 0)"/>
       <use xlink:href="#DejaVuSans-30" transform="translate(147.412109 0)"/>
       <use xlink:href="#DejaVuSans-30" transform="translate(211.035156 0)"/>
       <use xlink:href="#DejaVuSans-30" transform="translate(274.658203 0)"/>
      </g>
     </g>
    </g>
    <g id="xtick_9">
     <g id="line2d_9">
      <g>
       <use xlink:href="#med568b0b9b" x="365.088737" y="288.36" style="stroke: #000000; stroke-width: 0.8"/>
      </g>
     </g>
     <g id="text_9">
      <!-- −3500 -->
      <g transform="translate(348.173894 302.958438) scale(0.1 -0.1)">
       <defs>
        <path id="DejaVuSans-33" d="M 2597 2516 
Q 3050 2419 3304 2112 
Q 3559 1806 3559 1356 
Q 3559 666 3084 287 
Q 2609 -91 1734 -91 
Q 1441 -91 1130 -33 
Q 819 25 488 141 
L 488 750 
Q 750 597 1062 519 
Q 1375 441 1716 441 
Q 2309 441 2620 675 
Q 2931 909 2931 1356 
Q 2931 1769 2642 2001 
Q 2353 2234 1838 2234 
L 1294 2234 
L 1294 2753 
L 1863 2753 
Q 2328 2753 2575 2939 
Q 2822 3125 2822 3475 
Q 2822 3834 2567 4026 
Q 2313 4219 1838 4219 
Q 1578 4219 1281 4162 
Q 984 4106 628 3988 
L 628 4550 
Q 988 4650 1302 4700 
Q 1616 4750 1894 4750 
Q 2613 4750 3031 4423 
Q 3450 4097 3450 3541 
Q 3450 3153 3228 2886 
Q 3006 2619 2597 2516 
z
" transform="scale(0.015625)"/>
       </defs>
       <use xlink:href="#DejaVuSans-2212"/>
       <use xlink:href="#DejaVuSans-33" transform="translate(83.789062 0)"/>
       <use xlink:href="#DejaVuSans-35" transform="translate(147.412109 0)"/>
       <use xlink:href="#DejaVuSans-30" transform="translate(211.035156 0)"/>
       <use xlink:href="#DejaVuSans-30" transform="translate(274.658203 0)"/>
      </g>
     </g>
    </g>
    <g id="text_10">
     <!-- log10 prob estimate -->
     <g transform="translate(170.884375 316.636563) scale(0.1 -0.1)">
      <defs>
       <path id="DejaVuSans-6c" d="M 603 4863 
L 1178 4863 
L 1178 0 
L 603 0 
L 603 4863 
z
" transform="scale(0.015625)"/>
       <path id="DejaVuSans-6f" d="M 1959 3097 
Q 1497 3097 1228 2736 
Q 959 2375 959 1747 
Q 959 1119 1226 758 
Q 1494 397 1959 397 
Q 2419 397 2687 759 
Q 2956 1122 2956 1747 
Q 2956 2369 2687 2733 
Q 2419 3097 1959 3097 
z
M 1959 3584 
Q 2709 3584 3137 3096 
Q 3566 2609 3566 1747 
Q 3566 888 3137 398 
Q 2709 -91 1959 -91 
Q 1206 -91 779 398 
Q 353 888 353 1747 
Q 353 2609 779 3096 
Q 1206 3584 1959 3584 
z
" transform="scale(0.015625)"/>
       <path id="DejaVuSans-67" d="M 2906 1791 
Q 2906 2416 2648 2759 
Q 2391 3103 1925 3103 
Q 1463 3103 1205 2759 
Q 947 2416 947 1791 
Q 947 1169 1205 825 
Q 1463 481 1925 481 
Q 2391 481 2648 825 
Q 2906 1169 2906 1791 
z
M 3481 434 
Q 3481 -459 3084 -895 
Q 2688 -1331 1869 -1331 
Q 1566 -1331 1297 -1286 
Q 1028 -1241 775 -1147 
L 775 -588 
Q 1028 -725 1275 -790 
Q 1522 -856 1778 -856 
Q 2344 -856 2625 -561 
Q 2906 -266 2906 331 
L 2906 616 
Q 2728 306 2450 153 
Q 2172 0 1784 0 
Q 1141 0 747 490 
Q 353 981 353 1791 
Q 353 2603 747 3093 
Q 1141 3584 1784 3584 
Q 2172 3584 2450 3431 
Q 2728 3278 2906 2969 
L 2906 3500 
L 3481 3500 
L 3481 434 
z
" transform="scale(0.015625)"/>
       <path id="DejaVuSans-31" d="M 794 531 
L 1825 531 
L 1825 4091 
L 703 3866 
L 703 4441 
L 1819 4666 
L 2450 4666 
L 2450 531 
L 3481 531 
L 3481 0 
L 794 0 
L 794 531 
z
" transform="scale(0.015625)"/>
       <path id="DejaVuSans-20" transform="scale(0.015625)"/>
       <path id="DejaVuSans-70" d="M 1159 525 
L 1159 -1331 
L 581 -1331 
L 581 3500 
L 1159 3500 
L 1159 2969 
Q 1341 3281 1617 3432 
Q 1894 3584 2278 3584 
Q 2916 3584 3314 3078 
Q 3713 2572 3713 1747 
Q 3713 922 3314 415 
Q 2916 -91 2278 -91 
Q 1894 -91 1617 61 
Q 1341 213 1159 525 
z
M 3116 1747 
Q 3116 2381 2855 2742 
Q 2594 3103 2138 3103 
Q 1681 3103 1420 2742 
Q 1159 2381 1159 1747 
Q 1159 1113 1420 752 
Q 1681 391 2138 391 
Q 2594 391 2855 752 
Q 3116 1113 3116 1747 
z
" transform="scale(0.015625)"/>
       <path id="DejaVuSans-72" d="M 2631 2963 
Q 2534 3019 2420 3045 
Q 2306 3072 2169 3072 
Q 1681 3072 1420 2755 
Q 1159 2438 1159 1844 
L 1159 0 
L 581 0 
L 581 3500 
L 1159 3500 
L 1159 2956 
Q 1341 3275 1631 3429 
Q 1922 3584 2338 3584 
Q 2397 3584 2469 3576 
Q 2541 3569 2628 3553 
L 2631 2963 
z
" transform="scale(0.015625)"/>
       <path id="DejaVuSans-62" d="M 3116 1747 
Q 3116 2381 2855 2742 
Q 2594 3103 2138 3103 
Q 1681 3103 1420 2742 
Q 1159 2381 1159 1747 
Q 1159 1113 1420 752 
Q 1681 391 2138 391 
Q 2594 391 2855 752 
Q 3116 1113 3116 1747 
z
M 1159 2969 
Q 1341 3281 1617 3432 
Q 1894 3584 2278 3584 
Q 2916 3584 3314 3078 
Q 3713 2572 3713 1747 
Q 3713 922 3314 415 
Q 2916 -91 2278 -91 
Q 1894 -91 1617 61 
Q 1341 213 1159 525 
L 1159 0 
L 581 0 
L 581 4863 
L 1159 4863 
L 1159 2969 
z
" transform="scale(0.015625)"/>
       <path id="DejaVuSans-65" d="M 3597 1894 
L 3597 1613 
L 953 1613 
Q 991 1019 1311 708 
Q 1631 397 2203 397 
Q 2534 397 2845 478 
Q 3156 559 3463 722 
L 3463 178 
Q 3153 47 2828 -22 
Q 2503 -91 2169 -91 
Q 1331 -91 842 396 
Q 353 884 353 1716 
Q 353 2575 817 3079 
Q 1281 3584 2069 3584 
Q 2775 3584 3186 3129 
Q 3597 2675 3597 1894 
z
M 3022 2063 
Q 3016 2534 2758 2815 
Q 2500 3097 2075 3097 
Q 1594 3097 1305 2825 
Q 1016 2553 972 2059 
L 3022 2063 
z
" transform="scale(0.015625)"/>
       <path id="DejaVuSans-73" d="M 2834 3397 
L 2834 2853 
Q 2591 2978 2328 3040 
Q 2066 3103 1784 3103 
Q 1356 3103 1142 2972 
Q 928 2841 928 2578 
Q 928 2378 1081 2264 
Q 1234 2150 1697 2047 
L 1894 2003 
Q 2506 1872 2764 1633 
Q 3022 1394 3022 966 
Q 3022 478 2636 193 
Q 2250 -91 1575 -91 
Q 1294 -91 989 -36 
Q 684 19 347 128 
L 347 722 
Q 666 556 975 473 
Q 1284 391 1588 391 
Q 1994 391 2212 530 
Q 2431 669 2431 922 
Q 2431 1156 2273 1281 
Q 2116 1406 1581 1522 
L 1381 1569 
Q 847 1681 609 1914 
Q 372 2147 372 2553 
Q 372 3047 722 3315 
Q 1072 3584 1716 3584 
Q 2034 3584 2315 3537 
Q 2597 3491 2834 3397 
z
" transform="scale(0.015625)"/>
       <path id="DejaVuSans-74" d="M 1172 4494 
L 1172 3500 
L 2356 3500 
L 2356 3053 
L 1172 3053 
L 1172 1153 
Q 1172 725 1289 603 
Q 1406 481 1766 481 
L 2356 481 
L 2356 0 
L 1766 0 
Q 1100 0 847 248 
Q 594 497 594 1153 
L 594 3053 
L 172 3053 
L 172 3500 
L 594 3500 
L 594 4494 
L 1172 4494 
z
" transform="scale(0.015625)"/>
       <path id="DejaVuSans-69" d="M 603 3500 
L 1178 3500 
L 1178 0 
L 603 0 
L 603 3500 
z
M 603 4863 
L 1178 4863 
L 1178 4134 
L 603 4134 
L 603 4863 
z
" transform="scale(0.015625)"/>
       <path id="DejaVuSans-6d" d="M 3328 2828 
Q 3544 3216 3844 3400 
Q 4144 3584 4550 3584 
Q 5097 3584 5394 3201 
Q 5691 2819 5691 2113 
L 5691 0 
L 5113 0 
L 5113 2094 
Q 5113 2597 4934 2840 
Q 4756 3084 4391 3084 
Q 3944 3084 3684 2787 
Q 3425 2491 3425 1978 
L 3425 0 
L 2847 0 
L 2847 2094 
Q 2847 2600 2669 2842 
Q 2491 3084 2119 3084 
Q 1678 3084 1418 2786 
Q 1159 2488 1159 1978 
L 1159 0 
L 581 0 
L 581 3500 
L 1159 3500 
L 1159 2956 
Q 1356 3278 1631 3431 
Q 1906 3584 2284 3584 
Q 2666 3584 2933 3390 
Q 3200 3197 3328 2828 
z
" transform="scale(0.015625)"/>
       <path id="DejaVuSans-61" d="M 2194 1759 
Q 1497 1759 1228 1600 
Q 959 1441 959 1056 
Q 959 750 1161 570 
Q 1363 391 1709 391 
Q 2188 391 2477 730 
Q 2766 1069 2766 1631 
L 2766 1759 
L 2194 1759 
z
M 3341 1997 
L 3341 0 
L 2766 0 
L 2766 531 
Q 2569 213 2275 61 
Q 1981 -91 1556 -91 
Q 1019 -91 701 211 
Q 384 513 384 1019 
Q 384 1609 779 1909 
Q 1175 2209 1959 2209 
L 2766 2209 
L 2766 2266 
Q 2766 2663 2505 2880 
Q 2244 3097 1772 3097 
Q 1472 3097 1187 3025 
Q 903 2953 641 2809 
L 641 3341 
Q 956 3463 1253 3523 
Q 1550 3584 1831 3584 
Q 2591 3584 2966 3190 
Q 3341 2797 3341 1997 
z
" transform="scale(0.015625)"/>
      </defs>
      <use xlink:href="#DejaVuSans-6c"/>
      <use xlink:href="#DejaVuSans-6f" transform="translate(27.783203 0)"/>
      <use xlink:href="#DejaVuSans-67" transform="translate(88.964844 0)"/>
      <use xlink:href="#DejaVuSans-31" transform="translate(152.441406 0)"/>
      <use xlink:href="#DejaVuSans-30" transform="translate(216.064453 0)"/>
      <use xlink:href="#DejaVuSans-20" transform="translate(279.6875 0)"/>
      <use xlink:href="#DejaVuSans-70" transform="translate(311.474609 0)"/>
      <use xlink:href="#DejaVuSans-72" transform="translate(374.951172 0)"/>
      <use xlink:href="#DejaVuSans-6f" transform="translate(413.814453 0)"/>
      <use xlink:href="#DejaVuSans-62" transform="translate(474.996094 0)"/>
      <use xlink:href="#DejaVuSans-20" transform="translate(538.472656 0)"/>
      <use xlink:href="#DejaVuSans-65" transform="translate(570.259766 0)"/>
      <use xlink:href="#DejaVuSans-73" transform="translate(631.783203 0)"/>
      <use xlink:href="#DejaVuSans-74" transform="translate(683.882812 0)"/>
      <use xlink:href="#DejaVuSans-69" transform="translate(723.091797 0)"/>
      <use xlink:href="#DejaVuSans-6d" transform="translate(750.875 0)"/>
      <use xlink:href="#DejaVuSans-61" transform="translate(848.287109 0)"/>
      <use xlink:href="#DejaVuSans-74" transform="translate(909.566406 0)"/>
      <use xlink:href="#DejaVuSans-65" transform="translate(948.775391 0)"/>
     </g>
    </g>
   </g>
   <g id="matplotlib.axis_2">
    <g id="ytick_1">
     <g id="line2d_10">
      <defs>
       <path id="mef62886bc1" d="M 0 0 
L -3.5 0 
" style="stroke: #000000; stroke-width: 0.8"/>
      </defs>
      <g>
       <use xlink:href="#mef62886bc1" x="54" y="288.36" style="stroke: #000000; stroke-width: 0.8"/>
      </g>
     </g>
     <g id="text_11">
      <!-- 0.0 -->
      <g transform="translate(31.096875 292.159219) scale(0.1 -0.1)">
       <defs>
        <path id="DejaVuSans-2e" d="M 684 794 
L 1344 794 
L 1344 0 
L 684 0 
L 684 794 
z
" transform="scale(0.015625)"/>
       </defs>
       <use xlink:href="#DejaVuSans-30"/>
       <use xlink:href="#DejaVuSans-2e" transform="translate(63.623047 0)"/>
       <use xlink:href="#DejaVuSans-30" transform="translate(95.410156 0)"/>
      </g>
     </g>
    </g>
    <g id="ytick_2">
     <g id="line2d_11">
      <g>
       <use xlink:href="#mef62886bc1" x="54" y="240.84" style="stroke: #000000; stroke-width: 0.8"/>
      </g>
     </g>
     <g id="text_12">
      <!-- 0.2 -->
      <g transform="translate(31.096875 244.639219) scale(0.1 -0.1)">
       <defs>
        <path id="DejaVuSans-32" d="M 1228 531 
L 3431 531 
L 3431 0 
L 469 0 
L 469 531 
Q 828 903 1448 1529 
Q 2069 2156 2228 2338 
Q 2531 2678 2651 2914 
Q 2772 3150 2772 3378 
Q 2772 3750 2511 3984 
Q 2250 4219 1831 4219 
Q 1534 4219 1204 4116 
Q 875 4013 500 3803 
L 500 4441 
Q 881 4594 1212 4672 
Q 1544 4750 1819 4750 
Q 2544 4750 2975 4387 
Q 3406 4025 3406 3419 
Q 3406 3131 3298 2873 
Q 3191 2616 2906 2266 
Q 2828 2175 2409 1742 
Q 1991 1309 1228 531 
z
" transform="scale(0.015625)"/>
       </defs>
       <use xlink:href="#DejaVuSans-30"/>
       <use xlink:href="#DejaVuSans-2e" transform="translate(63.623047 0)"/>
       <use xlink:href="#DejaVuSans-32" transform="translate(95.410156 0)"/>
      </g>
     </g>
    </g>
    <g id="ytick_3">
     <g id="line2d_12">
      <g>
       <use xlink:href="#mef62886bc1" x="54" y="193.32" style="stroke: #000000; stroke-width: 0.8"/>
      </g>
     </g>
     <g id="text_13">
      <!-- 0.4 -->
      <g transform="translate(31.096875 197.119219) scale(0.1 -0.1)">
       <use xlink:href="#DejaVuSans-30"/>
       <use xlink:href="#DejaVuSans-2e" transform="translate(63.623047 0)"/>
       <use xlink:href="#DejaVuSans-34" transform="translate(95.410156 0)"/>
      </g>
     </g>
    </g>
    <g id="ytick_4">
     <g id="line2d_13">
      <g>
       <use xlink:href="#mef62886bc1" x="54" y="145.8" style="stroke: #000000; stroke-width: 0.8"/>
      </g>
     </g>
     <g id="text_14">
      <!-- 0.6 -->
      <g transform="translate(31.096875 149.599219) scale(0.1 -0.1)">
       <use xlink:href="#DejaVuSans-30"/>
       <use xlink:href="#DejaVuSans-2e" transform="translate(63.623047 0)"/>
       <use xlink:href="#DejaVuSans-36" transform="translate(95.410156 0)"/>
      </g>
     </g>
    </g>
    <g id="ytick_5">
     <g id="line2d_14">
      <g>
       <use xlink:href="#mef62886bc1" x="54" y="98.28" style="stroke: #000000; stroke-width: 0.8"/>
      </g>
     </g>
     <g id="text_15">
      <!-- 0.8 -->
      <g transform="translate(31.096875 102.079219) scale(0.1 -0.1)">
       <defs>
        <path id="DejaVuSans-38" d="M 2034 2216 
Q 1584 2216 1326 1975 
Q 1069 1734 1069 1313 
Q 1069 891 1326 650 
Q 1584 409 2034 409 
Q 2484 409 2743 651 
Q 3003 894 3003 1313 
Q 3003 1734 2745 1975 
Q 2488 2216 2034 2216 
z
M 1403 2484 
Q 997 2584 770 2862 
Q 544 3141 544 3541 
Q 544 4100 942 4425 
Q 1341 4750 2034 4750 
Q 2731 4750 3128 4425 
Q 3525 4100 3525 3541 
Q 3525 3141 3298 2862 
Q 3072 2584 2669 2484 
Q 3125 2378 3379 2068 
Q 3634 1759 3634 1313 
Q 3634 634 3220 271 
Q 2806 -91 2034 -91 
Q 1263 -91 848 271 
Q 434 634 434 1313 
Q 434 1759 690 2068 
Q 947 2378 1403 2484 
z
M 1172 3481 
Q 1172 3119 1398 2916 
Q 1625 2713 2034 2713 
Q 2441 2713 2670 2916 
Q 2900 3119 2900 3481 
Q 2900 3844 2670 4047 
Q 2441 4250 2034 4250 
Q 1625 4250 1398 4047 
Q 1172 3844 1172 3481 
z
" transform="scale(0.015625)"/>
       </defs>
       <use xlink:href="#DejaVuSans-30"/>
       <use xlink:href="#DejaVuSans-2e" transform="translate(63.623047 0)"/>
       <use xlink:href="#DejaVuSans-38" transform="translate(95.410156 0)"/>
      </g>
     </g>
    </g>
    <g id="ytick_6">
     <g id="line2d_15">
      <g>
       <use xlink:href="#mef62886bc1" x="54" y="50.76" style="stroke: #000000; stroke-width: 0.8"/>
      </g>
     </g>
     <g id="text_16">
      <!-- 1.0 -->
      <g transform="translate(31.096875 54.559219) scale(0.1 -0.1)">
       <use xlink:href="#DejaVuSans-31"/>
       <use xlink:href="#DejaVuSans-2e" transform="translate(63.623047 0)"/>
       <use xlink:href="#DejaVuSans-30" transform="translate(95.410156 0)"/>
      </g>
     </g>
    </g>
   </g>
   <g id="line2d_16">
    <path d="M 282.858573 288.36 
L 282.858573 38.88 
" clip-path="url(#pe40ca5e493)" style="fill: none; stroke-dasharray: 5.55,2.4; stroke-dashoffset: 0; stroke: #1f77b4; stroke-opacity: 0.8; stroke-width: 1.5"/>
   </g>
   <g id="line2d_17">
    <path d="M 279.10421 288.36 
L 279.10421 38.88 
" clip-path="url(#pe40ca5e493)" style="fill: none; stroke-dasharray: 5.55,2.4; stroke-dashoffset: 0; stroke: #ff7f0e; stroke-opacity: 0.8; stroke-width: 1.5"/>
   </g>
   <g id="line2d_18">
    <path d="M 373.323076 288.36 
L 373.323076 38.88 
" clip-path="url(#pe40ca5e493)" style="fill: none; stroke-dasharray: 5.55,2.4; stroke-dashoffset: 0; stroke: #2ca02c; stroke-opacity: 0.8; stroke-width: 1.5"/>
   </g>
   <g id="line2d_19">
    <path d="M 370.791462 288.36 
L 370.791462 38.88 
" clip-path="url(#pe40ca5e493)" style="fill: none; stroke-dasharray: 5.55,2.4; stroke-dashoffset: 0; stroke: #d62728; stroke-opacity: 0.8; stroke-width: 1.5"/>
   </g>
   <g id="line2d_20">
    <path d="M 359.081978 288.36 
L 359.081978 38.88 
" clip-path="url(#pe40ca5e493)" style="fill: none; stroke-dasharray: 5.55,2.4; stroke-dashoffset: 0; stroke: #9467bd; stroke-opacity: 0.8; stroke-width: 1.5"/>
   </g>
   <g id="line2d_21">
    <path d="M 369.390598 288.36 
L 369.390598 38.88 
" clip-path="url(#pe40ca5e493)" style="fill: none; stroke-dasharray: 5.55,2.4; stroke-dashoffset: 0; stroke: #8c564b; stroke-opacity: 0.8; stroke-width: 1.5"/>
   </g>
   <g id="patch_9">
    <path d="M 54 288.36 
L 54 38.88 
" style="fill: none; stroke: #000000; stroke-width: 0.8; stroke-linejoin: miter; stroke-linecap: square"/>
   </g>
   <g id="patch_10">
    <path d="M 388.8 288.36 
L 388.8 38.88 
" style="fill: none; stroke: #000000; stroke-width: 0.8; stroke-linejoin: miter; stroke-linecap: square"/>
   </g>
   <g id="patch_11">
    <path d="M 54 288.36 
L 388.8 288.36 
" style="fill: none; stroke: #000000; stroke-width: 0.8; stroke-linejoin: miter; stroke-linecap: square"/>
   </g>
   <g id="patch_12">
    <path d="M 54 38.88 
L 388.8 38.88 
" style="fill: none; stroke: #000000; stroke-width: 0.8; stroke-linejoin: miter; stroke-linecap: square"/>
   </g>
   <g id="text_17">
    <!-- MLP KL neighborhoods: preconditioning -->
    <g transform="translate(102.695625 32.88) scale(0.12 -0.12)">
     <defs>
      <path id="DejaVuSans-4d" d="M 628 4666 
L 1569 4666 
L 2759 1491 
L 3956 4666 
L 4897 4666 
L 4897 0 
L 4281 0 
L 4281 4097 
L 3078 897 
L 2444 897 
L 1241 4097 
L 1241 0 
L 628 0 
L 628 4666 
z
" transform="scale(0.015625)"/>
      <path id="DejaVuSans-4c" d="M 628 4666 
L 1259 4666 
L 1259 531 
L 3531 531 
L 3531 0 
L 628 0 
L 628 4666 
z
" transform="scale(0.015625)"/>
      <path id="DejaVuSans-50" d="M 1259 4147 
L 1259 2394 
L 2053 2394 
Q 2494 2394 2734 2622 
Q 2975 2850 2975 3272 
Q 2975 3691 2734 3919 
Q 2494 4147 2053 4147 
L 1259 4147 
z
M 628 4666 
L 2053 4666 
Q 2838 4666 3239 4311 
Q 3641 3956 3641 3272 
Q 3641 2581 3239 2228 
Q 2838 1875 2053 1875 
L 1259 1875 
L 1259 0 
L 628 0 
L 628 4666 
z
" transform="scale(0.015625)"/>
      <path id="DejaVuSans-4b" d="M 628 4666 
L 1259 4666 
L 1259 2694 
L 3353 4666 
L 4166 4666 
L 1850 2491 
L 4331 0 
L 3500 0 
L 1259 2247 
L 1259 0 
L 628 0 
L 628 4666 
z
" transform="scale(0.015625)"/>
      <path id="DejaVuSans-6e" d="M 3513 2113 
L 3513 0 
L 2938 0 
L 2938 2094 
Q 2938 2591 2744 2837 
Q 2550 3084 2163 3084 
Q 1697 3084 1428 2787 
Q 1159 2491 1159 1978 
L 1159 0 
L 581 0 
L 581 3500 
L 1159 3500 
L 1159 2956 
Q 1366 3272 1645 3428 
Q 1925 3584 2291 3584 
Q 2894 3584 3203 3211 
Q 3513 2838 3513 2113 
z
" transform="scale(0.015625)"/>
      <path id="DejaVuSans-68" d="M 3513 2113 
L 3513 0 
L 2938 0 
L 2938 2094 
Q 2938 2591 2744 2837 
Q 2550 3084 2163 3084 
Q 1697 3084 1428 2787 
Q 1159 2491 1159 1978 
L 1159 0 
L 581 0 
L 581 4863 
L 1159 4863 
L 1159 2956 
Q 1366 3272 1645 3428 
Q 1925 3584 2291 3584 
Q 2894 3584 3203 3211 
Q 3513 2838 3513 2113 
z
" transform="scale(0.015625)"/>
      <path id="DejaVuSans-64" d="M 2906 2969 
L 2906 4863 
L 3481 4863 
L 3481 0 
L 2906 0 
L 2906 525 
Q 2725 213 2448 61 
Q 2172 -91 1784 -91 
Q 1150 -91 751 415 
Q 353 922 353 1747 
Q 353 2572 751 3078 
Q 1150 3584 1784 3584 
Q 2172 3584 2448 3432 
Q 2725 3281 2906 2969 
z
M 947 1747 
Q 947 1113 1208 752 
Q 1469 391 1925 391 
Q 2381 391 2643 752 
Q 2906 1113 2906 1747 
Q 2906 2381 2643 2742 
Q 2381 3103 1925 3103 
Q 1469 3103 1208 2742 
Q 947 2381 947 1747 
z
" transform="scale(0.015625)"/>
      <path id="DejaVuSans-3a" d="M 750 794 
L 1409 794 
L 1409 0 
L 750 0 
L 750 794 
z
M 750 3309 
L 1409 3309 
L 1409 2516 
L 750 2516 
L 750 3309 
z
" transform="scale(0.015625)"/>
      <path id="DejaVuSans-63" d="M 3122 3366 
L 3122 2828 
Q 2878 2963 2633 3030 
Q 2388 3097 2138 3097 
Q 1578 3097 1268 2742 
Q 959 2388 959 1747 
Q 959 1106 1268 751 
Q 1578 397 2138 397 
Q 2388 397 2633 464 
Q 2878 531 3122 666 
L 3122 134 
Q 2881 22 2623 -34 
Q 2366 -91 2075 -91 
Q 1284 -91 818 406 
Q 353 903 353 1747 
Q 353 2603 823 3093 
Q 1294 3584 2113 3584 
Q 2378 3584 2631 3529 
Q 2884 3475 3122 3366 
z
" transform="scale(0.015625)"/>
     </defs>
     <use xlink:href="#DejaVuSans-4d"/>
     <use xlink:href="#DejaVuSans-4c" transform="translate(86.279297 0)"/>
     <use xlink:href="#DejaVuSans-50" transform="translate(141.992188 0)"/>
     <use xlink:href="#DejaVuSans-20" transform="translate(202.294922 0)"/>
     <use xlink:href="#DejaVuSans-4b" transform="translate(234.082031 0)"/>
     <use xlink:href="#DejaVuSans-4c" transform="translate(299.658203 0)"/>
     <use xlink:href="#DejaVuSans-20" transform="translate(355.371094 0)"/>
     <use xlink:href="#DejaVuSans-6e" transform="translate(387.158203 0)"/>
     <use xlink:href="#DejaVuSans-65" transform="translate(450.537109 0)"/>
     <use xlink:href="#DejaVuSans-69" transform="translate(512.060547 0)"/>
     <use xlink:href="#DejaVuSans-67" transform="translate(539.84375 0)"/>
     <use xlink:href="#DejaVuSans-68" transform="translate(603.320312 0)"/>
     <use xlink:href="#DejaVuSans-62" transform="translate(666.699219 0)"/>
     <use xlink:href="#DejaVuSans-6f" transform="translate(730.175781 0)"/>
     <use xlink:href="#DejaVuSans-72" transform="translate(791.357422 0)"/>
     <use xlink:href="#DejaVuSans-68" transform="translate(830.720703 0)"/>
     <use xlink:href="#DejaVuSans-6f" transform="translate(894.099609 0)"/>
     <use xlink:href="#DejaVuSans-6f" transform="translate(955.28125 0)"/>
     <use xlink:href="#DejaVuSans-64" transform="translate(1016.462891 0)"/>
     <use xlink:href="#DejaVuSans-73" transform="translate(1079.939453 0)"/>
     <use xlink:href="#DejaVuSans-3a" transform="translate(1132.039062 0)"/>
     <use xlink:href="#DejaVuSans-20" transform="translate(1165.730469 0)"/>
     <use xlink:href="#DejaVuSans-70" transform="translate(1197.517578 0)"/>
     <use xlink:href="#DejaVuSans-72" transform="translate(1260.994141 0)"/>
     <use xlink:href="#DejaVuSans-65" transform="translate(1299.857422 0)"/>
     <use xlink:href="#DejaVuSans-63" transform="translate(1361.380859 0)"/>
     <use xlink:href="#DejaVuSans-6f" transform="translate(1416.361328 0)"/>
     <use xlink:href="#DejaVuSans-6e" transform="translate(1477.542969 0)"/>
     <use xlink:href="#DejaVuSans-64" transform="translate(1540.921875 0)"/>
     <use xlink:href="#DejaVuSans-69" transform="translate(1604.398438 0)"/>
     <use xlink:href="#DejaVuSans-74" transform="translate(1632.181641 0)"/>
     <use xlink:href="#DejaVuSans-69" transform="translate(1671.390625 0)"/>
     <use xlink:href="#DejaVuSans-6f" transform="translate(1699.173828 0)"/>
     <use xlink:href="#DejaVuSans-6e" transform="translate(1760.355469 0)"/>
     <use xlink:href="#DejaVuSans-69" transform="translate(1823.734375 0)"/>
     <use xlink:href="#DejaVuSans-6e" transform="translate(1851.517578 0)"/>
     <use xlink:href="#DejaVuSans-67" transform="translate(1914.896484 0)"/>
    </g>
   </g>
   <g id="legend_1">
    <g id="patch_13">
     <path d="M 61 134.970625 
L 138.789062 134.970625 
Q 140.789062 134.970625 140.789062 132.970625 
L 140.789062 45.88 
Q 140.789062 43.88 138.789062 43.88 
L 61 43.88 
Q 59 43.88 59 45.88 
L 59 132.970625 
Q 59 134.970625 61 134.970625 
z
" style="fill: #ffffff; opacity: 0.8; stroke: #cccccc; stroke-linejoin: miter"/>
    </g>
    <g id="patch_14">
     <path d="M 63 55.478437 
L 83 55.478437 
L 83 48.478437 
L 63 48.478437 
z
" style="fill: #1f77b4; opacity: 0.5"/>
    </g>
    <g id="text_18">
     <!-- Naïve -->
     <g transform="translate(91 55.478437) scale(0.1 -0.1)">
      <defs>
       <path id="DejaVuSans-4e" d="M 628 4666 
L 1478 4666 
L 3547 763 
L 3547 4666 
L 4159 4666 
L 4159 0 
L 3309 0 
L 1241 3903 
L 1241 0 
L 628 0 
L 628 4666 
z
" transform="scale(0.015625)"/>
       <path id="DejaVuSans-ef" d="M 603 3500 
L 1178 3500 
L 1178 0 
L 603 0 
L 603 3500 
z
M 891 3584 
L 891 3584 
z
M 1182 4850 
L 1816 4850 
L 1816 4219 
L 1182 4219 
L 1182 4850 
z
M -40 4850 
L 594 4850 
L 594 4219 
L -40 4219 
L -40 4850 
z
" transform="scale(0.015625)"/>
       <path id="DejaVuSans-76" d="M 191 3500 
L 800 3500 
L 1894 563 
L 2988 3500 
L 3597 3500 
L 2284 0 
L 1503 0 
L 191 3500 
z
" transform="scale(0.015625)"/>
      </defs>
      <use xlink:href="#DejaVuSans-4e"/>
      <use xlink:href="#DejaVuSans-61" transform="translate(74.804688 0)"/>
      <use xlink:href="#DejaVuSans-ef" transform="translate(136.083984 0)"/>
      <use xlink:href="#DejaVuSans-76" transform="translate(163.867188 0)"/>
      <use xlink:href="#DejaVuSans-65" transform="translate(223.046875 0)"/>
     </g>
    </g>
    <g id="patch_15">
     <path d="M 63 70.156562 
L 83 70.156562 
L 83 63.156562 
L 63 63.156562 
z
" style="fill: #ff7f0e; opacity: 0.5"/>
    </g>
    <g id="text_19">
     <!-- Hessian -->
     <g transform="translate(91 70.156562) scale(0.1 -0.1)">
      <defs>
       <path id="DejaVuSans-48" d="M 628 4666 
L 1259 4666 
L 1259 2753 
L 3553 2753 
L 3553 4666 
L 4184 4666 
L 4184 0 
L 3553 0 
L 3553 2222 
L 1259 2222 
L 1259 0 
L 628 0 
L 628 4666 
z
" transform="scale(0.015625)"/>
      </defs>
      <use xlink:href="#DejaVuSans-48"/>
      <use xlink:href="#DejaVuSans-65" transform="translate(75.195312 0)"/>
      <use xlink:href="#DejaVuSans-73" transform="translate(136.71875 0)"/>
      <use xlink:href="#DejaVuSans-73" transform="translate(188.818359 0)"/>
      <use xlink:href="#DejaVuSans-69" transform="translate(240.917969 0)"/>
      <use xlink:href="#DejaVuSans-61" transform="translate(268.701172 0)"/>
      <use xlink:href="#DejaVuSans-6e" transform="translate(329.980469 0)"/>
     </g>
    </g>
    <g id="patch_16">
     <path d="M 63 84.834687 
L 83 84.834687 
L 83 77.834687 
L 63 77.834687 
z
" style="fill: #2ca02c; opacity: 0.5"/>
    </g>
    <g id="text_20">
     <!-- diag(H) -->
     <g transform="translate(91 84.834687) scale(0.1 -0.1)">
      <defs>
       <path id="DejaVuSans-28" d="M 1984 4856 
Q 1566 4138 1362 3434 
Q 1159 2731 1159 2009 
Q 1159 1288 1364 580 
Q 1569 -128 1984 -844 
L 1484 -844 
Q 1016 -109 783 600 
Q 550 1309 550 2009 
Q 550 2706 781 3412 
Q 1013 4119 1484 4856 
L 1984 4856 
z
" transform="scale(0.015625)"/>
       <path id="DejaVuSans-29" d="M 513 4856 
L 1013 4856 
Q 1481 4119 1714 3412 
Q 1947 2706 1947 2009 
Q 1947 1309 1714 600 
Q 1481 -109 1013 -844 
L 513 -844 
Q 928 -128 1133 580 
Q 1338 1288 1338 2009 
Q 1338 2731 1133 3434 
Q 928 4138 513 4856 
z
" transform="scale(0.015625)"/>
      </defs>
      <use xlink:href="#DejaVuSans-64"/>
      <use xlink:href="#DejaVuSans-69" transform="translate(63.476562 0)"/>
      <use xlink:href="#DejaVuSans-61" transform="translate(91.259766 0)"/>
      <use xlink:href="#DejaVuSans-67" transform="translate(152.539062 0)"/>
      <use xlink:href="#DejaVuSans-28" transform="translate(216.015625 0)"/>
      <use xlink:href="#DejaVuSans-48" transform="translate(255.029297 0)"/>
      <use xlink:href="#DejaVuSans-29" transform="translate(330.224609 0)"/>
     </g>
    </g>
    <g id="patch_17">
     <path d="M 63 99.512812 
L 83 99.512812 
L 83 92.512812 
L 63 92.512812 
z
" style="fill: #d62728; opacity: 0.5"/>
    </g>
    <g id="text_21">
     <!-- HesScale -->
     <g transform="translate(91 99.512812) scale(0.1 -0.1)">
      <defs>
       <path id="DejaVuSans-53" d="M 3425 4513 
L 3425 3897 
Q 3066 4069 2747 4153 
Q 2428 4238 2131 4238 
Q 1616 4238 1336 4038 
Q 1056 3838 1056 3469 
Q 1056 3159 1242 3001 
Q 1428 2844 1947 2747 
L 2328 2669 
Q 3034 2534 3370 2195 
Q 3706 1856 3706 1288 
Q 3706 609 3251 259 
Q 2797 -91 1919 -91 
Q 1588 -91 1214 -16 
Q 841 59 441 206 
L 441 856 
Q 825 641 1194 531 
Q 1563 422 1919 422 
Q 2459 422 2753 634 
Q 3047 847 3047 1241 
Q 3047 1584 2836 1778 
Q 2625 1972 2144 2069 
L 1759 2144 
Q 1053 2284 737 2584 
Q 422 2884 422 3419 
Q 422 4038 858 4394 
Q 1294 4750 2059 4750 
Q 2388 4750 2728 4690 
Q 3069 4631 3425 4513 
z
" transform="scale(0.015625)"/>
      </defs>
      <use xlink:href="#DejaVuSans-48"/>
      <use xlink:href="#DejaVuSans-65" transform="translate(75.195312 0)"/>
      <use xlink:href="#DejaVuSans-73" transform="translate(136.71875 0)"/>
      <use xlink:href="#DejaVuSans-53" transform="translate(188.818359 0)"/>
      <use xlink:href="#DejaVuSans-63" transform="translate(252.294922 0)"/>
      <use xlink:href="#DejaVuSans-61" transform="translate(307.275391 0)"/>
      <use xlink:href="#DejaVuSans-6c" transform="translate(368.554688 0)"/>
      <use xlink:href="#DejaVuSans-65" transform="translate(396.337891 0)"/>
     </g>
    </g>
    <g id="patch_18">
     <path d="M 63 114.1925 
L 83 114.1925 
L 83 107.1925 
L 63 107.1925 
z
" style="fill: #9467bd; opacity: 0.5"/>
    </g>
    <g id="text_22">
     <!-- Adam $\mu$ -->
     <g transform="translate(91 114.1925) scale(0.1 -0.1)">
      <defs>
       <path id="DejaVuSans-41" d="M 2188 4044 
L 1331 1722 
L 3047 1722 
L 2188 4044 
z
M 1831 4666 
L 2547 4666 
L 4325 0 
L 3669 0 
L 3244 1197 
L 1141 1197 
L 716 0 
L 50 0 
L 1831 4666 
z
" transform="scale(0.015625)"/>
       <path id="DejaVuSans-Oblique-3bc" d="M -84 -1331 
L 856 3500 
L 1434 3500 
L 1009 1322 
Q 997 1256 987 1175 
Q 978 1094 978 1013 
Q 978 722 1161 565 
Q 1344 409 1684 409 
Q 2147 409 2431 671 
Q 2716 934 2816 1459 
L 3213 3500 
L 3788 3500 
L 3266 809 
Q 3253 750 3248 706 
Q 3244 663 3244 628 
Q 3244 531 3283 486 
Q 3322 441 3406 441 
Q 3438 441 3492 456 
Q 3547 472 3647 513 
L 3559 50 
Q 3422 -19 3297 -55 
Q 3172 -91 3053 -91 
Q 2847 -91 2730 40 
Q 2613 172 2613 403 
Q 2438 153 2195 31 
Q 1953 -91 1625 -91 
Q 1334 -91 1117 43 
Q 900 178 831 397 
L 494 -1331 
L -84 -1331 
z
" transform="scale(0.015625)"/>
      </defs>
      <use xlink:href="#DejaVuSans-41" transform="translate(0 0.015625)"/>
      <use xlink:href="#DejaVuSans-64" transform="translate(68.408203 0.015625)"/>
      <use xlink:href="#DejaVuSans-61" transform="translate(131.884766 0.015625)"/>
      <use xlink:href="#DejaVuSans-6d" transform="translate(193.164062 0.015625)"/>
      <use xlink:href="#DejaVuSans-20" transform="translate(290.576172 0.015625)"/>
      <use xlink:href="#DejaVuSans-Oblique-3bc" transform="translate(322.363281 0.015625)"/>
     </g>
    </g>
    <g id="patch_19">
     <path d="M 63 128.890938 
L 83 128.890938 
L 83 121.890938 
L 63 121.890938 
z
" style="fill: #8c564b; opacity: 0.5"/>
    </g>
    <g id="text_23">
     <!-- Adam $\nu$ -->
     <g transform="translate(91 128.890938) scale(0.1 -0.1)">
      <defs>
       <path id="DejaVuSans-Oblique-3bd" d="M 959 0 
L 572 3500 
L 1191 3500 
L 1522 563 
Q 1972 950 2391 1488 
Q 2706 1891 2788 2241 
Q 2825 2406 2809 2719 
Q 2794 3091 2544 3500 
L 3125 3500 
L 3125 3500 
Q 3288 3222 3353 2834 
Q 3416 2478 3369 2234 
Q 3250 1622 2719 1075 
Q 2025 363 1572 0 
L 959 0 
z
" transform="scale(0.015625)"/>
      </defs>
      <use xlink:href="#DejaVuSans-41" transform="translate(0 0.015625)"/>
      <use xlink:href="#DejaVuSans-64" transform="translate(68.408203 0.015625)"/>
      <use xlink:href="#DejaVuSans-61" transform="translate(131.884766 0.015625)"/>
      <use xlink:href="#DejaVuSans-6d" transform="translate(193.164062 0.015625)"/>
      <use xlink:href="#DejaVuSans-20" transform="translate(290.576172 0.015625)"/>
      <use xlink:href="#DejaVuSans-Oblique-3bd" transform="translate(322.363281 0.015625)"/>
     </g>
    </g>
   </g>
  </g>
 </g>
 <defs>
  <clipPath id="pe40ca5e493">
   <rect x="54" y="38.88" width="334.8" height="249.48"/>
  </clipPath>
 </defs>
</svg>
