<?xml version="1.0" encoding="utf-8" standalone="no"?>
<!DOCTYPE svg PUBLIC "-//W3C//DTD SVG 1.1//EN"
  "http://www.w3.org/Graphics/SVG/1.1/DTD/svg11.dtd">
<svg xmlns:xlink="http://www.w3.org/1999/xlink" width="576pt" height="432pt" viewBox="0 0 576 432" xmlns="http://www.w3.org/2000/svg" version="1.1">
 <metadata>
  <rdf:RDF xmlns:dc="http://purl.org/dc/elements/1.1/" xmlns:cc="http://creativecommons.org/ns#" xmlns:rdf="http://www.w3.org/1999/02/22-rdf-syntax-ns#">
   <cc:Work>
    <dc:type rdf:resource="http://purl.org/dc/dcmitype/StillImage"/>
    <dc:date>2025-01-29T19:28:11.443880</dc:date>
    <dc:format>image/svg+xml</dc:format>
    <dc:creator>
     <cc:Agent>
      <dc:title>Matplotlib v3.10.0, https://matplotlib.org/</dc:title>
     </cc:Agent>
    </dc:creator>
   </cc:Work>
  </rdf:RDF>
 </metadata>
 <defs>
  <style type="text/css">*{stroke-linejoin: round; stroke-linecap: butt}</style>
 </defs>
 <g id="figure_1">
  <g id="patch_1">
   <path d="M 0 432 
L 576 432 
L 576 0 
L 0 0 
z
" style="fill: #ffffff"/>
  </g>
  <g id="axes_1">
   <g id="patch_2">
    <path d="M 72 384.48 
L 518.4 384.48 
L 518.4 51.84 
L 72 51.84 
z
" style="fill: #ffffff"/>
   </g>
   <g id="patch_3">
    <path d="M 92.290909 384.48 
L 92.290909 383.474286 
L 95.039739 383.474286 
L 95.039739 383.474286 
L 97.788469 383.474286 
L 97.788469 384.48 
L 100.537299 384.48 
L 100.537299 383.474286 
L 103.286129 383.474286 
L 103.286129 383.474286 
L 106.034909 383.474286 
L 106.034909 384.48 
L 108.783689 384.48 
L 108.783689 384.48 
L 111.532519 384.48 
L 111.532519 382.468571 
L 114.281248 382.468571 
L 114.281248 381.462857 
L 117.030078 381.462857 
L 117.030078 383.474286 
L 119.778959 383.474286 
L 119.778959 383.474286 
L 122.527688 383.474286 
L 122.527688 382.468571 
L 125.276519 382.468571 
L 125.276519 377.44 
L 128.025298 377.44 
L 128.025298 377.44 
L 130.774078 377.44 
L 130.774078 375.428571 
L 133.522858 375.428571 
L 133.522858 380.457143 
L 136.271688 380.457143 
L 136.271688 376.434286 
L 139.020468 376.434286 
L 139.020468 377.44 
L 141.769298 377.44 
L 141.769298 373.417142 
L 144.518078 373.417142 
L 144.518078 374.422857 
L 147.266858 374.422857 
L 147.266858 371.405714 
L 150.015688 371.405714 
L 150.015688 362.354285 
L 152.764468 362.354285 
L 152.764468 367.382857 
L 155.513298 367.382857 
L 155.513298 362.354285 
L 158.262078 362.354285 
L 158.262078 362.354285 
L 161.010908 362.354285 
L 161.010908 360.342856 
L 163.759688 360.342856 
L 163.759688 345.257143 
L 166.508467 345.257143 
L 166.508467 354.308571 
L 169.257247 354.308571 
L 169.257247 346.262857 
L 172.006027 346.262857 
L 172.006027 328.159999 
L 174.754857 328.159999 
L 174.754857 327.154284 
L 177.503637 327.154284 
L 177.503637 324.137142 
L 180.252467 324.137142 
L 180.252467 308.045714 
L 183.001247 308.045714 
L 183.001247 304.022852 
L 185.750077 304.022852 
L 185.750077 288.937139 
L 188.498857 288.937139 
L 188.498857 275.862854 
L 191.247687 275.862854 
L 191.247687 270.834283 
L 193.996417 270.834283 
L 193.996417 262.788569 
L 196.745247 262.788569 
L 196.745247 266.811426 
L 199.494077 266.811426 
L 199.494077 212.502849 
L 202.242857 212.502849 
L 202.242857 220.548562 
L 204.991637 220.548562 
L 204.991637 212.502849 
L 207.740416 212.502849 
L 207.740416 195.405707 
L 210.489196 195.405707 
L 210.489196 153.165709 
L 213.238026 153.165709 
L 213.238026 227.588571 
L 215.986856 227.588571 
L 215.986856 166.239994 
L 218.735636 166.239994 
L 218.735636 129.028568 
L 221.484466 129.028568 
L 221.484466 161.211423 
L 224.233246 161.211423 
L 224.233246 116.959997 
L 226.982076 116.959997 
L 226.982076 160.205709 
L 229.730806 160.205709 
L 229.730806 92.822856 
L 232.479636 92.822856 
L 232.479636 105.897141 
L 235.228466 105.897141 
L 235.228466 154.171423 
L 237.977196 154.171423 
L 237.977196 97.851427 
L 240.726026 97.851427 
L 240.726026 67.68 
L 243.474856 67.68 
L 243.474856 70.697143 
L 246.223636 70.697143 
L 246.223636 138.079996 
L 248.972416 138.079996 
L 248.972416 137.074282 
L 251.721246 137.074282 
L 251.721246 101.874284 
L 254.469975 101.874284 
L 254.469975 110.925712 
L 257.218805 110.925712 
L 257.218805 75.725714 
L 259.967636 75.725714 
L 259.967636 126.011425 
L 262.716466 126.011425 
L 262.716466 135.062853 
L 265.465195 135.062853 
L 265.465195 115.954283 
L 268.214025 115.954283 
L 268.214025 143.108567 
L 270.962805 143.108567 
L 270.962805 153.165709 
L 273.711585 153.165709 
L 273.711585 142.102853 
L 276.460415 142.102853 
L 276.460415 209.485706 
L 279.209245 209.485706 
L 279.209245 175.291422 
L 281.958025 175.291422 
L 281.958025 199.428564 
L 284.706805 199.428564 
L 284.706805 206.468563 
L 287.455635 206.468563 
L 287.455635 227.588571 
L 290.204365 227.588571 
L 290.204365 241.66857 
L 292.953195 241.66857 
L 292.953195 263.794283 
L 295.702025 263.794283 
L 295.702025 262.788569 
L 298.450805 262.788569 
L 298.450805 274.85714 
L 301.199584 274.85714 
L 301.199584 287.931425 
L 303.948364 287.931425 
L 303.948364 296.982853 
L 306.697194 296.982853 
L 306.697194 315.085714 
L 309.445974 315.085714 
L 309.445974 323.131428 
L 312.194804 323.131428 
L 312.194804 318.102856 
L 314.943634 318.102856 
L 314.943634 342.239998 
L 317.692414 342.239998 
L 317.692414 341.234284 
L 320.441194 341.234284 
L 320.441194 353.302857 
L 323.189974 353.302857 
L 323.189974 353.302857 
L 325.938754 353.302857 
L 325.938754 357.325714 
L 328.687534 357.325714 
L 328.687534 372.411428 
L 331.436414 372.411428 
L 331.436414 369.394285 
L 334.185194 369.394285 
L 334.185194 375.428571 
L 336.933974 375.428571 
L 336.933974 377.44 
L 339.682804 377.44 
L 339.682804 380.457143 
L 342.431584 380.457143 
L 342.431584 376.434286 
L 345.180363 376.434286 
L 345.180363 380.457143 
L 347.929194 380.457143 
L 347.929194 382.468571 
L 350.677973 382.468571 
L 350.677973 381.462857 
L 353.426753 381.462857 
L 353.426753 383.474286 
L 356.175533 383.474286 
L 356.175533 384.48 
L 358.924363 384.48 
L 358.924363 384.48 
L 361.673143 384.48 
L 361.673143 383.474286 
L 364.421923 383.474286 
L 364.421923 383.474286 
L 367.170753 383.474286 
L 367.170753 384.48 
" clip-path="url(#p3fc14a3694)" style="fill: #1f77b4; opacity: 0.5"/>
   </g>
   <g id="patch_4">
    <path d="M 115.739984 384.48 
L 115.739984 382.5 
L 120.499075 382.5 
L 120.499075 382.5 
L 125.258166 382.5 
L 125.258166 380.52 
L 130.017358 380.52 
L 130.017358 382.5 
L 134.7765 382.5 
L 134.7765 376.56 
L 139.535591 376.56 
L 139.535591 376.56 
L 144.294682 376.56 
L 144.294682 378.54 
L 149.053773 378.54 
L 149.053773 376.56 
L 153.812915 376.56 
L 153.812915 372.6 
L 158.572107 372.6 
L 158.572107 360.719999 
L 163.331198 360.719999 
L 163.331198 360.719999 
L 168.090289 360.719999 
L 168.090289 346.86 
L 172.84938 346.86 
L 172.84938 325.08 
L 177.608522 325.08 
L 177.608522 327.059998 
L 182.367664 327.059998 
L 182.367664 303.300002 
L 187.126805 303.300002 
L 187.126805 323.099997 
L 191.885896 323.099997 
L 191.885896 287.459998 
L 196.644988 287.459998 
L 196.644988 295.38 
L 201.404129 295.38 
L 201.404129 241.919994 
L 206.163271 241.919994 
L 206.163271 255.78 
L 210.922412 255.78 
L 210.922412 220.139996 
L 215.681504 220.139996 
L 215.681504 204.299992 
L 220.440595 204.299992 
L 220.440595 144.899992 
L 225.199736 144.899992 
L 225.199736 123.120004 
L 229.958828 123.120004 
L 229.958828 131.039996 
L 234.717969 131.039996 
L 234.717969 75.599992 
L 239.477111 75.599992 
L 239.477111 71.639996 
L 244.236202 71.639996 
L 244.236202 105.299992 
L 248.995293 105.299992 
L 248.995293 97.38 
L 253.754435 97.38 
L 253.754435 67.68 
L 258.513576 67.68 
L 258.513576 103.320004 
L 263.272668 103.320004 
L 263.272668 107.28 
L 268.031809 107.28 
L 268.031809 97.38 
L 272.7909 97.38 
L 272.7909 91.439996 
L 277.550042 91.439996 
L 277.550042 202.320004 
L 282.309183 202.320004 
L 282.309183 168.659989 
L 287.068275 168.659989 
L 287.068275 194.399992 
L 291.827416 194.399992 
L 291.827416 224.099992 
L 296.586507 224.099992 
L 296.586507 245.88 
L 301.345649 245.88 
L 301.345649 291.419994 
L 306.104791 291.419994 
L 306.104791 311.219999 
L 310.863882 311.219999 
L 310.863882 327.059998 
L 315.623023 327.059998 
L 315.623023 321.119999 
L 320.382115 321.119999 
L 320.382115 327.059998 
L 325.141206 327.059998 
L 325.141206 356.76 
L 329.900347 356.76 
L 329.900347 354.78 
L 334.659489 354.78 
L 334.659489 370.62 
L 339.418631 370.62 
L 339.418631 372.6 
L 344.177722 372.6 
L 344.177722 372.6 
L 348.936813 372.6 
L 348.936813 380.52 
L 353.695955 380.52 
L 353.695955 378.54 
L 358.455096 378.54 
L 358.455096 384.48 
L 363.214238 384.48 
L 363.214238 382.5 
L 367.973329 382.5 
L 367.973329 378.54 
L 372.73242 378.54 
L 372.73242 384.48 
" clip-path="url(#p3fc14a3694)" style="fill: #ff7f0e; opacity: 0.5"/>
   </g>
   <g id="patch_5">
    <path d="M 278.598288 384.48 
L 278.598288 382.83 
L 282.663308 382.83 
L 282.663308 384.48 
L 286.728329 384.48 
L 286.728329 381.18 
L 290.793349 381.18 
L 290.793349 382.83 
L 294.85837 382.83 
L 294.85837 384.48 
L 298.92334 384.48 
L 298.92334 382.83 
L 302.98836 382.83 
L 302.98836 379.53 
L 307.053381 379.53 
L 307.053381 376.23 
L 311.118401 376.23 
L 311.118401 377.88 
L 315.183422 377.88 
L 315.183422 371.28 
L 319.248442 371.28 
L 319.248442 371.28 
L 323.313463 371.28 
L 323.313463 358.079999 
L 327.378483 358.079999 
L 327.378483 343.229997 
L 331.443504 343.229997 
L 331.443504 341.579998 
L 335.508474 341.579998 
L 335.508474 316.829998 
L 339.573494 316.829998 
L 339.573494 311.879998 
L 343.638515 311.879998 
L 343.638515 325.08 
L 347.703535 325.08 
L 347.703535 283.829997 
L 351.768556 283.829997 
L 351.768556 267.329994 
L 355.833526 267.329994 
L 355.833526 259.079997 
L 359.898596 259.079997 
L 359.898596 211.23 
L 363.963617 211.23 
L 363.963617 184.829987 
L 368.028587 184.829987 
L 368.028587 188.129994 
L 372.093658 188.129994 
L 372.093658 174.929987 
L 376.158628 174.929987 
L 376.158628 103.979994 
L 380.223674 103.979994 
L 380.223674 100.679987 
L 384.288669 100.679987 
L 384.288669 82.53 
L 388.353689 82.53 
L 388.353689 67.68 
L 392.41871 67.68 
L 392.41871 69.329994 
L 396.483705 69.329994 
L 396.483705 107.28 
L 400.548751 107.28 
L 400.548751 113.879994 
L 404.613746 113.879994 
L 404.613746 178.229994 
L 408.678767 178.229994 
L 408.678767 165.029987 
L 412.743762 165.029987 
L 412.743762 217.829994 
L 416.808782 217.829994 
L 416.808782 231.03 
L 420.873803 231.03 
L 420.873803 209.579987 
L 424.938823 209.579987 
L 424.938823 265.68 
L 429.003844 265.68 
L 429.003844 280.53 
L 433.068839 280.53 
L 433.068839 292.079994 
L 437.133834 292.079994 
L 437.133834 333.329997 
L 441.198905 333.329997 
L 441.198905 336.629998 
L 445.2639 336.629998 
L 445.2639 353.129999 
L 449.328896 353.129999 
L 449.328896 367.979999 
L 453.393916 367.979999 
L 453.393916 367.979999 
L 457.458937 367.979999 
L 457.458937 376.23 
L 461.523932 376.23 
L 461.523932 381.18 
L 465.588978 381.18 
L 465.588978 381.18 
L 469.653973 381.18 
L 469.653973 384.48 
L 473.719018 384.48 
L 473.719018 382.83 
L 477.784014 382.83 
L 477.784014 384.48 
L 481.849034 384.48 
L 481.849034 384.48 
L 485.91408 384.48 
L 485.91408 384.48 
L 489.979075 384.48 
L 489.979075 384.48 
L 494.04407 384.48 
L 494.04407 382.83 
L 498.109091 382.83 
L 498.109091 384.48 
" clip-path="url(#p3fc14a3694)" style="fill: #2ca02c; opacity: 0.5"/>
   </g>
   <g id="patch_6">
    <path d="M 283.924643 384.48 
L 283.924643 381.462857 
L 287.873817 381.462857 
L 287.873817 384.48 
L 291.822941 384.48 
L 291.822941 382.971429 
L 295.772166 382.971429 
L 295.772166 382.971429 
L 299.72129 382.971429 
L 299.72129 382.971429 
L 303.670464 382.971429 
L 303.670464 379.954285 
L 307.619639 379.954285 
L 307.619639 378.445714 
L 311.568763 378.445714 
L 311.568763 379.954285 
L 315.517937 379.954285 
L 315.517937 381.462857 
L 319.467162 381.462857 
L 319.467162 370.902857 
L 323.416286 370.902857 
L 323.416286 366.377142 
L 327.36541 366.377142 
L 327.36541 351.291428 
L 331.314585 351.291428 
L 331.314585 358.834285 
L 335.263759 358.834285 
L 335.263759 333.18857 
L 339.212883 333.18857 
L 339.212883 334.697141 
L 343.162108 334.697141 
L 343.162108 284.914282 
L 347.111232 284.914282 
L 347.111232 319.611428 
L 351.060406 319.611428 
L 351.060406 309.051424 
L 355.009581 309.051424 
L 355.009581 268.319997 
L 358.958705 268.319997 
L 358.958705 281.89714 
L 362.907879 281.89714 
L 362.907879 241.165713 
L 366.857054 241.165713 
L 366.857054 215.519991 
L 370.806203 215.519991 
L 370.806203 194.399992 
L 374.755402 194.399992 
L 374.755402 170.262851 
L 378.704526 170.262851 
L 378.704526 161.211423 
L 382.653726 161.211423 
L 382.653726 131.039996 
L 386.602875 131.039996 
L 386.602875 121.988568 
L 390.55205 121.988568 
L 390.55205 120.479987 
L 394.501174 120.479987 
L 394.501174 67.68 
L 398.450348 67.68 
L 398.450348 144.617129 
L 402.399522 144.617129 
L 402.399522 168.75427 
L 406.348697 168.75427 
L 406.348697 146.12571 
L 410.297846 146.12571 
L 410.297846 177.805698 
L 414.246995 177.805698 
L 414.246995 229.097133 
L 418.19617 229.097133 
L 418.19617 239.657133 
L 422.145344 239.657133 
L 422.145344 239.657133 
L 426.094519 239.657133 
L 426.094519 259.268569 
L 430.043643 259.268569 
L 430.043643 293.96571 
L 433.992817 293.96571 
L 433.992817 310.559995 
L 437.941991 310.559995 
L 437.941991 322.62857 
L 441.891166 322.62857 
L 441.891166 349.782857 
L 445.84034 349.782857 
L 445.84034 361.851428 
L 449.789464 361.851428 
L 449.789464 354.308571 
L 453.738639 354.308571 
L 453.738639 372.411428 
L 457.687788 372.411428 
L 457.687788 381.462857 
L 461.636962 381.462857 
L 461.636962 381.462857 
L 465.586137 381.462857 
L 465.586137 378.445714 
L 469.535286 378.445714 
L 469.535286 381.462857 
L 473.484435 381.462857 
L 473.484435 384.48 
L 477.433584 384.48 
L 477.433584 384.48 
L 481.382759 384.48 
L 481.382759 384.48 
L 485.331958 384.48 
L 485.331958 384.48 
L 489.281108 384.48 
L 489.281108 384.48 
L 493.230257 384.48 
L 493.230257 382.971429 
L 497.179431 382.971429 
L 497.179431 384.48 
" clip-path="url(#p3fc14a3694)" style="fill: #d62728; opacity: 0.5"/>
   </g>
   <g id="patch_7">
    <path d="M 199.052816 384.48 
L 199.052816 382.758261 
L 203.657848 382.758261 
L 203.657848 384.48 
L 208.26283 384.48 
L 208.26283 384.48 
L 212.867912 384.48 
L 212.867912 384.48 
L 217.472944 384.48 
L 217.472944 384.48 
L 222.077926 384.48 
L 222.077926 384.48 
L 226.682958 384.48 
L 226.682958 382.758261 
L 231.28799 382.758261 
L 231.28799 381.036522 
L 235.893022 381.036522 
L 235.893022 375.871304 
L 240.498054 375.871304 
L 240.498054 381.036522 
L 245.103087 381.036522 
L 245.103087 377.593043 
L 249.708068 377.593043 
L 249.708068 363.819131 
L 254.3131 363.819131 
L 254.3131 377.593043 
L 258.918132 377.593043 
L 258.918132 358.653912 
L 263.523165 358.653912 
L 263.523165 355.210435 
L 268.128197 355.210435 
L 268.128197 353.488696 
L 272.733178 353.488696 
L 272.733178 351.766955 
L 277.338211 351.766955 
L 277.338211 348.323477 
L 281.943293 348.323477 
L 281.943293 331.106086 
L 286.548275 331.106086 
L 286.548275 296.671306 
L 291.153307 296.671306 
L 291.153307 288.062603 
L 295.758339 288.062603 
L 295.758339 279.45391 
L 300.363321 279.45391 
L 300.363321 272.566955 
L 304.968403 272.566955 
L 304.968403 257.071306 
L 309.573385 257.071306 
L 309.573385 207.140865 
L 314.178417 207.140865 
L 314.178417 162.375639 
L 318.783449 162.375639 
L 318.783449 174.42782 
L 323.388481 174.42782 
L 323.388481 157.210432 
L 327.993463 157.210432 
L 327.993463 146.88 
L 332.598495 146.88 
L 332.598495 133.10609 
L 337.203577 133.10609 
L 337.203577 117.610432 
L 341.808559 117.610432 
L 341.808559 109.001729 
L 346.413591 109.001729 
L 346.413591 88.340865 
L 351.018623 88.340865 
L 351.018623 84.897387 
L 355.623605 84.897387 
L 355.623605 67.68 
L 360.228687 67.68 
L 360.228687 119.332162 
L 364.833669 119.332162 
L 364.833669 134.82782 
L 369.438701 134.82782 
L 369.438701 181.314774 
L 374.043733 181.314774 
L 374.043733 210.584342 
L 378.64874 210.584342 
L 378.64874 241.575648 
L 383.253798 241.575648 
L 383.253798 258.793045 
L 387.85883 258.793045 
L 387.85883 276.010432 
L 392.463837 276.010432 
L 392.463837 289.784342 
L 397.068843 289.784342 
L 397.068843 319.05391 
L 401.673876 319.05391 
L 401.673876 329.384347 
L 406.278882 329.384347 
L 406.278882 356.932173 
L 410.88394 356.932173 
L 410.88394 355.210435 
L 415.488972 355.210435 
L 415.488972 358.653912 
L 420.093979 358.653912 
L 420.093979 372.427825 
L 424.698986 372.427825 
L 424.698986 375.871304 
L 429.304018 375.871304 
L 429.304018 382.758261 
L 433.909075 382.758261 
L 433.909075 384.48 
L 438.514082 384.48 
L 438.514082 382.758261 
L 443.119114 382.758261 
L 443.119114 381.036522 
L 447.724121 381.036522 
L 447.724121 384.48 
" clip-path="url(#p3fc14a3694)" style="fill: #9467bd; opacity: 0.5"/>
   </g>
   <g id="patch_8">
    <path d="M 272.547191 384.48 
L 272.547191 382.65931 
L 276.357139 382.65931 
L 276.357139 382.65931 
L 280.167188 382.65931 
L 280.167188 384.48 
L 283.977186 384.48 
L 283.977186 382.65931 
L 287.787184 382.65931 
L 287.787184 384.48 
L 291.597182 384.48 
L 291.597182 382.65931 
L 295.40718 382.65931 
L 295.40718 379.017931 
L 299.217128 379.017931 
L 299.217128 379.017931 
L 303.027177 379.017931 
L 303.027177 373.555862 
L 306.837175 373.555862 
L 306.837175 364.452413 
L 310.647173 364.452413 
L 310.647173 358.990344 
L 314.457171 358.990344 
L 314.457171 358.990344 
L 318.26717 358.990344 
L 318.26717 348.066207 
L 322.077168 348.066207 
L 322.077168 329.859309 
L 325.887166 329.859309 
L 325.887166 337.14207 
L 329.697164 337.14207 
L 329.697164 315.293792 
L 333.507163 315.293792 
L 333.507163 300.728275 
L 337.31711 300.728275 
L 337.31711 287.983447 
L 341.127159 287.983447 
L 341.127159 295.266203 
L 344.937107 295.266203 
L 344.937107 275.238619 
L 348.747155 275.238619 
L 348.747155 275.238619 
L 352.557154 275.238619 
L 352.557154 206.052406 
L 356.367152 206.052406 
L 356.367152 222.438612 
L 360.17715 222.438612 
L 360.17715 175.100687 
L 363.987098 175.100687 
L 363.987098 136.866213 
L 367.797096 136.866213 
L 367.797096 127.762763 
L 371.607119 127.762763 
L 371.607119 109.555863 
L 375.417118 109.555863 
L 375.417118 87.707594 
L 379.227116 87.707594 
L 379.227116 116.838619 
L 383.037089 116.838619 
L 383.037089 82.245512 
L 386.847137 82.245512 
L 386.847137 67.68 
L 390.657085 67.68 
L 390.657085 105.914475 
L 394.467084 105.914475 
L 394.467084 151.431725 
L 398.277082 151.431725 
L 398.277082 100.452412 
L 402.08708 100.452412 
L 402.08708 111.376556 
L 405.897128 111.376556 
L 405.897128 180.56275 
L 409.707076 180.56275 
L 409.707076 209.693794 
L 413.517075 209.693794 
L 413.517075 218.797244 
L 417.327073 218.797244 
L 417.327073 277.059313 
L 421.137071 277.059313 
L 421.137071 280.700691 
L 424.947094 280.700691 
L 424.947094 306.190347 
L 428.757093 306.190347 
L 428.757093 308.011036 
L 432.567091 308.011036 
L 432.567091 328.03862 
L 436.377064 328.03862 
L 436.377064 349.886896 
L 440.187062 349.886896 
L 440.187062 360.811035 
L 443.997035 360.811035 
L 443.997035 355.348966 
L 447.807058 355.348966 
L 447.807058 371.735172 
L 451.617057 371.735172 
L 451.617057 375.376552 
L 455.427055 375.376552 
L 455.427055 382.65931 
L 459.237053 382.65931 
L 459.237053 380.838621 
L 463.047051 380.838621 
L 463.047051 382.65931 
L 466.857075 382.65931 
L 466.857075 384.48 
L 470.667048 384.48 
L 470.667048 384.48 
L 474.477046 384.48 
L 474.477046 382.65931 
L 478.287044 382.65931 
L 478.287044 384.48 
" clip-path="url(#p3fc14a3694)" style="fill: #8c564b; opacity: 0.5"/>
   </g>
   <g id="matplotlib.axis_1">
    <g id="xtick_1">
     <g id="line2d_1">
      <defs>
       <path id="m81ab97a0de" d="M 0 0 
L 0 3.5 
" style="stroke: #000000; stroke-width: 0.8"/>
      </defs>
      <g>
       <use xlink:href="#m81ab97a0de" x="122.950999" y="384.48" style="stroke: #000000; stroke-width: 0.8"/>
      </g>
     </g>
     <g id="text_1">
      <!-- −6500 -->
      <g transform="translate(106.036155 399.078438) scale(0.1 -0.1)">
       <defs>
        <path id="DejaVuSans-2212" d="M 678 2272 
L 4684 2272 
L 4684 1741 
L 678 1741 
L 678 2272 
z
" transform="scale(0.015625)"/>
        <path id="DejaVuSans-36" d="M 2113 2584 
Q 1688 2584 1439 2293 
Q 1191 2003 1191 1497 
Q 1191 994 1439 701 
Q 1688 409 2113 409 
Q 2538 409 2786 701 
Q 3034 994 3034 1497 
Q 3034 2003 2786 2293 
Q 2538 2584 2113 2584 
z
M 3366 4563 
L 3366 3988 
Q 3128 4100 2886 4159 
Q 2644 4219 2406 4219 
Q 1781 4219 1451 3797 
Q 1122 3375 1075 2522 
Q 1259 2794 1537 2939 
Q 1816 3084 2150 3084 
Q 2853 3084 3261 2657 
Q 3669 2231 3669 1497 
Q 3669 778 3244 343 
Q 2819 -91 2113 -91 
Q 1303 -91 875 529 
Q 447 1150 447 2328 
Q 447 3434 972 4092 
Q 1497 4750 2381 4750 
Q 2619 4750 2861 4703 
Q 3103 4656 3366 4563 
z
" transform="scale(0.015625)"/>
        <path id="DejaVuSans-35" d="M 691 4666 
L 3169 4666 
L 3169 4134 
L 1269 4134 
L 1269 2991 
Q 1406 3038 1543 3061 
Q 1681 3084 1819 3084 
Q 2600 3084 3056 2656 
Q 3513 2228 3513 1497 
Q 3513 744 3044 326 
Q 2575 -91 1722 -91 
Q 1428 -91 1123 -41 
Q 819 9 494 109 
L 494 744 
Q 775 591 1075 516 
Q 1375 441 1709 441 
Q 2250 441 2565 725 
Q 2881 1009 2881 1497 
Q 2881 1984 2565 2268 
Q 2250 2553 1709 2553 
Q 1456 2553 1204 2497 
Q 953 2441 691 2322 
L 691 4666 
z
" transform="scale(0.015625)"/>
        <path id="DejaVuSans-30" d="M 2034 4250 
Q 1547 4250 1301 3770 
Q 1056 3291 1056 2328 
Q 1056 1369 1301 889 
Q 1547 409 2034 409 
Q 2525 409 2770 889 
Q 3016 1369 3016 2328 
Q 3016 3291 2770 3770 
Q 2525 4250 2034 4250 
z
M 2034 4750 
Q 2819 4750 3233 4129 
Q 3647 3509 3647 2328 
Q 3647 1150 3233 529 
Q 2819 -91 2034 -91 
Q 1250 -91 836 529 
Q 422 1150 422 2328 
Q 422 3509 836 4129 
Q 1250 4750 2034 4750 
z
" transform="scale(0.015625)"/>
       </defs>
       <use xlink:href="#DejaVuSans-2212"/>
       <use xlink:href="#DejaVuSans-36" transform="translate(83.789062 0)"/>
       <use xlink:href="#DejaVuSans-35" transform="translate(147.412109 0)"/>
       <use xlink:href="#DejaVuSans-30" transform="translate(211.035156 0)"/>
       <use xlink:href="#DejaVuSans-30" transform="translate(274.658203 0)"/>
      </g>
     </g>
    </g>
    <g id="xtick_2">
     <g id="line2d_2">
      <g>
       <use xlink:href="#m81ab97a0de" x="174.438141" y="384.48" style="stroke: #000000; stroke-width: 0.8"/>
      </g>
     </g>
     <g id="text_2">
      <!-- −6000 -->
      <g transform="translate(157.523297 399.078438) scale(0.1 -0.1)">
       <use xlink:href="#DejaVuSans-2212"/>
       <use xlink:href="#DejaVuSans-36" transform="translate(83.789062 0)"/>
       <use xlink:href="#DejaVuSans-30" transform="translate(147.412109 0)"/>
       <use xlink:href="#DejaVuSans-30" transform="translate(211.035156 0)"/>
       <use xlink:href="#DejaVuSans-30" transform="translate(274.658203 0)"/>
      </g>
     </g>
    </g>
    <g id="xtick_3">
     <g id="line2d_3">
      <g>
       <use xlink:href="#m81ab97a0de" x="225.925283" y="384.48" style="stroke: #000000; stroke-width: 0.8"/>
      </g>
     </g>
     <g id="text_3">
      <!-- −5500 -->
      <g transform="translate(209.010439 399.078438) scale(0.1 -0.1)">
       <use xlink:href="#DejaVuSans-2212"/>
       <use xlink:href="#DejaVuSans-35" transform="translate(83.789062 0)"/>
       <use xlink:href="#DejaVuSans-35" transform="translate(147.412109 0)"/>
       <use xlink:href="#DejaVuSans-30" transform="translate(211.035156 0)"/>
       <use xlink:href="#DejaVuSans-30" transform="translate(274.658203 0)"/>
      </g>
     </g>
    </g>
    <g id="xtick_4">
     <g id="line2d_4">
      <g>
       <use xlink:href="#m81ab97a0de" x="277.412424" y="384.48" style="stroke: #000000; stroke-width: 0.8"/>
      </g>
     </g>
     <g id="text_4">
      <!-- −5000 -->
      <g transform="translate(260.497581 399.078438) scale(0.1 -0.1)">
       <use xlink:href="#DejaVuSans-2212"/>
       <use xlink:href="#DejaVuSans-35" transform="translate(83.789062 0)"/>
       <use xlink:href="#DejaVuSans-30" transform="translate(147.412109 0)"/>
       <use xlink:href="#DejaVuSans-30" transform="translate(211.035156 0)"/>
       <use xlink:href="#DejaVuSans-30" transform="translate(274.658203 0)"/>
      </g>
     </g>
    </g>
    <g id="xtick_5">
     <g id="line2d_5">
      <g>
       <use xlink:href="#m81ab97a0de" x="328.899566" y="384.48" style="stroke: #000000; stroke-width: 0.8"/>
      </g>
     </g>
     <g id="text_5">
      <!-- −4500 -->
      <g transform="translate(311.984722 399.078438) scale(0.1 -0.1)">
       <defs>
        <path id="DejaVuSans-34" d="M 2419 4116 
L 825 1625 
L 2419 1625 
L 2419 4116 
z
M 2253 4666 
L 3047 4666 
L 3047 1625 
L 3713 1625 
L 3713 1100 
L 3047 1100 
L 3047 0 
L 2419 0 
L 2419 1100 
L 313 1100 
L 313 1709 
L 2253 4666 
z
" transform="scale(0.015625)"/>
       </defs>
       <use xlink:href="#DejaVuSans-2212"/>
       <use xlink:href="#DejaVuSans-34" transform="translate(83.789062 0)"/>
       <use xlink:href="#DejaVuSans-35" transform="translate(147.412109 0)"/>
       <use xlink:href="#DejaVuSans-30" transform="translate(211.035156 0)"/>
       <use xlink:href="#DejaVuSans-30" transform="translate(274.658203 0)"/>
      </g>
     </g>
    </g>
    <g id="xtick_6">
     <g id="line2d_6">
      <g>
       <use xlink:href="#m81ab97a0de" x="380.386708" y="384.48" style="stroke: #000000; stroke-width: 0.8"/>
      </g>
     </g>
     <g id="text_6">
      <!-- −4000 -->
      <g transform="translate(363.471864 399.078438) scale(0.1 -0.1)">
       <use xlink:href="#DejaVuSans-2212"/>
       <use xlink:href="#DejaVuSans-34" transform="translate(83.789062 0)"/>
       <use xlink:href="#DejaVuSans-30" transform="translate(147.412109 0)"/>
       <use xlink:href="#DejaVuSans-30" transform="translate(211.035156 0)"/>
       <use xlink:href="#DejaVuSans-30" transform="translate(274.658203 0)"/>
      </g>
     </g>
    </g>
    <g id="xtick_7">
     <g id="line2d_7">
      <g>
       <use xlink:href="#m81ab97a0de" x="431.87385" y="384.48" style="stroke: #000000; stroke-width: 0.8"/>
      </g>
     </g>
     <g id="text_7">
      <!-- −3500 -->
      <g transform="translate(414.959006 399.078438) scale(0.1 -0.1)">
       <defs>
        <path id="DejaVuSans-33" d="M 2597 2516 
Q 3050 2419 3304 2112 
Q 3559 1806 3559 1356 
Q 3559 666 3084 287 
Q 2609 -91 1734 -91 
Q 1441 -91 1130 -33 
Q 819 25 488 141 
L 488 750 
Q 750 597 1062 519 
Q 1375 441 1716 441 
Q 2309 441 2620 675 
Q 2931 909 2931 1356 
Q 2931 1769 2642 2001 
Q 2353 2234 1838 2234 
L 1294 2234 
L 1294 2753 
L 1863 2753 
Q 2328 2753 2575 2939 
Q 2822 3125 2822 3475 
Q 2822 3834 2567 4026 
Q 2313 4219 1838 4219 
Q 1578 4219 1281 4162 
Q 984 4106 628 3988 
L 628 4550 
Q 988 4650 1302 4700 
Q 1616 4750 1894 4750 
Q 2613 4750 3031 4423 
Q 3450 4097 3450 3541 
Q 3450 3153 3228 2886 
Q 3006 2619 2597 2516 
z
" transform="scale(0.015625)"/>
       </defs>
       <use xlink:href="#DejaVuSans-2212"/>
       <use xlink:href="#DejaVuSans-33" transform="translate(83.789062 0)"/>
       <use xlink:href="#DejaVuSans-35" transform="translate(147.412109 0)"/>
       <use xlink:href="#DejaVuSans-30" transform="translate(211.035156 0)"/>
       <use xlink:href="#DejaVuSans-30" transform="translate(274.658203 0)"/>
      </g>
     </g>
    </g>
    <g id="xtick_8">
     <g id="line2d_8">
      <g>
       <use xlink:href="#m81ab97a0de" x="483.360991" y="384.48" style="stroke: #000000; stroke-width: 0.8"/>
      </g>
     </g>
     <g id="text_8">
      <!-- −3000 -->
      <g transform="translate(466.446148 399.078438) scale(0.1 -0.1)">
       <use xlink:href="#DejaVuSans-2212"/>
       <use xlink:href="#DejaVuSans-33" transform="translate(83.789062 0)"/>
       <use xlink:href="#DejaVuSans-30" transform="translate(147.412109 0)"/>
       <use xlink:href="#DejaVuSans-30" transform="translate(211.035156 0)"/>
       <use xlink:href="#DejaVuSans-30" transform="translate(274.658203 0)"/>
      </g>
     </g>
    </g>
    <g id="text_9">
     <!-- log10 prob estimate -->
     <g transform="translate(244.684375 412.756563) scale(0.1 -0.1)">
      <defs>
       <path id="DejaVuSans-6c" d="M 603 4863 
L 1178 4863 
L 1178 0 
L 603 0 
L 603 4863 
z
" transform="scale(0.015625)"/>
       <path id="DejaVuSans-6f" d="M 1959 3097 
Q 1497 3097 1228 2736 
Q 959 2375 959 1747 
Q 959 1119 1226 758 
Q 1494 397 1959 397 
Q 2419 397 2687 759 
Q 2956 1122 2956 1747 
Q 2956 2369 2687 2733 
Q 2419 3097 1959 3097 
z
M 1959 3584 
Q 2709 3584 3137 3096 
Q 3566 2609 3566 1747 
Q 3566 888 3137 398 
Q 2709 -91 1959 -91 
Q 1206 -91 779 398 
Q 353 888 353 1747 
Q 353 2609 779 3096 
Q 1206 3584 1959 3584 
z
" transform="scale(0.015625)"/>
       <path id="DejaVuSans-67" d="M 2906 1791 
Q 2906 2416 2648 2759 
Q 2391 3103 1925 3103 
Q 1463 3103 1205 2759 
Q 947 2416 947 1791 
Q 947 1169 1205 825 
Q 1463 481 1925 481 
Q 2391 481 2648 825 
Q 2906 1169 2906 1791 
z
M 3481 434 
Q 3481 -459 3084 -895 
Q 2688 -1331 1869 -1331 
Q 1566 -1331 1297 -1286 
Q 1028 -1241 775 -1147 
L 775 -588 
Q 1028 -725 1275 -790 
Q 1522 -856 1778 -856 
Q 2344 -856 2625 -561 
Q 2906 -266 2906 331 
L 2906 616 
Q 2728 306 2450 153 
Q 2172 0 1784 0 
Q 1141 0 747 490 
Q 353 981 353 1791 
Q 353 2603 747 3093 
Q 1141 3584 1784 3584 
Q 2172 3584 2450 3431 
Q 2728 3278 2906 2969 
L 2906 3500 
L 3481 3500 
L 3481 434 
z
" transform="scale(0.015625)"/>
       <path id="DejaVuSans-31" d="M 794 531 
L 1825 531 
L 1825 4091 
L 703 3866 
L 703 4441 
L 1819 4666 
L 2450 4666 
L 2450 531 
L 3481 531 
L 3481 0 
L 794 0 
L 794 531 
z
" transform="scale(0.015625)"/>
       <path id="DejaVuSans-20" transform="scale(0.015625)"/>
       <path id="DejaVuSans-70" d="M 1159 525 
L 1159 -1331 
L 581 -1331 
L 581 3500 
L 1159 3500 
L 1159 2969 
Q 1341 3281 1617 3432 
Q 1894 3584 2278 3584 
Q 2916 3584 3314 3078 
Q 3713 2572 3713 1747 
Q 3713 922 3314 415 
Q 2916 -91 2278 -91 
Q 1894 -91 1617 61 
Q 1341 213 1159 525 
z
M 3116 1747 
Q 3116 2381 2855 2742 
Q 2594 3103 2138 3103 
Q 1681 3103 1420 2742 
Q 1159 2381 1159 1747 
Q 1159 1113 1420 752 
Q 1681 391 2138 391 
Q 2594 391 2855 752 
Q 3116 1113 3116 1747 
z
" transform="scale(0.015625)"/>
       <path id="DejaVuSans-72" d="M 2631 2963 
Q 2534 3019 2420 3045 
Q 2306 3072 2169 3072 
Q 1681 3072 1420 2755 
Q 1159 2438 1159 1844 
L 1159 0 
L 581 0 
L 581 3500 
L 1159 3500 
L 1159 2956 
Q 1341 3275 1631 3429 
Q 1922 3584 2338 3584 
Q 2397 3584 2469 3576 
Q 2541 3569 2628 3553 
L 2631 2963 
z
" transform="scale(0.015625)"/>
       <path id="DejaVuSans-62" d="M 3116 1747 
Q 3116 2381 2855 2742 
Q 2594 3103 2138 3103 
Q 1681 3103 1420 2742 
Q 1159 2381 1159 1747 
Q 1159 1113 1420 752 
Q 1681 391 2138 391 
Q 2594 391 2855 752 
Q 3116 1113 3116 1747 
z
M 1159 2969 
Q 1341 3281 1617 3432 
Q 1894 3584 2278 3584 
Q 2916 3584 3314 3078 
Q 3713 2572 3713 1747 
Q 3713 922 3314 415 
Q 2916 -91 2278 -91 
Q 1894 -91 1617 61 
Q 1341 213 1159 525 
L 1159 0 
L 581 0 
L 581 4863 
L 1159 4863 
L 1159 2969 
z
" transform="scale(0.015625)"/>
       <path id="DejaVuSans-65" d="M 3597 1894 
L 3597 1613 
L 953 1613 
Q 991 1019 1311 708 
Q 1631 397 2203 397 
Q 2534 397 2845 478 
Q 3156 559 3463 722 
L 3463 178 
Q 3153 47 2828 -22 
Q 2503 -91 2169 -91 
Q 1331 -91 842 396 
Q 353 884 353 1716 
Q 353 2575 817 3079 
Q 1281 3584 2069 3584 
Q 2775 3584 3186 3129 
Q 3597 2675 3597 1894 
z
M 3022 2063 
Q 3016 2534 2758 2815 
Q 2500 3097 2075 3097 
Q 1594 3097 1305 2825 
Q 1016 2553 972 2059 
L 3022 2063 
z
" transform="scale(0.015625)"/>
       <path id="DejaVuSans-73" d="M 2834 3397 
L 2834 2853 
Q 2591 2978 2328 3040 
Q 2066 3103 1784 3103 
Q 1356 3103 1142 2972 
Q 928 2841 928 2578 
Q 928 2378 1081 2264 
Q 1234 2150 1697 2047 
L 1894 2003 
Q 2506 1872 2764 1633 
Q 3022 1394 3022 966 
Q 3022 478 2636 193 
Q 2250 -91 1575 -91 
Q 1294 -91 989 -36 
Q 684 19 347 128 
L 347 722 
Q 666 556 975 473 
Q 1284 391 1588 391 
Q 1994 391 2212 530 
Q 2431 669 2431 922 
Q 2431 1156 2273 1281 
Q 2116 1406 1581 1522 
L 1381 1569 
Q 847 1681 609 1914 
Q 372 2147 372 2553 
Q 372 3047 722 3315 
Q 1072 3584 1716 3584 
Q 2034 3584 2315 3537 
Q 2597 3491 2834 3397 
z
" transform="scale(0.015625)"/>
       <path id="DejaVuSans-74" d="M 1172 4494 
L 1172 3500 
L 2356 3500 
L 2356 3053 
L 1172 3053 
L 1172 1153 
Q 1172 725 1289 603 
Q 1406 481 1766 481 
L 2356 481 
L 2356 0 
L 1766 0 
Q 1100 0 847 248 
Q 594 497 594 1153 
L 594 3053 
L 172 3053 
L 172 3500 
L 594 3500 
L 594 4494 
L 1172 4494 
z
" transform="scale(0.015625)"/>
       <path id="DejaVuSans-69" d="M 603 3500 
L 1178 3500 
L 1178 0 
L 603 0 
L 603 3500 
z
M 603 4863 
L 1178 4863 
L 1178 4134 
L 603 4134 
L 603 4863 
z
" transform="scale(0.015625)"/>
       <path id="DejaVuSans-6d" d="M 3328 2828 
Q 3544 3216 3844 3400 
Q 4144 3584 4550 3584 
Q 5097 3584 5394 3201 
Q 5691 2819 5691 2113 
L 5691 0 
L 5113 0 
L 5113 2094 
Q 5113 2597 4934 2840 
Q 4756 3084 4391 3084 
Q 3944 3084 3684 2787 
Q 3425 2491 3425 1978 
L 3425 0 
L 2847 0 
L 2847 2094 
Q 2847 2600 2669 2842 
Q 2491 3084 2119 3084 
Q 1678 3084 1418 2786 
Q 1159 2488 1159 1978 
L 1159 0 
L 581 0 
L 581 3500 
L 1159 3500 
L 1159 2956 
Q 1356 3278 1631 3431 
Q 1906 3584 2284 3584 
Q 2666 3584 2933 3390 
Q 3200 3197 3328 2828 
z
" transform="scale(0.015625)"/>
       <path id="DejaVuSans-61" d="M 2194 1759 
Q 1497 1759 1228 1600 
Q 959 1441 959 1056 
Q 959 750 1161 570 
Q 1363 391 1709 391 
Q 2188 391 2477 730 
Q 2766 1069 2766 1631 
L 2766 1759 
L 2194 1759 
z
M 3341 1997 
L 3341 0 
L 2766 0 
L 2766 531 
Q 2569 213 2275 61 
Q 1981 -91 1556 -91 
Q 1019 -91 701 211 
Q 384 513 384 1019 
Q 384 1609 779 1909 
Q 1175 2209 1959 2209 
L 2766 2209 
L 2766 2266 
Q 2766 2663 2505 2880 
Q 2244 3097 1772 3097 
Q 1472 3097 1187 3025 
Q 903 2953 641 2809 
L 641 3341 
Q 956 3463 1253 3523 
Q 1550 3584 1831 3584 
Q 2591 3584 2966 3190 
Q 3341 2797 3341 1997 
z
" transform="scale(0.015625)"/>
      </defs>
      <use xlink:href="#DejaVuSans-6c"/>
      <use xlink:href="#DejaVuSans-6f" transform="translate(27.783203 0)"/>
      <use xlink:href="#DejaVuSans-67" transform="translate(88.964844 0)"/>
      <use xlink:href="#DejaVuSans-31" transform="translate(152.441406 0)"/>
      <use xlink:href="#DejaVuSans-30" transform="translate(216.064453 0)"/>
      <use xlink:href="#DejaVuSans-20" transform="translate(279.6875 0)"/>
      <use xlink:href="#DejaVuSans-70" transform="translate(311.474609 0)"/>
      <use xlink:href="#DejaVuSans-72" transform="translate(374.951172 0)"/>
      <use xlink:href="#DejaVuSans-6f" transform="translate(413.814453 0)"/>
      <use xlink:href="#DejaVuSans-62" transform="translate(474.996094 0)"/>
      <use xlink:href="#DejaVuSans-20" transform="translate(538.472656 0)"/>
      <use xlink:href="#DejaVuSans-65" transform="translate(570.259766 0)"/>
      <use xlink:href="#DejaVuSans-73" transform="translate(631.783203 0)"/>
      <use xlink:href="#DejaVuSans-74" transform="translate(683.882812 0)"/>
      <use xlink:href="#DejaVuSans-69" transform="translate(723.091797 0)"/>
      <use xlink:href="#DejaVuSans-6d" transform="translate(750.875 0)"/>
      <use xlink:href="#DejaVuSans-61" transform="translate(848.287109 0)"/>
      <use xlink:href="#DejaVuSans-74" transform="translate(909.566406 0)"/>
      <use xlink:href="#DejaVuSans-65" transform="translate(948.775391 0)"/>
     </g>
    </g>
   </g>
   <g id="matplotlib.axis_2">
    <g id="ytick_1">
     <g id="line2d_9">
      <defs>
       <path id="m1e3c4df5dc" d="M 0 0 
L -3.5 0 
" style="stroke: #000000; stroke-width: 0.8"/>
      </defs>
      <g>
       <use xlink:href="#m1e3c4df5dc" x="72" y="384.48" style="stroke: #000000; stroke-width: 0.8"/>
      </g>
     </g>
     <g id="text_10">
      <!-- 0.0 -->
      <g transform="translate(49.096875 388.279219) scale(0.1 -0.1)">
       <defs>
        <path id="DejaVuSans-2e" d="M 684 794 
L 1344 794 
L 1344 0 
L 684 0 
L 684 794 
z
" transform="scale(0.015625)"/>
       </defs>
       <use xlink:href="#DejaVuSans-30"/>
       <use xlink:href="#DejaVuSans-2e" transform="translate(63.623047 0)"/>
       <use xlink:href="#DejaVuSans-30" transform="translate(95.410156 0)"/>
      </g>
     </g>
    </g>
    <g id="ytick_2">
     <g id="line2d_10">
      <g>
       <use xlink:href="#m1e3c4df5dc" x="72" y="321.12" style="stroke: #000000; stroke-width: 0.8"/>
      </g>
     </g>
     <g id="text_11">
      <!-- 0.2 -->
      <g transform="translate(49.096875 324.919219) scale(0.1 -0.1)">
       <defs>
        <path id="DejaVuSans-32" d="M 1228 531 
L 3431 531 
L 3431 0 
L 469 0 
L 469 531 
Q 828 903 1448 1529 
Q 2069 2156 2228 2338 
Q 2531 2678 2651 2914 
Q 2772 3150 2772 3378 
Q 2772 3750 2511 3984 
Q 2250 4219 1831 4219 
Q 1534 4219 1204 4116 
Q 875 4013 500 3803 
L 500 4441 
Q 881 4594 1212 4672 
Q 1544 4750 1819 4750 
Q 2544 4750 2975 4387 
Q 3406 4025 3406 3419 
Q 3406 3131 3298 2873 
Q 3191 2616 2906 2266 
Q 2828 2175 2409 1742 
Q 1991 1309 1228 531 
z
" transform="scale(0.015625)"/>
       </defs>
       <use xlink:href="#DejaVuSans-30"/>
       <use xlink:href="#DejaVuSans-2e" transform="translate(63.623047 0)"/>
       <use xlink:href="#DejaVuSans-32" transform="translate(95.410156 0)"/>
      </g>
     </g>
    </g>
    <g id="ytick_3">
     <g id="line2d_11">
      <g>
       <use xlink:href="#m1e3c4df5dc" x="72" y="257.76" style="stroke: #000000; stroke-width: 0.8"/>
      </g>
     </g>
     <g id="text_12">
      <!-- 0.4 -->
      <g transform="translate(49.096875 261.559219) scale(0.1 -0.1)">
       <use xlink:href="#DejaVuSans-30"/>
       <use xlink:href="#DejaVuSans-2e" transform="translate(63.623047 0)"/>
       <use xlink:href="#DejaVuSans-34" transform="translate(95.410156 0)"/>
      </g>
     </g>
    </g>
    <g id="ytick_4">
     <g id="line2d_12">
      <g>
       <use xlink:href="#m1e3c4df5dc" x="72" y="194.4" style="stroke: #000000; stroke-width: 0.8"/>
      </g>
     </g>
     <g id="text_13">
      <!-- 0.6 -->
      <g transform="translate(49.096875 198.199219) scale(0.1 -0.1)">
       <use xlink:href="#DejaVuSans-30"/>
       <use xlink:href="#DejaVuSans-2e" transform="translate(63.623047 0)"/>
       <use xlink:href="#DejaVuSans-36" transform="translate(95.410156 0)"/>
      </g>
     </g>
    </g>
    <g id="ytick_5">
     <g id="line2d_13">
      <g>
       <use xlink:href="#m1e3c4df5dc" x="72" y="131.04" style="stroke: #000000; stroke-width: 0.8"/>
      </g>
     </g>
     <g id="text_14">
      <!-- 0.8 -->
      <g transform="translate(49.096875 134.839219) scale(0.1 -0.1)">
       <defs>
        <path id="DejaVuSans-38" d="M 2034 2216 
Q 1584 2216 1326 1975 
Q 1069 1734 1069 1313 
Q 1069 891 1326 650 
Q 1584 409 2034 409 
Q 2484 409 2743 651 
Q 3003 894 3003 1313 
Q 3003 1734 2745 1975 
Q 2488 2216 2034 2216 
z
M 1403 2484 
Q 997 2584 770 2862 
Q 544 3141 544 3541 
Q 544 4100 942 4425 
Q 1341 4750 2034 4750 
Q 2731 4750 3128 4425 
Q 3525 4100 3525 3541 
Q 3525 3141 3298 2862 
Q 3072 2584 2669 2484 
Q 3125 2378 3379 2068 
Q 3634 1759 3634 1313 
Q 3634 634 3220 271 
Q 2806 -91 2034 -91 
Q 1263 -91 848 271 
Q 434 634 434 1313 
Q 434 1759 690 2068 
Q 947 2378 1403 2484 
z
M 1172 3481 
Q 1172 3119 1398 2916 
Q 1625 2713 2034 2713 
Q 2441 2713 2670 2916 
Q 2900 3119 2900 3481 
Q 2900 3844 2670 4047 
Q 2441 4250 2034 4250 
Q 1625 4250 1398 4047 
Q 1172 3844 1172 3481 
z
" transform="scale(0.015625)"/>
       </defs>
       <use xlink:href="#DejaVuSans-30"/>
       <use xlink:href="#DejaVuSans-2e" transform="translate(63.623047 0)"/>
       <use xlink:href="#DejaVuSans-38" transform="translate(95.410156 0)"/>
      </g>
     </g>
    </g>
    <g id="ytick_6">
     <g id="line2d_14">
      <g>
       <use xlink:href="#m1e3c4df5dc" x="72" y="67.68" style="stroke: #000000; stroke-width: 0.8"/>
      </g>
     </g>
     <g id="text_15">
      <!-- 1.0 -->
      <g transform="translate(49.096875 71.479219) scale(0.1 -0.1)">
       <use xlink:href="#DejaVuSans-31"/>
       <use xlink:href="#DejaVuSans-2e" transform="translate(63.623047 0)"/>
       <use xlink:href="#DejaVuSans-30" transform="translate(95.410156 0)"/>
      </g>
     </g>
    </g>
   </g>
   <g id="patch_9">
    <path d="M 72 384.48 
L 72 51.84 
" style="fill: none; stroke: #000000; stroke-width: 0.8; stroke-linejoin: miter; stroke-linecap: square"/>
   </g>
   <g id="patch_10">
    <path d="M 518.4 384.48 
L 518.4 51.84 
" style="fill: none; stroke: #000000; stroke-width: 0.8; stroke-linejoin: miter; stroke-linecap: square"/>
   </g>
   <g id="patch_11">
    <path d="M 72 384.48 
L 518.4 384.48 
" style="fill: none; stroke: #000000; stroke-width: 0.8; stroke-linejoin: miter; stroke-linecap: square"/>
   </g>
   <g id="patch_12">
    <path d="M 72 51.84 
L 518.4 51.84 
" style="fill: none; stroke: #000000; stroke-width: 0.8; stroke-linejoin: miter; stroke-linecap: square"/>
   </g>
   <g id="text_16">
    <!-- MLP KL basins: preconditioners -->
    <g transform="translate(201.977812 45.84) scale(0.12 -0.12)">
     <defs>
      <path id="DejaVuSans-4d" d="M 628 4666 
L 1569 4666 
L 2759 1491 
L 3956 4666 
L 4897 4666 
L 4897 0 
L 4281 0 
L 4281 4097 
L 3078 897 
L 2444 897 
L 1241 4097 
L 1241 0 
L 628 0 
L 628 4666 
z
" transform="scale(0.015625)"/>
      <path id="DejaVuSans-4c" d="M 628 4666 
L 1259 4666 
L 1259 531 
L 3531 531 
L 3531 0 
L 628 0 
L 628 4666 
z
" transform="scale(0.015625)"/>
      <path id="DejaVuSans-50" d="M 1259 4147 
L 1259 2394 
L 2053 2394 
Q 2494 2394 2734 2622 
Q 2975 2850 2975 3272 
Q 2975 3691 2734 3919 
Q 2494 4147 2053 4147 
L 1259 4147 
z
M 628 4666 
L 2053 4666 
Q 2838 4666 3239 4311 
Q 3641 3956 3641 3272 
Q 3641 2581 3239 2228 
Q 2838 1875 2053 1875 
L 1259 1875 
L 1259 0 
L 628 0 
L 628 4666 
z
" transform="scale(0.015625)"/>
      <path id="DejaVuSans-4b" d="M 628 4666 
L 1259 4666 
L 1259 2694 
L 3353 4666 
L 4166 4666 
L 1850 2491 
L 4331 0 
L 3500 0 
L 1259 2247 
L 1259 0 
L 628 0 
L 628 4666 
z
" transform="scale(0.015625)"/>
      <path id="DejaVuSans-6e" d="M 3513 2113 
L 3513 0 
L 2938 0 
L 2938 2094 
Q 2938 2591 2744 2837 
Q 2550 3084 2163 3084 
Q 1697 3084 1428 2787 
Q 1159 2491 1159 1978 
L 1159 0 
L 581 0 
L 581 3500 
L 1159 3500 
L 1159 2956 
Q 1366 3272 1645 3428 
Q 1925 3584 2291 3584 
Q 2894 3584 3203 3211 
Q 3513 2838 3513 2113 
z
" transform="scale(0.015625)"/>
      <path id="DejaVuSans-3a" d="M 750 794 
L 1409 794 
L 1409 0 
L 750 0 
L 750 794 
z
M 750 3309 
L 1409 3309 
L 1409 2516 
L 750 2516 
L 750 3309 
z
" transform="scale(0.015625)"/>
      <path id="DejaVuSans-63" d="M 3122 3366 
L 3122 2828 
Q 2878 2963 2633 3030 
Q 2388 3097 2138 3097 
Q 1578 3097 1268 2742 
Q 959 2388 959 1747 
Q 959 1106 1268 751 
Q 1578 397 2138 397 
Q 2388 397 2633 464 
Q 2878 531 3122 666 
L 3122 134 
Q 2881 22 2623 -34 
Q 2366 -91 2075 -91 
Q 1284 -91 818 406 
Q 353 903 353 1747 
Q 353 2603 823 3093 
Q 1294 3584 2113 3584 
Q 2378 3584 2631 3529 
Q 2884 3475 3122 3366 
z
" transform="scale(0.015625)"/>
      <path id="DejaVuSans-64" d="M 2906 2969 
L 2906 4863 
L 3481 4863 
L 3481 0 
L 2906 0 
L 2906 525 
Q 2725 213 2448 61 
Q 2172 -91 1784 -91 
Q 1150 -91 751 415 
Q 353 922 353 1747 
Q 353 2572 751 3078 
Q 1150 3584 1784 3584 
Q 2172 3584 2448 3432 
Q 2725 3281 2906 2969 
z
M 947 1747 
Q 947 1113 1208 752 
Q 1469 391 1925 391 
Q 2381 391 2643 752 
Q 2906 1113 2906 1747 
Q 2906 2381 2643 2742 
Q 2381 3103 1925 3103 
Q 1469 3103 1208 2742 
Q 947 2381 947 1747 
z
" transform="scale(0.015625)"/>
     </defs>
     <use xlink:href="#DejaVuSans-4d"/>
     <use xlink:href="#DejaVuSans-4c" transform="translate(86.279297 0)"/>
     <use xlink:href="#DejaVuSans-50" transform="translate(141.992188 0)"/>
     <use xlink:href="#DejaVuSans-20" transform="translate(202.294922 0)"/>
     <use xlink:href="#DejaVuSans-4b" transform="translate(234.082031 0)"/>
     <use xlink:href="#DejaVuSans-4c" transform="translate(299.658203 0)"/>
     <use xlink:href="#DejaVuSans-20" transform="translate(355.371094 0)"/>
     <use xlink:href="#DejaVuSans-62" transform="translate(387.158203 0)"/>
     <use xlink:href="#DejaVuSans-61" transform="translate(450.634766 0)"/>
     <use xlink:href="#DejaVuSans-73" transform="translate(511.914062 0)"/>
     <use xlink:href="#DejaVuSans-69" transform="translate(564.013672 0)"/>
     <use xlink:href="#DejaVuSans-6e" transform="translate(591.796875 0)"/>
     <use xlink:href="#DejaVuSans-73" transform="translate(655.175781 0)"/>
     <use xlink:href="#DejaVuSans-3a" transform="translate(707.275391 0)"/>
     <use xlink:href="#DejaVuSans-20" transform="translate(740.966797 0)"/>
     <use xlink:href="#DejaVuSans-70" transform="translate(772.753906 0)"/>
     <use xlink:href="#DejaVuSans-72" transform="translate(836.230469 0)"/>
     <use xlink:href="#DejaVuSans-65" transform="translate(875.09375 0)"/>
     <use xlink:href="#DejaVuSans-63" transform="translate(936.617188 0)"/>
     <use xlink:href="#DejaVuSans-6f" transform="translate(991.597656 0)"/>
     <use xlink:href="#DejaVuSans-6e" transform="translate(1052.779297 0)"/>
     <use xlink:href="#DejaVuSans-64" transform="translate(1116.158203 0)"/>
     <use xlink:href="#DejaVuSans-69" transform="translate(1179.634766 0)"/>
     <use xlink:href="#DejaVuSans-74" transform="translate(1207.417969 0)"/>
     <use xlink:href="#DejaVuSans-69" transform="translate(1246.626953 0)"/>
     <use xlink:href="#DejaVuSans-6f" transform="translate(1274.410156 0)"/>
     <use xlink:href="#DejaVuSans-6e" transform="translate(1335.591797 0)"/>
     <use xlink:href="#DejaVuSans-65" transform="translate(1398.970703 0)"/>
     <use xlink:href="#DejaVuSans-72" transform="translate(1460.494141 0)"/>
     <use xlink:href="#DejaVuSans-73" transform="translate(1501.607422 0)"/>
    </g>
   </g>
   <g id="legend_1">
    <g id="patch_13">
     <path d="M 429.976562 148.465 
L 511.4 148.465 
Q 513.4 148.465 513.4 146.465 
L 513.4 58.84 
Q 513.4 56.84 511.4 56.84 
L 429.976562 56.84 
Q 427.976562 56.84 427.976562 58.84 
L 427.976562 146.465 
Q 427.976562 148.465 429.976562 148.465 
z
" style="fill: #ffffff; opacity: 0.8; stroke: #cccccc; stroke-linejoin: miter"/>
    </g>
    <g id="patch_14">
     <path d="M 431.976562 68.438437 
L 451.976562 68.438437 
L 451.976562 61.438437 
L 431.976562 61.438437 
z
" style="fill: #1f77b4; opacity: 0.5"/>
    </g>
    <g id="text_17">
     <!-- naive -->
     <g transform="translate(459.976562 68.438437) scale(0.1 -0.1)">
      <defs>
       <path id="DejaVuSans-76" d="M 191 3500 
L 800 3500 
L 1894 563 
L 2988 3500 
L 3597 3500 
L 2284 0 
L 1503 0 
L 191 3500 
z
" transform="scale(0.015625)"/>
      </defs>
      <use xlink:href="#DejaVuSans-6e"/>
      <use xlink:href="#DejaVuSans-61" transform="translate(63.378906 0)"/>
      <use xlink:href="#DejaVuSans-69" transform="translate(124.658203 0)"/>
      <use xlink:href="#DejaVuSans-76" transform="translate(152.441406 0)"/>
      <use xlink:href="#DejaVuSans-65" transform="translate(211.621094 0)"/>
     </g>
    </g>
    <g id="patch_15">
     <path d="M 431.976562 83.116562 
L 451.976562 83.116562 
L 451.976562 76.116562 
L 431.976562 76.116562 
z
" style="fill: #ff7f0e; opacity: 0.5"/>
    </g>
    <g id="text_18">
     <!-- hessian -->
     <g transform="translate(459.976562 83.116562) scale(0.1 -0.1)">
      <defs>
       <path id="DejaVuSans-68" d="M 3513 2113 
L 3513 0 
L 2938 0 
L 2938 2094 
Q 2938 2591 2744 2837 
Q 2550 3084 2163 3084 
Q 1697 3084 1428 2787 
Q 1159 2491 1159 1978 
L 1159 0 
L 581 0 
L 581 4863 
L 1159 4863 
L 1159 2956 
Q 1366 3272 1645 3428 
Q 1925 3584 2291 3584 
Q 2894 3584 3203 3211 
Q 3513 2838 3513 2113 
z
" transform="scale(0.015625)"/>
      </defs>
      <use xlink:href="#DejaVuSans-68"/>
      <use xlink:href="#DejaVuSans-65" transform="translate(63.378906 0)"/>
      <use xlink:href="#DejaVuSans-73" transform="translate(124.902344 0)"/>
      <use xlink:href="#DejaVuSans-73" transform="translate(177.001953 0)"/>
      <use xlink:href="#DejaVuSans-69" transform="translate(229.101562 0)"/>
      <use xlink:href="#DejaVuSans-61" transform="translate(256.884766 0)"/>
      <use xlink:href="#DejaVuSans-6e" transform="translate(318.164062 0)"/>
     </g>
    </g>
    <g id="patch_16">
     <path d="M 431.976562 97.794687 
L 451.976562 97.794687 
L 451.976562 90.794687 
L 431.976562 90.794687 
z
" style="fill: #2ca02c; opacity: 0.5"/>
    </g>
    <g id="text_19">
     <!-- diagH -->
     <g transform="translate(459.976562 97.794687) scale(0.1 -0.1)">
      <defs>
       <path id="DejaVuSans-48" d="M 628 4666 
L 1259 4666 
L 1259 2753 
L 3553 2753 
L 3553 4666 
L 4184 4666 
L 4184 0 
L 3553 0 
L 3553 2222 
L 1259 2222 
L 1259 0 
L 628 0 
L 628 4666 
z
" transform="scale(0.015625)"/>
      </defs>
      <use xlink:href="#DejaVuSans-64"/>
      <use xlink:href="#DejaVuSans-69" transform="translate(63.476562 0)"/>
      <use xlink:href="#DejaVuSans-61" transform="translate(91.259766 0)"/>
      <use xlink:href="#DejaVuSans-67" transform="translate(152.539062 0)"/>
      <use xlink:href="#DejaVuSans-48" transform="translate(216.015625 0)"/>
     </g>
    </g>
    <g id="patch_17">
     <path d="M 431.976562 112.472812 
L 451.976562 112.472812 
L 451.976562 105.472812 
L 431.976562 105.472812 
z
" style="fill: #d62728; opacity: 0.5"/>
    </g>
    <g id="text_20">
     <!-- hesscale -->
     <g transform="translate(459.976562 112.472812) scale(0.1 -0.1)">
      <use xlink:href="#DejaVuSans-68"/>
      <use xlink:href="#DejaVuSans-65" transform="translate(63.378906 0)"/>
      <use xlink:href="#DejaVuSans-73" transform="translate(124.902344 0)"/>
      <use xlink:href="#DejaVuSans-73" transform="translate(177.001953 0)"/>
      <use xlink:href="#DejaVuSans-63" transform="translate(229.101562 0)"/>
      <use xlink:href="#DejaVuSans-61" transform="translate(284.082031 0)"/>
      <use xlink:href="#DejaVuSans-6c" transform="translate(345.361328 0)"/>
      <use xlink:href="#DejaVuSans-65" transform="translate(373.144531 0)"/>
     </g>
    </g>
    <g id="patch_18">
     <path d="M 431.976562 127.150937 
L 451.976562 127.150937 
L 451.976562 120.150937 
L 431.976562 120.150937 
z
" style="fill: #9467bd; opacity: 0.5"/>
    </g>
    <g id="text_21">
     <!-- adam_mu -->
     <g transform="translate(459.976562 127.150937) scale(0.1 -0.1)">
      <defs>
       <path id="DejaVuSans-5f" d="M 3263 -1063 
L 3263 -1509 
L -63 -1509 
L -63 -1063 
L 3263 -1063 
z
" transform="scale(0.015625)"/>
       <path id="DejaVuSans-75" d="M 544 1381 
L 544 3500 
L 1119 3500 
L 1119 1403 
Q 1119 906 1312 657 
Q 1506 409 1894 409 
Q 2359 409 2629 706 
Q 2900 1003 2900 1516 
L 2900 3500 
L 3475 3500 
L 3475 0 
L 2900 0 
L 2900 538 
Q 2691 219 2414 64 
Q 2138 -91 1772 -91 
Q 1169 -91 856 284 
Q 544 659 544 1381 
z
M 1991 3584 
L 1991 3584 
z
" transform="scale(0.015625)"/>
      </defs>
      <use xlink:href="#DejaVuSans-61"/>
      <use xlink:href="#DejaVuSans-64" transform="translate(61.279297 0)"/>
      <use xlink:href="#DejaVuSans-61" transform="translate(124.755859 0)"/>
      <use xlink:href="#DejaVuSans-6d" transform="translate(186.035156 0)"/>
      <use xlink:href="#DejaVuSans-5f" transform="translate(283.447266 0)"/>
      <use xlink:href="#DejaVuSans-6d" transform="translate(333.447266 0)"/>
      <use xlink:href="#DejaVuSans-75" transform="translate(430.859375 0)"/>
     </g>
    </g>
    <g id="patch_19">
     <path d="M 431.976562 142.107187 
L 451.976562 142.107187 
L 451.976562 135.107187 
L 431.976562 135.107187 
z
" style="fill: #8c564b; opacity: 0.5"/>
    </g>
    <g id="text_22">
     <!-- adam_nu -->
     <g transform="translate(459.976562 142.107187) scale(0.1 -0.1)">
      <use xlink:href="#DejaVuSans-61"/>
      <use xlink:href="#DejaVuSans-64" transform="translate(61.279297 0)"/>
      <use xlink:href="#DejaVuSans-61" transform="translate(124.755859 0)"/>
      <use xlink:href="#DejaVuSans-6d" transform="translate(186.035156 0)"/>
      <use xlink:href="#DejaVuSans-5f" transform="translate(283.447266 0)"/>
      <use xlink:href="#DejaVuSans-6e" transform="translate(333.447266 0)"/>
      <use xlink:href="#DejaVuSans-75" transform="translate(396.826172 0)"/>
     </g>
    </g>
   </g>
  </g>
 </g>
 <defs>
  <clipPath id="p3fc14a3694">
   <rect x="72" y="51.84" width="446.4" height="332.64"/>
  </clipPath>
 </defs>
</svg>
